<?xml version="1.0" encoding="UTF-8" standalone="no"?>
<svg
   width="62mm"
   height="12mm"
   viewBox="0 0 62.000005 12.000001"
   version="1.1"
   id="svg4738"
   inkscape:version="1.1.2 (0a00cf5339, 2022-02-04)"
   sodipodi:docname="logo_slogan_PT_oficial.svg"
   xmlns:inkscape="http://www.inkscape.org/namespaces/inkscape"
   xmlns:sodipodi="http://sodipodi.sourceforge.net/DTD/sodipodi-0.dtd"
   xmlns="http://www.w3.org/2000/svg"
   xmlns:svg="http://www.w3.org/2000/svg"
   xmlns:rdf="http://www.w3.org/1999/02/22-rdf-syntax-ns#"
   xmlns:cc="http://creativecommons.org/ns#"
   xmlns:dc="http://purl.org/dc/elements/1.1/">
  <defs
     id="defs4732" />
  <sodipodi:namedview
     id="base"
     pagecolor="#ffffff"
     bordercolor="#666666"
     borderopacity="1.0"
     inkscape:pageopacity="0.0"
     inkscape:pageshadow="2"
     inkscape:zoom="4"
     inkscape:cx="91.375"
     inkscape:cy="10.5"
     inkscape:document-units="mm"
     inkscape:current-layer="g855"
     showgrid="false"
     inkscape:window-width="1920"
     inkscape:window-height="1011"
     inkscape:window-x="0"
     inkscape:window-y="0"
     inkscape:window-maximized="1"
     inkscape:snap-bbox="false"
     inkscape:bbox-nodes="true"
     inkscape:bbox-paths="true"
     inkscape:snap-text-baseline="true"
     inkscape:document-rotation="0"
     inkscape:pagecheckerboard="0" />
  <metadata
     id="metadata4735">
    <rdf:RDF>
      <cc:Work
         rdf:about="">
        <dc:format>image/svg+xml</dc:format>
        <dc:type
           rdf:resource="http://purl.org/dc/dcmitype/StillImage" />
      </cc:Work>
    </rdf:RDF>
  </metadata>
  <g
     inkscape:groupmode="layer"
     id="layer2"
     inkscape:label="Layer 2"
     transform="matrix(1.3412098,0,0,1.3412098,-17.825446,-104.12495)"
     style="display:inline"
     sodipodi:insensitive="true" />
  <g
     inkscape:label="Layer 1"
     inkscape:groupmode="layer"
     id="layer1"
     transform="translate(-2.9730686,-73.170775)"
     style="display:inline">
    <text
       xml:space="preserve"
       style="font-style:normal;font-weight:normal;font-size:6.08481px;line-height:125%;font-family:sans-serif;letter-spacing:0px;word-spacing:0px;fill:#000000;fill-opacity:1;stroke:none;stroke-width:0.264583px;stroke-linecap:butt;stroke-linejoin:miter;stroke-opacity:1"
       x="52.826782"
       y="125.43476"
       id="text5289" />
    <text
       xml:space="preserve"
       style="font-style:normal;font-weight:normal;font-size:6.08481px;line-height:125%;font-family:sans-serif;letter-spacing:0px;word-spacing:0px;fill:#000000;fill-opacity:1;stroke:none;stroke-width:0.264583px;stroke-linecap:butt;stroke-linejoin:miter;stroke-opacity:1"
       x="36.689808"
       y="85.343277"
       id="text5295" />
    <text
       xml:space="preserve"
       style="font-style:normal;font-weight:normal;font-size:3.1816px;line-height:125%;font-family:sans-serif;letter-spacing:0px;word-spacing:0px;fill:#000000;fill-opacity:1;stroke:none;stroke-width:0.264583px;stroke-linecap:butt;stroke-linejoin:miter;stroke-opacity:1"
       x="24.415754"
       y="93.21981"
       id="text828" />
    <flowRoot
       xml:space="preserve"
       id="flowRoot862"
       style="font-style:normal;font-weight:normal;font-size:10.6667px;line-height:125%;font-family:sans-serif;letter-spacing:0px;word-spacing:0px;fill:#000000;fill-opacity:1;stroke:none;stroke-width:0.887046px;stroke-linecap:butt;stroke-linejoin:miter;stroke-opacity:1"
       transform="matrix(0.29827477,0,0,0.29827477,22.924381,71.816621)"><flowRegion
         id="flowRegion864"
         style="stroke-width:0.887046px"><rect
           id="rect866"
           width="268"
           height="72.5"
           x="-26"
           y="81.756653"
           style="stroke-width:0.88704562px" /></flowRegion><flowPara
         id="flowPara868"
         style="stroke-width:0.887046px" /></flowRoot>
    <flowRoot
       xml:space="preserve"
       id="flowRoot5134"
       style="font-style:normal;font-weight:normal;font-size:10.6667px;line-height:125%;font-family:sans-serif;letter-spacing:0px;word-spacing:0px;fill:#000000;fill-opacity:1;stroke:none;stroke-width:1px;stroke-linecap:butt;stroke-linejoin:miter;stroke-opacity:1"><flowRegion
         id="flowRegion5136"><rect
           id="rect5138"
           width="172"
           height="45.5"
           x="-18.5"
           y="-14.540985" /></flowRegion><flowPara
         id="flowPara5140" /></flowRoot>
    <g
       id="g869"
       transform="matrix(1.2,0,0,1.2,-14.031617,-19.504151)"
       style="stroke-width:0.833333">
      <g
         transform="translate(0.52917261)"
         id="g929"
         style="stroke-width:0.833333" />
    </g>
    <flowRoot
       xml:space="preserve"
       id="flowRoot884"
       style="font-style:normal;font-variant:normal;font-weight:normal;font-stretch:normal;font-size:10.6667px;line-height:125%;font-family:ZephyrScriptFLF;-inkscape-font-specification:ZephyrScriptFLF;letter-spacing:0px;word-spacing:0px;fill:#000000;fill-opacity:1;stroke:none;stroke-width:1px;stroke-linecap:butt;stroke-linejoin:miter;stroke-opacity:1"><flowRegion
         id="flowRegion886"><rect
           id="rect888"
           width="1975.6562"
           height="115.96551"
           x="-14.142136"
           y="-35.425209" /></flowRegion><flowPara
         id="flowPara890" /></flowRoot>
    <flowRoot
       xml:space="preserve"
       id="flowRoot892"
       style="font-style:normal;font-variant:normal;font-weight:normal;font-stretch:normal;font-size:10.6667px;line-height:125%;font-family:ZephyrScriptFLF;-inkscape-font-specification:ZephyrScriptFLF;letter-spacing:0px;word-spacing:0px;fill:#000000;fill-opacity:1;stroke:none;stroke-width:1px;stroke-linecap:butt;stroke-linejoin:miter;stroke-opacity:1"><flowRegion
         id="flowRegion894"><rect
           id="rect896"
           width="759.43268"
           height="304.05591"
           x="-73.539101"
           y="-104.01456" /></flowRegion><flowPara
         id="flowPara898" /></flowRoot>
    <g
       id="g4144">
      <g
         id="g855"
         transform="translate(0.06986203,-0.34468378)">
        <g
           id="g856">
          <path
             id="path5291"
             style="display:inline;fill:#6a8888;fill-rule:evenodd;stroke:#000000;stroke-width:0;stroke-opacity:0"
             d="m 12.797946,80.499969 a 1.6094203,1.6093882 0 0 1 -1.551169,1.608334 1.6094203,1.6093882 0 0 1 -1.6634545,-1.49191 1.6094203,1.6093882 0 0 1 1.4307545,-1.71633 1.6094203,1.6093882 0 0 1 1.767025,1.367669" />
          <g
             aria-label="eQuanta"
             id="text5285"
             style="font-size:7.58784px;line-height:125%;letter-spacing:0px;word-spacing:0px;display:inline;stroke-width:0.295718px">
            <path
               d="m 9.8915298,79.14784 c 0,-1.864378 -1.2467311,-3.122547 -2.9967297,-3.122547 -1.7499986,0 -3.0424813,1.292483 -3.0424813,3.088233 0,1.807188 1.3039206,3.099671 3.2598014,3.099671 1.0065352,0 1.8415018,-0.343137 2.390521,-0.98366 L 8.8964325,80.520388 c -0.4460781,0.491829 -1.0408488,0.732025 -1.7499986,0.732025 -1.2009795,0 -2.0588219,-0.70915 -2.1960767,-1.772874 H 9.868654 c 0.011438,-0.102941 0.022876,-0.240196 0.022876,-0.331699 z M 6.8948001,76.951763 c 1.0637247,0 1.8300639,0.720588 1.9444429,1.738561 H 4.9503572 c 0.114379,-1.029411 0.8921561,-1.738561 1.9444429,-1.738561 z"
               style="font-weight:500;font-size:11.4379px;font-family:Montserrat;-inkscape-font-specification:'Montserrat, Medium';letter-spacing:-0.758784px;fill:#1a222c"
               id="path859" />
            <path
               d="m 17.806295,82.224635 c -0.411765,0.457516 -0.892157,0.686274 -1.464052,0.686274 -0.514705,0 -0.995097,-0.228758 -1.532678,-0.800653 1.864378,-0.43464 3.145422,-1.978757 3.145422,-3.968951 0,-2.356208 -1.807188,-4.094769 -4.24346,-4.094769 -2.459149,0 -4.266337,1.749999 -4.266337,4.094769 0,2.253266 1.669933,3.957513 3.968951,4.08333 1.120914,1.155228 1.910129,1.589868 2.916665,1.589868 0.800653,0 1.498364,-0.331699 2.01307,-0.937908 z m -7.217315,-4.08333 c 0,-1.761437 1.326796,-3.076795 3.122547,-3.076795 1.772874,0 3.09967,1.315358 3.09967,3.076795 0,1.761436 -1.326796,3.076795 -3.09967,3.076795 -1.795751,0 -3.122547,-1.315359 -3.122547,-3.076795 z"
               style="font-weight:500;font-size:11.4379px;font-family:Montserrat;-inkscape-font-specification:'Montserrat, Medium';letter-spacing:-0.758784px;fill:#1a222c"
               id="path861" />
            <path
               d="m 23.338335,79.216467 c 0,1.303921 -0.732025,2.01307 -1.875815,2.01307 -1.040849,0 -1.63562,-0.59477 -1.63562,-1.784312 v -3.362742 h -1.098038 v 3.488559 c 0,1.784312 1.040849,2.642155 2.607841,2.642155 0.857842,0 1.612744,-0.354575 2.058822,-0.98366 v 0.915032 h 1.040849 v -6.062086 h -1.098039 z"
               style="font-weight:500;font-size:11.4379px;font-family:Montserrat;-inkscape-font-specification:'Montserrat, Medium';letter-spacing:-0.758784px;fill:#1a222c"
               id="path863" />
            <path
               d="m 27.978219,76.025293 c -0.972221,0 -1.875815,0.27451 -2.5049,0.777777 l 0.457516,0.823529 c 0.468954,-0.400326 1.20098,-0.65196 1.921567,-0.65196 1.086601,0 1.624182,0.537581 1.624182,1.464051 v 0.21732 h -1.738561 c -1.807188,0 -2.436272,0.800653 -2.436272,1.772874 0,1.052287 0.86928,1.784313 2.241828,1.784313 0.949346,0 1.624182,-0.320261 1.990195,-0.869281 v 0.800653 h 1.040848 v -3.660127 c 0,-1.658496 -0.937907,-2.459149 -2.596403,-2.459149 z m -0.251634,5.341499 c -0.834966,0 -1.338234,-0.37745 -1.338234,-0.983659 0,-0.514706 0.308824,-0.937908 1.395424,-0.937908 h 1.692809 v 0.846405 c -0.274509,0.697712 -0.92647,1.075162 -1.749999,1.075162 z"
               style="font-weight:500;font-size:11.4379px;font-family:Montserrat;-inkscape-font-specification:'Montserrat, Medium';letter-spacing:-0.758784px;fill:#1a222c"
               id="path865" />
            <path
               d="m 35.088704,76.025293 c -0.960784,0 -1.738561,0.354575 -2.184639,0.972222 v -0.915032 h -1.052287 v 6.062086 h 1.098039 v -3.122546 c 0,-1.315359 0.754901,-2.013071 1.921567,-2.013071 1.040849,0 1.63562,0.583333 1.63562,1.772875 v 3.362742 h 1.098038 V 78.65601 c 0,-1.784312 -1.040849,-2.630717 -2.516338,-2.630717 z"
               style="font-weight:500;font-size:11.4379px;font-family:Montserrat;-inkscape-font-specification:'Montserrat, Medium';letter-spacing:-0.758784px;fill:#1a222c"
               id="path867" />
            <path
               d="m 41.947558,81.000779 c -0.228758,0.183007 -0.537582,0.285948 -0.857843,0.285948 -0.606208,0 -0.949345,-0.366013 -0.949345,-1.017973 v -3.282677 h 1.73856 v -0.903594 h -1.73856 v -1.326797 h -1.098039 v 1.326797 H 38.01292 v 0.903594 h 1.029411 v 3.328428 c 0,1.223856 0.697712,1.898692 1.921567,1.898692 0.49183,0 0.995098,-0.137255 1.326797,-0.423202 z"
               style="font-weight:500;font-size:11.4379px;font-family:Montserrat;-inkscape-font-specification:'Montserrat, Medium';letter-spacing:-0.758784px;fill:#1a222c"
               id="path869" />
            <path
               d="m 45.066217,76.025293 c -0.972222,0 -1.875816,0.27451 -2.5049,0.777777 l 0.457516,0.823529 c 0.468954,-0.400326 1.200979,-0.65196 1.921567,-0.65196 1.0866,0 1.624182,0.537581 1.624182,1.464051 v 0.21732 h -1.738561 c -1.807188,0 -2.436273,0.800653 -2.436273,1.772874 0,1.052287 0.869281,1.784313 2.241829,1.784313 0.949345,0 1.624181,-0.320261 1.990194,-0.869281 v 0.800653 h 1.040849 v -3.660127 c 0,-1.658496 -0.937908,-2.459149 -2.596403,-2.459149 z m -0.251634,5.341499 c -0.834967,0 -1.338234,-0.37745 -1.338234,-0.983659 0,-0.514706 0.308823,-0.937908 1.395423,-0.937908 h 1.69281 v 0.846405 c -0.27451,0.697712 -0.92647,1.075162 -1.749999,1.075162 z"
               style="font-weight:500;font-size:11.4379px;font-family:Montserrat;-inkscape-font-specification:'Montserrat, Medium';letter-spacing:-0.758784px;fill:#1a222c"
               id="path871" />
          </g>
          <g
             aria-label="Diligentia laborat in omnis silvae et maria"
             id="text824"
             style="font-size:10.1464px;line-height:125%;letter-spacing:0px;word-spacing:0px;display:inline;stroke-width:0.296">
            <path
               d="m 19.739057,84.558937 c 0.480484,0 0.808568,-0.296334 0.808568,-0.740834 0,-0.444501 -0.328084,-0.740835 -0.808568,-0.740835 h -0.647701 v 1.481669 z m -0.372534,-1.248835 h 0.359834 c 0.330201,0 0.543984,0.201083 0.543984,0.508001 0,0.306917 -0.213783,0.508 -0.543984,0.508 h -0.359834 z"
               style="font-weight:600;font-size:2.11667px;font-family:Montserrat;-inkscape-font-specification:'Montserrat, Semi-Bold';fill:#5a7272"
               id="path874" />
            <path
               d="m 20.947672,83.242368 c 0.09948,0 0.169334,-0.07197 0.169334,-0.1651 0,-0.08678 -0.07197,-0.1524 -0.169334,-0.1524 -0.09737,0 -0.169333,0.06985 -0.169333,0.15875 0,0.0889 0.07197,0.15875 0.169333,0.15875 z m 0.131234,1.316569 v -1.130302 h -0.264584 v 1.130302 z"
               style="font-weight:600;font-size:2.11667px;font-family:Montserrat;-inkscape-font-specification:'Montserrat, Semi-Bold';fill:#5a7272"
               id="path876" />
            <path
               d="m 21.690622,84.558937 v -1.570569 h -0.264583 v 1.570569 z"
               style="font-weight:600;font-size:2.11667px;font-family:Montserrat;-inkscape-font-specification:'Montserrat, Semi-Bold';fill:#5a7272"
               id="path878" />
            <path
               d="m 22.171106,83.242368 c 0.09948,0 0.169333,-0.07197 0.169333,-0.1651 0,-0.08678 -0.07197,-0.1524 -0.169333,-0.1524 -0.09737,0 -0.169334,0.06985 -0.169334,0.15875 0,0.0889 0.07197,0.15875 0.169334,0.15875 z m 0.131233,1.316569 v -1.130302 h -0.264584 v 1.130302 z"
               style="font-weight:600;font-size:2.11667px;font-family:Montserrat;-inkscape-font-specification:'Montserrat, Semi-Bold';fill:#5a7272"
               id="path880" />
            <path
               d="m 23.519423,83.578919 c -0.09313,-0.112184 -0.232833,-0.162984 -0.391583,-0.162984 -0.323851,0 -0.571501,0.215901 -0.571501,0.543984 0,0.328084 0.24765,0.548218 0.571501,0.548218 0.1524,0 0.28575,-0.04868 0.378883,-0.150284 v 0.05927 c 0,0.228601 -0.110066,0.342901 -0.359833,0.342901 -0.156634,0 -0.317501,-0.05292 -0.416984,-0.135467 l -0.118534,0.198967 c 0.129117,0.105833 0.338667,0.160867 0.550334,0.160867 0.395817,0 0.609601,-0.186267 0.609601,-0.596901 v -0.958852 h -0.251884 z m -0.351367,0.704851 c -0.201083,0 -0.345017,-0.131234 -0.345017,-0.323851 0,-0.1905 0.143934,-0.319617 0.345017,-0.319617 0.198967,0 0.342901,0.129117 0.342901,0.319617 0,0.192617 -0.143934,0.323851 -0.342901,0.323851 z"
               style="font-weight:600;font-size:2.11667px;font-family:Montserrat;-inkscape-font-specification:'Montserrat, Semi-Bold';fill:#5a7272"
               id="path882" />
            <path
               d="m 25.181006,84.000136 c 0,-0.353484 -0.241301,-0.584201 -0.571501,-0.584201 -0.336551,0 -0.584201,0.241301 -0.584201,0.577851 0,0.336551 0.245534,0.579968 0.624418,0.579968 0.194733,0 0.353483,-0.0635 0.455084,-0.184151 L 24.962989,84.22662 c -0.08043,0.08255 -0.179917,0.122767 -0.306917,0.122767 -0.196851,0 -0.334434,-0.105834 -0.366184,-0.270934 h 0.886884 c 0.0021,-0.0254 0.0042,-0.05715 0.0042,-0.07832 z m -0.571501,-0.372534 c 0.173567,0 0.29845,0.112184 0.319617,0.275167 h -0.641351 c 0.0254,-0.1651 0.150284,-0.275167 0.321734,-0.275167 z"
               style="font-weight:600;font-size:2.11667px;font-family:Montserrat;-inkscape-font-specification:'Montserrat, Semi-Bold';fill:#5a7272"
               id="path884" />
            <path
               d="m 26.076357,83.415935 c -0.1651,0 -0.302684,0.05503 -0.389468,0.158751 v -0.146051 h -0.251883 v 1.130302 h 0.264584 v -0.571501 c 0,-0.226483 0.127,-0.340784 0.315383,-0.340784 0.169334,0 0.268817,0.09737 0.268817,0.298451 v 0.613834 h 0.264584 v -0.647701 c 0,-0.340784 -0.201083,-0.495301 -0.472017,-0.495301 z"
               style="font-weight:600;font-size:2.11667px;font-family:Montserrat;-inkscape-font-specification:'Montserrat, Semi-Bold';fill:#5a7272"
               id="path886" />
            <path
               d="m 27.490291,84.30917 c -0.04022,0.03175 -0.09313,0.04657 -0.148167,0.04657 -0.1016,0 -0.156633,-0.05927 -0.156633,-0.169334 v -0.537634 h 0.302683 v -0.211667 h -0.302683 v -0.258234 h -0.264584 v 0.258234 H 26.73464 v 0.211667 h 0.186267 v 0.543984 c 0,0.249767 0.141817,0.381001 0.389467,0.381001 0.09525,0 0.190501,-0.0254 0.254001,-0.0762 z"
               style="font-weight:600;font-size:2.11667px;font-family:Montserrat;-inkscape-font-specification:'Montserrat, Semi-Bold';fill:#5a7272"
               id="path888" />
            <path
               d="m 27.915741,83.242368 c 0.09948,0 0.169334,-0.07197 0.169334,-0.1651 0,-0.08678 -0.07197,-0.1524 -0.169334,-0.1524 -0.09737,0 -0.169334,0.06985 -0.169334,0.15875 0,0.0889 0.07197,0.15875 0.169334,0.15875 z m 0.131233,1.316569 v -1.130302 h -0.264583 v 1.130302 z"
               style="font-weight:600;font-size:2.11667px;font-family:Montserrat;-inkscape-font-specification:'Montserrat, Semi-Bold';fill:#5a7272"
               id="path890" />
            <path
               d="m 28.825909,83.415935 c -0.182034,0 -0.357718,0.04657 -0.478368,0.139701 l 0.103717,0.192617 c 0.08467,-0.06985 0.2159,-0.112184 0.342901,-0.112184 0.188383,0 0.281517,0.09102 0.281517,0.245534 v 0.01693 h -0.292101 c -0.3429,0 -0.469901,0.148167 -0.469901,0.336551 0,0.19685 0.162984,0.338667 0.421218,0.338667 0.169333,0 0.2921,-0.05503 0.3556,-0.1524 v 0.137583 h 0.249767 v -0.662518 c 0,-0.325967 -0.188383,-0.480484 -0.51435,-0.480484 z m -0.03598,0.965202 c -0.135467,0 -0.2159,-0.06138 -0.2159,-0.156634 0,-0.08255 0.04868,-0.150283 0.2286,-0.150283 h 0.273051 v 0.131233 c -0.04445,0.116417 -0.156634,0.175684 -0.285751,0.175684 z"
               style="font-weight:600;font-size:2.11667px;font-family:Montserrat;-inkscape-font-specification:'Montserrat, Semi-Bold';fill:#5a7272"
               id="path892" />
            <path
               d="m 30.527705,84.558937 v -1.570569 h -0.264583 v 1.570569 z"
               style="font-weight:600;font-size:2.11667px;font-family:Montserrat;-inkscape-font-specification:'Montserrat, Semi-Bold';fill:#5a7272"
               id="path894" />
            <path
               d="m 31.30664,83.415935 c -0.182034,0 -0.357718,0.04657 -0.478368,0.139701 l 0.103717,0.192617 c 0.08467,-0.06985 0.2159,-0.112184 0.342901,-0.112184 0.188383,0 0.281517,0.09102 0.281517,0.245534 v 0.01693 h -0.292101 c -0.3429,0 -0.469901,0.148167 -0.469901,0.336551 0,0.19685 0.162984,0.338667 0.421218,0.338667 0.169333,0 0.2921,-0.05503 0.3556,-0.1524 v 0.137583 h 0.249767 v -0.662518 c 0,-0.325967 -0.188383,-0.480484 -0.51435,-0.480484 z m -0.03598,0.965202 c -0.135467,0 -0.2159,-0.06138 -0.2159,-0.156634 0,-0.08255 0.04868,-0.150283 0.2286,-0.150283 h 0.273051 v 0.131233 c -0.04445,0.116417 -0.156634,0.175684 -0.285751,0.175684 z"
               style="font-weight:600;font-size:2.11667px;font-family:Montserrat;-inkscape-font-specification:'Montserrat, Semi-Bold';fill:#5a7272"
               id="path896" />
            <path
               d="m 32.786188,83.415935 c -0.143933,0 -0.270934,0.04868 -0.36195,0.150284 v -0.577851 h -0.264584 v 1.570569 h 0.251883 v -0.14605 c 0.0889,0.10795 0.220134,0.160867 0.374651,0.160867 0.330201,0 0.573618,-0.228601 0.573618,-0.579968 0,-0.351367 -0.243417,-0.577851 -0.573618,-0.577851 z m -0.02963,0.931335 c -0.190501,0 -0.336551,-0.137583 -0.336551,-0.353484 0,-0.2159 0.14605,-0.353484 0.336551,-0.353484 0.1905,0 0.334434,0.137584 0.334434,0.353484 0,0.215901 -0.143934,0.353484 -0.334434,0.353484 z"
               style="font-weight:600;font-size:2.11667px;font-family:Montserrat;-inkscape-font-specification:'Montserrat, Semi-Bold';fill:#5a7272"
               id="path898" />
            <path
               d="m 34.119688,84.573754 c 0.351367,0 0.603251,-0.241301 0.603251,-0.579968 0,-0.338667 -0.251884,-0.577851 -0.603251,-0.577851 -0.347134,0 -0.601135,0.239184 -0.601135,0.577851 0,0.338667 0.254001,0.579968 0.601135,0.579968 z m 0,-0.226484 c -0.190501,0 -0.334434,-0.137583 -0.334434,-0.353484 0,-0.2159 0.143933,-0.353484 0.334434,-0.353484 0.192617,0 0.33655,0.137584 0.33655,0.353484 0,0.215901 -0.143933,0.353484 -0.33655,0.353484 z"
               style="font-weight:600;font-size:2.11667px;font-family:Montserrat;-inkscape-font-specification:'Montserrat, Semi-Bold';fill:#5a7272"
               id="path900" />
            <path
               d="m 35.22882,83.428635 h -0.251884 v 1.130302 H 35.24152 V 84.01072 c 0,-0.230717 0.127,-0.349251 0.328084,-0.349251 0.01905,0 0.0381,0.0021 0.06138,0.0063 v -0.251884 c -0.188383,0 -0.325967,0.05927 -0.402167,0.177801 z"
               style="font-weight:600;font-size:2.11667px;font-family:Montserrat;-inkscape-font-specification:'Montserrat, Semi-Bold';fill:#5a7272"
               id="path902" />
            <path
               d="m 36.206715,83.415935 c -0.182034,0 -0.357718,0.04657 -0.478368,0.139701 l 0.103717,0.192617 c 0.08467,-0.06985 0.2159,-0.112184 0.342901,-0.112184 0.188383,0 0.281517,0.09102 0.281517,0.245534 v 0.01693 h -0.292101 c -0.3429,0 -0.469901,0.148167 -0.469901,0.336551 0,0.19685 0.162984,0.338667 0.421218,0.338667 0.169333,0 0.2921,-0.05503 0.3556,-0.1524 v 0.137583 h 0.249767 v -0.662518 c 0,-0.325967 -0.188383,-0.480484 -0.51435,-0.480484 z m -0.03598,0.965202 c -0.135467,0 -0.2159,-0.06138 -0.2159,-0.156634 0,-0.08255 0.04868,-0.150283 0.2286,-0.150283 h 0.273051 v 0.131233 c -0.04445,0.116417 -0.156634,0.175684 -0.285751,0.175684 z"
               style="font-weight:600;font-size:2.11667px;font-family:Montserrat;-inkscape-font-specification:'Montserrat, Semi-Bold';fill:#5a7272"
               id="path904" />
            <path
               d="m 37.665096,84.30917 c -0.04022,0.03175 -0.09313,0.04657 -0.148167,0.04657 -0.1016,0 -0.156633,-0.05927 -0.156633,-0.169334 v -0.537634 h 0.302684 v -0.211667 h -0.302684 v -0.258234 h -0.264584 v 0.258234 h -0.186267 v 0.211667 h 0.186267 v 0.543984 c 0,0.249767 0.141817,0.381001 0.389467,0.381001 0.09525,0 0.190501,-0.0254 0.254001,-0.0762 z"
               style="font-weight:600;font-size:2.11667px;font-family:Montserrat;-inkscape-font-specification:'Montserrat, Semi-Bold';fill:#5a7272"
               id="path906" />
            <path
               d="m 38.674746,83.242368 c 0.09948,0 0.169333,-0.07197 0.169333,-0.1651 0,-0.08678 -0.07197,-0.1524 -0.169333,-0.1524 -0.09737,0 -0.169334,0.06985 -0.169334,0.15875 0,0.0889 0.07197,0.15875 0.169334,0.15875 z m 0.131233,1.316569 v -1.130302 h -0.264584 v 1.130302 z"
               style="font-weight:600;font-size:2.11667px;font-family:Montserrat;-inkscape-font-specification:'Montserrat, Semi-Bold';fill:#5a7272"
               id="path908" />
            <path
               d="m 39.794464,83.415935 c -0.165101,0 -0.302684,0.05503 -0.389468,0.158751 v -0.146051 h -0.251883 v 1.130302 h 0.264583 v -0.571501 c 0,-0.226483 0.127,-0.340784 0.315384,-0.340784 0.169334,0 0.268817,0.09737 0.268817,0.298451 v 0.613834 h 0.264584 v -0.647701 c 0,-0.340784 -0.201084,-0.495301 -0.472017,-0.495301 z"
               style="font-weight:600;font-size:2.11667px;font-family:Montserrat;-inkscape-font-specification:'Montserrat, Semi-Bold';fill:#5a7272"
               id="path910" />
            <path
               d="m 41.69523,84.573754 c 0.351367,0 0.603251,-0.241301 0.603251,-0.579968 0,-0.338667 -0.251884,-0.577851 -0.603251,-0.577851 -0.347134,0 -0.601134,0.239184 -0.601134,0.577851 0,0.338667 0.254,0.579968 0.601134,0.579968 z m 0,-0.226484 c -0.1905,0 -0.334434,-0.137583 -0.334434,-0.353484 0,-0.2159 0.143934,-0.353484 0.334434,-0.353484 0.192617,0 0.336551,0.137584 0.336551,0.353484 0,0.215901 -0.143934,0.353484 -0.336551,0.353484 z"
               style="font-weight:600;font-size:2.11667px;font-family:Montserrat;-inkscape-font-specification:'Montserrat, Semi-Bold';fill:#5a7272"
               id="path912" />
            <path
               d="m 43.979114,83.415935 c -0.179917,0 -0.332317,0.07197 -0.423334,0.188384 -0.07832,-0.127 -0.2159,-0.188384 -0.381,-0.188384 -0.154517,0 -0.285751,0.05503 -0.370417,0.156634 v -0.143934 h -0.251884 v 1.130302 h 0.264584 V 83.98532 c 0,-0.224367 0.118533,-0.338668 0.294217,-0.338668 0.160867,0 0.254,0.09737 0.254,0.298451 v 0.613834 h 0.264584 V 83.98532 c 0,-0.224367 0.12065,-0.338668 0.294217,-0.338668 0.160867,0 0.254,0.09737 0.254,0.298451 v 0.613834 h 0.264584 v -0.647701 c 0,-0.340784 -0.1905,-0.495301 -0.463551,-0.495301 z"
               style="font-weight:600;font-size:2.11667px;font-family:Montserrat;-inkscape-font-specification:'Montserrat, Semi-Bold';fill:#5a7272"
               id="path914" />
            <path
               d="m 45.422681,83.415935 c -0.1651,0 -0.302684,0.05503 -0.389467,0.158751 V 83.428635 H 44.78133 v 1.130302 h 0.264584 v -0.571501 c 0,-0.226483 0.127,-0.340784 0.315384,-0.340784 0.169333,0 0.268817,0.09737 0.268817,0.298451 v 0.613834 h 0.264584 v -0.647701 c 0,-0.340784 -0.201084,-0.495301 -0.472018,-0.495301 z"
               style="font-weight:600;font-size:2.11667px;font-family:Montserrat;-inkscape-font-specification:'Montserrat, Semi-Bold';fill:#5a7272"
               id="path916" />
            <path
               d="m 46.364599,83.242368 c 0.09948,0 0.169334,-0.07197 0.169334,-0.1651 0,-0.08678 -0.07197,-0.1524 -0.169334,-0.1524 -0.09737,0 -0.169333,0.06985 -0.169333,0.15875 0,0.0889 0.07197,0.15875 0.169333,0.15875 z m 0.131234,1.316569 v -1.130302 h -0.264584 v 1.130302 z"
               style="font-weight:600;font-size:2.11667px;font-family:Montserrat;-inkscape-font-specification:'Montserrat, Semi-Bold';fill:#5a7272"
               id="path918" />
            <path
               d="m 47.192215,84.573754 c 0.3175,0 0.512234,-0.137584 0.512234,-0.349251 0,-0.442384 -0.698501,-0.239183 -0.698501,-0.467784 0,-0.07408 0.0762,-0.127 0.237067,-0.127 0.10795,0 0.2159,0.02117 0.32385,0.08467 l 0.101601,-0.201084 c -0.101601,-0.06138 -0.273051,-0.09737 -0.423334,-0.09737 -0.304801,0 -0.497418,0.139701 -0.497418,0.353484 0,0.450851 0.698501,0.247651 0.698501,0.463551 0,0.07832 -0.06985,0.124883 -0.237067,0.124883 -0.141817,0 -0.294217,-0.04657 -0.3937,-0.112183 l -0.101601,0.201084 c 0.101601,0.07197 0.289984,0.127 0.478368,0.127 z"
               style="font-weight:600;font-size:2.11667px;font-family:Montserrat;-inkscape-font-specification:'Montserrat, Semi-Bold';fill:#5a7272"
               id="path920" />
            <path
               d="m 48.866499,84.573754 c 0.3175,0 0.512234,-0.137584 0.512234,-0.349251 0,-0.442384 -0.698501,-0.239183 -0.698501,-0.467784 0,-0.07408 0.0762,-0.127 0.237067,-0.127 0.10795,0 0.2159,0.02117 0.32385,0.08467 l 0.101601,-0.201084 c -0.101601,-0.06138 -0.273051,-0.09737 -0.423334,-0.09737 -0.304801,0 -0.497418,0.139701 -0.497418,0.353484 0,0.450851 0.698501,0.247651 0.698501,0.463551 0,0.07832 -0.06985,0.124883 -0.237067,0.124883 -0.141817,0 -0.294217,-0.04657 -0.3937,-0.112183 l -0.101601,0.201084 c 0.101601,0.07197 0.289984,0.127 0.478368,0.127 z"
               style="font-weight:600;font-size:2.11667px;font-family:Montserrat;-inkscape-font-specification:'Montserrat, Semi-Bold';fill:#5a7272"
               id="path922" />
            <path
               d="m 49.740683,83.242368 c 0.09948,0 0.169333,-0.07197 0.169333,-0.1651 0,-0.08678 -0.07197,-0.1524 -0.169333,-0.1524 -0.09737,0 -0.169334,0.06985 -0.169334,0.15875 0,0.0889 0.07197,0.15875 0.169334,0.15875 z m 0.131233,1.316569 v -1.130302 h -0.264584 v 1.130302 z"
               style="font-weight:600;font-size:2.11667px;font-family:Montserrat;-inkscape-font-specification:'Montserrat, Semi-Bold';fill:#5a7272"
               id="path924" />
            <path
               d="m 50.483631,84.558937 v -1.570569 h -0.264583 v 1.570569 z"
               style="font-weight:600;font-size:2.11667px;font-family:Montserrat;-inkscape-font-specification:'Montserrat, Semi-Bold';fill:#5a7272"
               id="path926" />
            <path
               d="m 51.273149,84.266837 -0.351367,-0.838202 h -0.275167 l 0.484717,1.130302 h 0.27305 L 51.8891,83.428635 h -0.254001 z"
               style="font-weight:600;font-size:2.11667px;font-family:Montserrat;-inkscape-font-specification:'Montserrat, Semi-Bold';fill:#5a7272"
               id="path928" />
            <path
               d="m 52.450016,83.415935 c -0.182034,0 -0.357717,0.04657 -0.478367,0.139701 l 0.103716,0.192617 c 0.08467,-0.06985 0.215901,-0.112184 0.342901,-0.112184 0.188384,0 0.281517,0.09102 0.281517,0.245534 v 0.01693 h -0.2921 c -0.342901,0 -0.469901,0.148167 -0.469901,0.336551 0,0.19685 0.162983,0.338667 0.421217,0.338667 0.169334,0 0.292101,-0.05503 0.355601,-0.1524 v 0.137583 h 0.249767 v -0.662518 c 0,-0.325967 -0.188384,-0.480484 -0.514351,-0.480484 z m -0.03598,0.965202 c -0.135467,0 -0.215901,-0.06138 -0.215901,-0.156634 0,-0.08255 0.04868,-0.150283 0.228601,-0.150283 h 0.27305 v 0.131233 c -0.04445,0.116417 -0.156634,0.175684 -0.28575,0.175684 z"
               style="font-weight:600;font-size:2.11667px;font-family:Montserrat;-inkscape-font-specification:'Montserrat, Semi-Bold';fill:#5a7272"
               id="path930" />
            <path
               d="m 54.367714,84.000136 c 0,-0.353484 -0.241301,-0.584201 -0.571501,-0.584201 -0.336551,0 -0.584201,0.241301 -0.584201,0.577851 0,0.336551 0.245534,0.579968 0.624418,0.579968 0.194733,0 0.353483,-0.0635 0.455084,-0.184151 L 54.149697,84.22662 c -0.08043,0.08255 -0.179917,0.122767 -0.306917,0.122767 -0.196851,0 -0.334434,-0.105834 -0.366184,-0.270934 h 0.886884 c 0.0021,-0.0254 0.0042,-0.05715 0.0042,-0.07832 z m -0.571501,-0.372534 c 0.173567,0 0.29845,0.112184 0.319617,0.275167 h -0.641351 c 0.0254,-0.1651 0.150284,-0.275167 0.321734,-0.275167 z"
               style="font-weight:600;font-size:2.11667px;font-family:Montserrat;-inkscape-font-specification:'Montserrat, Semi-Bold';fill:#5a7272"
               id="path932" />
            <path
               d="m 56.268482,84.000136 c 0,-0.353484 -0.2413,-0.584201 -0.571501,-0.584201 -0.33655,0 -0.584201,0.241301 -0.584201,0.577851 0,0.336551 0.245534,0.579968 0.624418,0.579968 0.194733,0 0.353484,-0.0635 0.455084,-0.184151 L 56.050465,84.22662 c -0.08043,0.08255 -0.179917,0.122767 -0.306917,0.122767 -0.19685,0 -0.334434,-0.105834 -0.366184,-0.270934 h 0.886885 c 0.0021,-0.0254 0.0042,-0.05715 0.0042,-0.07832 z m -0.571501,-0.372534 c 0.173567,0 0.298451,0.112184 0.319617,0.275167 h -0.641351 c 0.0254,-0.1651 0.150284,-0.275167 0.321734,-0.275167 z"
               style="font-weight:600;font-size:2.11667px;font-family:Montserrat;-inkscape-font-specification:'Montserrat, Semi-Bold';fill:#5a7272"
               id="path934" />
            <path
               d="m 57.127848,84.30917 c -0.04022,0.03175 -0.09313,0.04657 -0.148167,0.04657 -0.1016,0 -0.156634,-0.05927 -0.156634,-0.169334 v -0.537634 h 0.302684 v -0.211667 h -0.302684 v -0.258234 h -0.264583 v 0.258234 h -0.186267 v 0.211667 h 0.186267 v 0.543984 c 0,0.249767 0.141816,0.381001 0.389467,0.381001 0.09525,0 0.1905,-0.0254 0.254,-0.0762 z"
               style="font-weight:600;font-size:2.11667px;font-family:Montserrat;-inkscape-font-specification:'Montserrat, Semi-Bold';fill:#5a7272"
               id="path936" />
            <path
               d="m 59.430782,83.415935 c -0.179917,0 -0.332317,0.07197 -0.423334,0.188384 -0.07832,-0.127 -0.2159,-0.188384 -0.381,-0.188384 -0.154517,0 -0.285751,0.05503 -0.370418,0.156634 v -0.143934 h -0.251883 v 1.130302 H 58.26873 V 83.98532 c 0,-0.224367 0.118534,-0.338668 0.294218,-0.338668 0.160866,0 0.254,0.09737 0.254,0.298451 v 0.613834 h 0.264584 V 83.98532 c 0,-0.224367 0.12065,-0.338668 0.294217,-0.338668 0.160867,0 0.254,0.09737 0.254,0.298451 v 0.613834 h 0.264584 v -0.647701 c 0,-0.340784 -0.1905,-0.495301 -0.463551,-0.495301 z"
               style="font-weight:600;font-size:2.11667px;font-family:Montserrat;-inkscape-font-specification:'Montserrat, Semi-Bold';fill:#5a7272"
               id="path938" />
            <path
               d="m 60.664799,83.415935 c -0.182034,0 -0.357718,0.04657 -0.478368,0.139701 l 0.103717,0.192617 c 0.08467,-0.06985 0.2159,-0.112184 0.342901,-0.112184 0.188383,0 0.281517,0.09102 0.281517,0.245534 v 0.01693 h -0.292101 c -0.3429,0 -0.4699,0.148167 -0.4699,0.336551 0,0.19685 0.162983,0.338667 0.421217,0.338667 0.169333,0 0.2921,-0.05503 0.3556,-0.1524 v 0.137583 h 0.249767 v -0.662518 c 0,-0.325967 -0.188383,-0.480484 -0.51435,-0.480484 z m -0.03598,0.965202 c -0.135467,0 -0.2159,-0.06138 -0.2159,-0.156634 0,-0.08255 0.04868,-0.150283 0.2286,-0.150283 h 0.273051 v 0.131233 c -0.04445,0.116417 -0.156634,0.175684 -0.285751,0.175684 z"
               style="font-weight:600;font-size:2.11667px;font-family:Montserrat;-inkscape-font-specification:'Montserrat, Semi-Bold';fill:#5a7272"
               id="path940" />
            <path
               d="m 61.769698,83.428635 h -0.251883 v 1.130302 h 0.264583 V 84.01072 c 0,-0.230717 0.127001,-0.349251 0.328084,-0.349251 0.01905,0 0.0381,0.0021 0.06138,0.0063 v -0.251884 c -0.188384,0 -0.325967,0.05927 -0.402168,0.177801 z"
               style="font-weight:600;font-size:2.11667px;font-family:Montserrat;-inkscape-font-specification:'Montserrat, Semi-Bold';fill:#5a7272"
               id="path942" />
            <path
               d="m 62.529575,83.242368 c 0.09948,0 0.169334,-0.07197 0.169334,-0.1651 0,-0.08678 -0.07197,-0.1524 -0.169334,-0.1524 -0.09737,0 -0.169333,0.06985 -0.169333,0.15875 0,0.0889 0.07197,0.15875 0.169333,0.15875 z m 0.131234,1.316569 v -1.130302 h -0.264584 v 1.130302 z"
               style="font-weight:600;font-size:2.11667px;font-family:Montserrat;-inkscape-font-specification:'Montserrat, Semi-Bold';fill:#5a7272"
               id="path944" />
            <path
               d="m 63.439743,83.415935 c -0.182034,0 -0.357717,0.04657 -0.478367,0.139701 l 0.103716,0.192617 c 0.08467,-0.06985 0.215901,-0.112184 0.342901,-0.112184 0.188384,0 0.281517,0.09102 0.281517,0.245534 v 0.01693 h -0.2921 c -0.342901,0 -0.469901,0.148167 -0.469901,0.336551 0,0.19685 0.162983,0.338667 0.421217,0.338667 0.169334,0 0.292101,-0.05503 0.355601,-0.1524 v 0.137583 h 0.249767 v -0.662518 c 0,-0.325967 -0.188384,-0.480484 -0.514351,-0.480484 z m -0.03598,0.965202 c -0.135467,0 -0.215901,-0.06138 -0.215901,-0.156634 0,-0.08255 0.04868,-0.150283 0.228601,-0.150283 h 0.27305 v 0.131233 c -0.04445,0.116417 -0.156634,0.175684 -0.28575,0.175684 z"
               style="font-weight:600;font-size:2.11667px;font-family:Montserrat;-inkscape-font-specification:'Montserrat, Semi-Bold';fill:#5a7272"
               id="path946" />
          </g>
        </g>
      </g>
    </g>
  </g>
</svg>
