<?xml version="1.0" encoding="UTF-8" standalone="no"?>
<!-- Created with Inkscape (http://www.inkscape.org/) -->

<svg
   version="1.1"
   id="svg2"
   width="2167.3635"
   height="1663.0146"
   viewBox="0 0 2167.3635 1663.0147"
   sodipodi:docname="logo_10anos_eQ_br.svg"
   inkscape:version="1.1.2 (0a00cf5339, 2022-02-04)"
   xmlns:inkscape="http://www.inkscape.org/namespaces/inkscape"
   xmlns:sodipodi="http://sodipodi.sourceforge.net/DTD/sodipodi-0.dtd"
   xmlns="http://www.w3.org/2000/svg"
   xmlns:svg="http://www.w3.org/2000/svg">
  <defs
     id="defs6">
    <inkscape:path-effect
       effect="skeletal"
       id="path-effect8473"
       is_visible="true"
       lpeversion="1"
       pattern="m -19601.376,25633.311 a 289.09101,289.09101 0 0 0 21.858,241.368 289.09101,289.09101 0 0 0 198.025,139.608 289.09101,289.09101 0 0 0 -21.891,-241.298 289.09101,289.09101 0 0 0 -197.992,-139.678 z"
       copytype="repeated_stretched"
       prop_scale="1"
       scale_y_rel="false"
       spacing="0"
       normal_offset="0"
       tang_offset="0"
       prop_units="false"
       vertical_pattern="false"
       hide_knot="false"
       fuse_tolerance="0" />
    <inkscape:path-effect
       effect="skeletal"
       id="path-effect8324"
       is_visible="true"
       lpeversion="1"
       pattern="m -19601.376,25633.311 a 289.09101,289.09101 0 0 0 21.858,241.368 289.09101,289.09101 0 0 0 198.025,139.608 289.09101,289.09101 0 0 0 -21.891,-241.298 289.09101,289.09101 0 0 0 -197.992,-139.678 z"
       copytype="repeated_stretched"
       prop_scale="1"
       scale_y_rel="false"
       spacing="20"
       normal_offset="0"
       tang_offset="0"
       prop_units="false"
       vertical_pattern="false"
       hide_knot="false"
       fuse_tolerance="0" />
    <inkscape:path-effect
       effect="skeletal"
       id="path-effect68254"
       is_visible="true"
       lpeversion="1"
       pattern="m -562.80469,1285.3215 a 9.3138202,6.0980408 70.744565 0 1 6.6007,3.2861 9.3138202,6.0980408 70.744565 0 1 2.5687,9.0694 9.3138202,6.0980408 70.744565 0 1 -6.5849,-3.2901 9.3138202,6.0980408 70.744565 0 1 -2.5845,-9.0654 z"
       copytype="repeated_stretched"
       prop_scale="1"
       scale_y_rel="false"
       spacing="12"
       normal_offset="0"
       tang_offset="0"
       prop_units="false"
       vertical_pattern="false"
       hide_knot="false"
       fuse_tolerance="0" />
    <inkscape:path-effect
       effect="skeletal"
       id="path-effect68055"
       is_visible="true"
       lpeversion="1"
       pattern="m -562.80469,1285.3215 a 9.3138202,6.0980408 70.744565 0 1 6.6007,3.2861 9.3138202,6.0980408 70.744565 0 1 2.5687,9.0694 9.3138202,6.0980408 70.744565 0 1 -6.5849,-3.2901 9.3138202,6.0980408 70.744565 0 1 -2.5845,-9.0654 z"
       copytype="repeated_stretched"
       prop_scale="1"
       scale_y_rel="false"
       spacing="12"
       normal_offset="0"
       tang_offset="0"
       prop_units="false"
       vertical_pattern="false"
       hide_knot="false"
       fuse_tolerance="0" />
    <inkscape:path-effect
       effect="skeletal"
       id="path-effect67462"
       is_visible="true"
       lpeversion="1"
       pattern="M 0,0 H 1"
       copytype="single_stretched"
       prop_scale="1"
       scale_y_rel="false"
       spacing="0"
       normal_offset="0"
       tang_offset="0"
       prop_units="false"
       vertical_pattern="false"
       hide_knot="false"
       fuse_tolerance="0" />
    <inkscape:path-effect
       effect="skeletal"
       id="path-effect67353"
       is_visible="true"
       lpeversion="1"
       pattern="m -8804.9277,2090.6445 c -3.7658,4.5716 -5.8898,10.4678 -5.9043,16.3907 0.015,5.9087 2.1291,11.7909 5.8789,16.3574 3.7498,-4.5665 5.8639,-10.4487 5.8789,-16.3574 v 0 c -3e-4,-5.9168 -2.1057,-11.8122 -5.8535,-16.3907 z"
       copytype="repeated_stretched"
       prop_scale="1"
       scale_y_rel="false"
       spacing="0"
       normal_offset="0"
       tang_offset="0"
       prop_units="false"
       vertical_pattern="false"
       hide_knot="false"
       fuse_tolerance="0" />
    <inkscape:path-effect
       effect="skeletal"
       id="path-effect67068"
       is_visible="true"
       lpeversion="1"
       pattern="M 0,0 H 1"
       copytype="repeated_stretched"
       prop_scale="1"
       scale_y_rel="false"
       spacing="0"
       normal_offset="0"
       tang_offset="0"
       prop_units="false"
       vertical_pattern="false"
       hide_knot="false"
       fuse_tolerance="0" />
    <inkscape:path-effect
       effect="skeletal"
       id="path-effect66995"
       is_visible="true"
       lpeversion="1"
       pattern="M 0,0 H 1"
       copytype="repeated_stretched"
       prop_scale="1"
       scale_y_rel="false"
       spacing="0"
       normal_offset="0"
       tang_offset="0"
       prop_units="false"
       vertical_pattern="false"
       hide_knot="false"
       fuse_tolerance="0" />
    <inkscape:path-effect
       effect="skeletal"
       id="path-effect66975"
       is_visible="true"
       lpeversion="1"
       pattern="M 0,0 H 1"
       copytype="single_stretched"
       prop_scale="1"
       scale_y_rel="false"
       spacing="0.8"
       normal_offset="0"
       tang_offset="0"
       prop_units="false"
       vertical_pattern="false"
       hide_knot="false"
       fuse_tolerance="0" />
    <inkscape:path-effect
       effect="skeletal"
       id="path-effect65795"
       is_visible="true"
       lpeversion="1"
       pattern="m -2889.2479,2036.5029 a 68.411724,68.51417 0 0 0 -45.2958,47.5392 68.411724,68.51417 0 0 0 15.5059,63.8638 68.411724,68.51417 0 0 0 45.3122,-47.5435 68.411724,68.51417 0 0 0 -15.5223,-63.8595 z"
       copytype="repeated_stretched"
       prop_scale="1"
       scale_y_rel="false"
       spacing="20"
       normal_offset="0"
       tang_offset="0"
       prop_units="false"
       vertical_pattern="false"
       hide_knot="false"
       fuse_tolerance="0" />
    <inkscape:path-effect
       effect="skeletal"
       id="path-effect65765"
       is_visible="true"
       lpeversion="1"
       pattern="m -2889.2479,2036.5029 a 68.411724,68.51417 0 0 0 -45.2958,47.5392 68.411724,68.51417 0 0 0 15.5059,63.8638 68.411724,68.51417 0 0 0 45.3122,-47.5435 68.411724,68.51417 0 0 0 -15.5223,-63.8595 z"
       copytype="repeated_stretched"
       prop_scale="1"
       scale_y_rel="false"
       spacing="20"
       normal_offset="0"
       tang_offset="0"
       prop_units="false"
       vertical_pattern="false"
       hide_knot="false"
       fuse_tolerance="0" />
    <clipPath
       clipPathUnits="userSpaceOnUse"
       id="clipPath14705">
      <rect
         style="opacity:0.92;fill:#6a8860;fill-opacity:1;stroke:#000000;stroke-width:15;stroke-miterlimit:4;stroke-dasharray:none;paint-order:markers stroke fill"
         id="rect14707"
         width="830.72961"
         height="187.85545"
         x="-2161.4717"
         y="16907.029" />
    </clipPath>
    <clipPath
       clipPathUnits="userSpaceOnUse"
       id="clipPath24771">
      <rect
         style="opacity:0.92;fill:none;fill-opacity:1;stroke:#000000;stroke-width:25;stroke-miterlimit:4;stroke-dasharray:none;paint-order:markers stroke fill"
         id="rect24773"
         width="722.98907"
         height="722.98907"
         x="-6898.2656"
         y="10375.26" />
    </clipPath>
    <clipPath
       clipPathUnits="userSpaceOnUse"
       id="clipPath24767">
      <rect
         style="opacity:0.92;fill:none;fill-opacity:1;stroke:#000000;stroke-width:25;stroke-miterlimit:4;stroke-dasharray:none;paint-order:markers stroke fill"
         id="rect24769"
         width="722.98907"
         height="722.98907"
         x="-2885.2312"
         y="10375.26" />
    </clipPath>
  </defs>
  <sodipodi:namedview
     id="namedview4"
     pagecolor="#ffffff"
     bordercolor="#666666"
     borderopacity="1.0"
     inkscape:pageshadow="2"
     inkscape:pageopacity="0.0"
     inkscape:pagecheckerboard="0"
     showgrid="false"
     inkscape:zoom="0.32"
     inkscape:cx="942.1875"
     inkscape:cy="821.875"
     inkscape:window-width="1920"
     inkscape:window-height="1011"
     inkscape:window-x="0"
     inkscape:window-y="0"
     inkscape:window-maximized="1"
     inkscape:current-layer="g8"
     inkscape:lockguides="false"
     inkscape:snap-text-baseline="true"
     inkscape:snap-nodes="false"
     inkscape:snap-others="false"
     inkscape:snap-global="false"
     inkscape:snap-bbox="false"
     inkscape:bbox-nodes="false"
     inkscape:snap-intersection-paths="false"
     inkscape:object-nodes="false" />
  <g
     inkscape:groupmode="layer"
     inkscape:label="Image"
     id="g8"
     transform="translate(16475.16,-14464.775)">
    <g
       id="g860">
      <path
         id="path13811-7-9-1-6"
         style="display:inline;fill:#6a8888;fill-rule:evenodd;stroke:#000000;stroke-width:0;stroke-opacity:0"
         d="m -15341.588,16019.252 a 49.396782,49.395798 0 0 1 -47.609,49.363 49.396782,49.395798 0 0 1 -51.055,-45.79 49.396782,49.395798 0 0 1 43.913,-52.678 49.396782,49.395798 0 0 1 54.234,41.977" />
      <g
         aria-label="eQ"
         id="text13815-2-4-7-4"
         style="font-size:232.888px;line-height:125%;letter-spacing:0px;word-spacing:0px;display:inline;fill:#f9f9f9;stroke-width:1.11767px">
        <path
           d="m -15430.792,15984.559 c 0,-57.222 -38.265,-95.838 -91.976,-95.838 -53.712,0 -93.381,39.669 -93.381,94.785 0,55.466 40.02,95.135 100.051,95.135 30.893,0 56.52,-10.531 73.37,-30.19 l -18.606,-21.766 c -13.691,15.096 -31.946,22.468 -53.711,22.468 -36.861,0 -63.19,-21.766 -67.403,-54.414 h 150.954 c 0.351,-3.159 0.702,-7.372 0.702,-10.18 z m -91.976,-67.403 c 32.648,0 56.168,22.117 59.679,53.361 h -119.359 c 3.511,-31.595 27.383,-53.361 59.68,-53.361 z"
           style="font-weight:500;font-size:351.055px;font-family:Montserrat;-inkscape-font-specification:'Montserrat Medium';letter-spacing:-23.2888px"
           id="path863" />
        <path
           d="m -15187.87,16078.993 c -12.638,14.042 -27.382,21.063 -44.935,21.063 -15.797,0 -30.542,-7.021 -47.041,-24.574 57.222,-13.34 96.54,-60.733 96.54,-121.816 0,-72.317 -55.467,-125.678 -130.242,-125.678 -75.476,0 -130.943,53.712 -130.943,125.678 0,69.158 51.254,121.465 121.816,125.327 34.403,35.456 58.626,48.796 89.519,48.796 24.574,0 45.988,-10.18 61.786,-28.786 z m -221.516,-125.327 c 0,-54.063 40.723,-94.434 95.838,-94.434 54.414,0 95.136,40.371 95.136,94.434 0,54.062 -40.722,94.434 -95.136,94.434 -55.115,0 -95.838,-40.372 -95.838,-94.434 z"
           style="font-weight:500;font-size:351.055px;font-family:Montserrat;-inkscape-font-specification:'Montserrat Medium';letter-spacing:-23.2888px"
           id="path865" />
      </g>
      <path
         style="fill:#6a8888;fill-opacity:1;stroke:none"
         d="m -16336.039,14708.775 h -1 c -1.72,-12.79 -7.02,-25.54 -12.75,-37 -16.23,-32.45 -44.55,-71 -83.25,-76 -12.116,44.41 4.8,88.96 37,121 13.85,13.78 32.75,27.12 53,28 l -9,92 c -4.78,-5.31 -6.89,-13.67 -10.31,-20 -7.08,-13.09 -15.62,-26.08 -25.78,-37 -14.69,-15.8 -31.66,-30.06 -51.91,-38.07 -4.696,-1.86 -17.876,-6.97 -22.062,-2.33 -2.514,2.8 -1.844,7.95 -2.093,11.4 -0.863,11.94 1.381,23.59 4.731,35 12.832,43.7 56.454,88.87 104.424,89 l 2,93 h -1 c -2.99,-10.35 -10.63,-19.66 -17.21,-28 -17.18,-21.78 -38.7,-39.38 -63.79,-51.22 -8.616,-4.07 -18.457,-7.03 -28,-7.69 -2.85,-0.2 -7.911,-0.92 -10.012,1.51 -3.126,3.63 -2.022,11.12 -1.409,15.4 1.768,12.34 5.05,23.84 10.669,35 21.994,43.71 65.072,72 113.752,72 l 12,92 h -1 c -4.63,-12.21 -16.46,-22.59 -26,-31.05 -28.29,-25.1 -64.29,-44.84 -103,-39.95 0,62.35 76.84,122.82 138,107 2.49,30.48 16.15,60.37 23,90 h -1 c -5.72,-12.27 -21.76,-23.12 -33,-30.19 -31.09,-19.53 -66.18,-33.23 -103,-24.81 0.01,19.07 10.717,34.99 22.73,49 29.59,34.51 81.85,55.45 126.27,41 l 34,86 c -28.52,-26.25 -65.28,-38.82 -103,-43.29 -10.03,-1.18 -20.26,-0.31 -30,2.45 -3.24,0.91 -8.15,2.17 -9.1,5.94 -1.01,4.05 2.13,9.43 3.86,12.9 5.82,11.65 14.41,22.09 24.24,30.57 32.03,27.67 89.92,48.73 130,25.43 l 44,80 c -33.19,-20.32 -69.03,-30.94 -108,-29.99 -9.61,0.24 -20.21,2.54 -29,6.43 -2.86,1.27 -7.33,3.12 -7.87,6.65 -0.58,3.82 3.03,8.85 4.94,11.91 6.59,10.6 15.85,19.33 25.93,26.57 29.98,21.56 70.72,31.12 107,23 10.56,-2.36 19.12,-7.83 29,-11.57 10.17,26.83 35.4,50.91 52,74 -35.29,-14.67 -72.7,-23.61 -111,-16.39 -8.02,1.51 -33.93,6.63 -34.29,17.4 -0.15,4.26 4.03,8.98 6.59,11.99 8.14,9.56 18.51,17.57 29.7,23.24 44.93,22.8 92.96,19.94 135,-6.24 13.65,26.32 43.16,43.09 60,67 -17.84,-5.8 -36.15,-10 -55,-10 -12.82,0 -25.32,0.3 -38,2.44 -14.05,2.36 -29.04,6.7 -41,14.66 -3.44,2.29 -10.47,7.12 -9.95,11.9 0.43,4.05 5.14,8.19 7.96,10.71 8.96,7.99 19.83,14.16 30.99,18.48 31.99,12.39 68.97,13.12 101,0.41 11.31,-4.49 26.12,-11.37 32,-22.6 l 46,39.75 26,19.25 v 1 c -38.77,-5.22 -75.23,-5.81 -112,10 -8.87,3.82 -18.02,9.32 -24.96,16.09 -2.37,2.31 -6.53,6.18 -5.59,9.91 3.21,12.8 29.69,20.65 40.55,23.98 32.04,9.8 69.31,5.15 99,-9.73 12.2,-6.12 25.63,-14.77 32,-27.25 l 78,49 v 1 c -35.83,-4.53 -78.26,3.16 -109,22.7 -11.57,7.35 -24.93,16.46 -29,30.3 37.84,27.95 90.7,24.5 131,3.22 14.87,-7.85 34.02,-21.28 39,-38.22 27.31,11.43 54.5,34.76 84,40 v 1 c -35.79,0.47 -72.93,12.55 -102,33.43 -8.95,6.42 -17.3,14.29 -23.3,23.57 -2,3.1 -5.45,7.9 -4.05,11.81 3.35,9.44 25.95,12.2 34.35,13.02 34.96,3.4 69.6,-6.03 98,-26.99 10.01,-7.38 18.63,-16.33 25.3,-26.84 3.38,-5.31 4.28,-12.84 11.7,-12 l 4,-10 -5,-2 c 13.62,-40.33 3.94,-86.6 -16.87,-123 -5.55,-9.7 -20.55,-32.91 -34.04,-31.47 -3.57,0.38 -5.41,4.67 -6.82,7.47 -4.31,8.59 -6.77,18.5 -7.98,28 -4.62,36.16 5.74,77.48 31.71,104 l -83,-40 c 22.01,-33.68 14.08,-91.75 -2.76,-126 -4.57,-9.29 -15.75,-33.28 -28.24,-33.26 -10.48,0.01 -17.49,25.32 -19.52,33.26 -9.12,35.58 -3.3,76.96 18.52,107 -19.09,-10.16 -37.1,-22.6 -55,-34.67 -4.79,-3.23 -16.87,-8.87 -18.83,-14.5 -1.22,-3.5 3.59,-8.8 5.05,-11.83 4.24,-8.84 7.09,-18.4 8.98,-28 6.88,-35.12 5.98,-89.81 -21.24,-116.96 -15.21,-15.18 -28.32,19.15 -32.29,30.96 -10.93,32.5 -10.26,72.86 7.33,103 l -46,-37.16 -24,-19.84 c 5.15,-8.94 11.9,-16.42 16.14,-26 17.72,-40.08 24.33,-105.25 -9.14,-139 h -1 c -43.03,34.15 -46.4,89.9 -33,139 h -1 l -21.91,-24 -39.09,-43 v -1 c 33.78,-23.79 42.46,-77.9 42,-116 -0.13,-10.88 -2.41,-38.65 -14.3,-43.84 -3.21,-1.4 -7.21,1.9 -9.7,3.59 -8.32,5.65 -14.9,13.11 -20.7,21.25 -21.47,30.12 -30.39,71.1 -20.3,107 l -35.42,-47 -18.58,-29 c 11.31,-4.29 19.38,-15.37 26.02,-25 17.51,-25.37 29.97,-57.87 29.98,-89 0,-10.83 1.49,-31.78 -8.39,-39.38 -8.52,-6.56 -28.5,14.07 -33.57,19.38 -27.56,28.86 -34.35,64.98 -34.04,103 h -1 l -43,-80 c 11.11,-3.21 20.11,-11.92 27.99,-20 21.75,-22.31 35.8,-53.69 41.81,-84 2.2,-11.07 2.58,-21.92 0.19,-33 -0.71,-3.24 -1.61,-8.98 -4.64,-10.93 -2.81,-1.82 -7.6,0.62 -10.35,1.63 -9.16,3.33 -17.61,9.02 -25,15.3 -20.15,17.15 -34.26,40.61 -41.42,66 -2.72,9.64 -5.68,22.04 -3.58,32 l -11.85,-25 -23.15,-60 c 40.07,-13.06 69.94,-56.11 81.97,-95 3.38,-10.91 4.3,-21.63 4.02,-33 -0.09,-3.41 -0.25,-9.83 -3.5,-11.93 -7.93,-5.13 -28.9,8.13 -35.49,12.13 -29.73,18.05 -57.26,56.9 -58,92.8 h -1 l -23,-89 c 14.88,-0.65 28.34,-9.84 40,-18.29 31.73,-22.99 67.8,-68.71 60,-110.71 -48.35,0 -99.91,46.02 -107,94 h -1 l -12,-92 c 40.85,-0.11 83.53,-38.75 102.72,-72 7.92,-13.74 14.25,-27.83 12.28,-44 -46.75,-5.91 -105.95,33.49 -117,80 h -1 l -1,-92 c 13.07,2.14 27.93,-2.19 40,-7 27.11,-10.8 51.78,-28.23 70.2,-51 7.2,-8.92 13.71,-18.79 16.64,-30 0.89,-3.37 2.44,-9.32 0.13,-12.44 -5.72,-7.72 -29.23,-2.99 -36.97,-1.35 -32.41,6.85 -76.33,31.09 -87,64.79 h -1 c 0,-29.13 3.17,-62.63 10,-91 39.13,9.31 89.27,-17.39 116,-44 7.33,-7.3 27.67,-27.49 22.39,-39.78 -3.84,-8.94 -27.78,-6.6 -35.39,-6.26 -27.92,1.26 -54.63,13.19 -76,30.96 -7.55,6.28 -16.38,13.71 -20,23.08 h -1 c 2.3,-17.82 7.7,-35.46 11.58,-53 2.42,-11 4.32,-25.93 9.85,-35.79 2.52,-4.49 9.64,-7.34 13.57,-10.65 7.35,-6.19 13.45,-13.83 19.11,-21.56 25.67,-35.01 35.67,-84.65 18.89,-125 -47.05,9.74 -74.85,70.47 -72.9,115 0.37,8.31 1.81,17.09 4.42,25 1.45,4.41 5.53,9.73 5.21,14.42 -0.47,7.14 -4.12,14.65 -5.86,21.58 -5.5,21.98 -13.08,45.38 -14.87,68 m 1878,1 h -1 c -15.72,-31.57 -61.49,-51.18 -95,-53.04 -7.4,-0.4 -32.89,-2.64 -36.36,6.26 -4.69,12.05 15.04,32.59 22.36,39.77 28.33,27.76 76.4,51.55 117,44.01 l 9,90 h -1 c -12.3,-33.59 -53.86,-56.78 -87,-63.79 -7.74,-1.64 -31.26,-6.37 -36.97,1.35 -2.35,3.18 -0.55,9.06 0.4,12.44 3.09,10.96 9.54,21.21 16.66,30 26.43,32.61 67.26,58 109.91,58 l -1,92 h -1 c -1.59,-10.64 -8.67,-20.34 -14.66,-29 -21.66,-31.33 -63.52,-55.91 -102.34,-51 0,42.02 33.28,77.32 67,98.68 14.42,9.14 30.57,17.27 48,17.32 l -12,92 h -1 c -3.15,-36.11 -37.52,-69.61 -68,-84.75 -8.74,-4.34 -18.29,-7.7 -28,-8.96 -2.9,-0.38 -7.85,-1.14 -10.06,1.31 -8.03,8.92 2.47,34.4 6.34,43.4 11.65,27.08 32.71,51.51 56.72,68.41 10.39,7.32 22.97,15.02 36,15.59 -3.59,28.26 -11.44,61.93 -23,88 -8.68,-35.25 -22.47,-65.93 -53,-87.99 -9.12,-6.59 -19.11,-11.87 -30,-14.86 -2.99,-0.82 -8.44,-3.16 -11.3,-1.11 -3.01,2.17 -3.21,8.61 -3.53,11.96 -3.61,37.28 22.32,80.6 48.83,104.83 7.39,6.76 15.29,12.79 24,17.74 3.07,1.75 10.2,3.25 11.65,6.71 2.21,5.3 -4.87,17.68 -6.85,22.72 -7.9,20.1 -18.84,40.3 -24.8,61 h -1 c 0,-36.39 -17.24,-75.46 -46,-98.33 -7.62,-6.07 -15.88,-11.64 -25,-15.21 -2.9,-1.13 -7.58,-3.14 -10.35,-0.82 -9.43,7.91 -5.98,31.94 -4.38,42.36 4.56,29.46 19.53,58.35 38.48,81 8.1,9.68 18.79,20.41 31.25,24 -5.6,20.32 -20.38,41.84 -31.01,60 -4,6.83 -9.58,13.43 -11.99,21 h -1 c 8.82,-47.53 -20.4,-108.31 -66,-126 -24.16,35.95 -3.66,92.98 16.81,126 7.43,11.98 17.35,24.6 30.19,31 l -54,74 c 7.16,-36.92 1.31,-74.93 -20.86,-106 -5.55,-7.77 -12.29,-15.42 -20.14,-20.96 -2.97,-2.09 -7.18,-5.49 -10.91,-3.33 -10.63,6.16 -11.84,26.61 -13.36,37.29 -4.32,30.33 4.34,65 18.03,92 5.28,10.42 12.57,23.47 23.24,29 -14.67,25.5 -41.33,48.33 -62,69 13.39,-34.72 10.92,-77.47 -7.58,-110 -4.72,-8.3 -10.26,-16.42 -17.42,-22.83 -2.23,-1.99 -5.66,-5.52 -9,-4.71 -12.18,2.94 -17.78,29.38 -19.8,39.54 -5.91,29.79 -2.34,63.74 8.61,92 4.14,10.67 9.68,23.16 19.19,30 v 1 l -70,58 c 14.49,-34.86 19.89,-73.07 4.57,-109 -3.14,-7.38 -12.47,-30.86 -22.57,-29.98 -12.98,1.14 -21.43,26.87 -24.66,36.98 -10.13,31.75 -10.21,68.2 -0.31,100 2.89,9.31 8.58,17.04 11.97,26 l -29,19 -46,29 c 18.67,-33.68 28.19,-69.84 17.42,-108 -2.11,-7.48 -8.57,-32.02 -18.46,-32.29 -13.14,-0.35 -24.77,24.55 -29.27,34.29 -17.13,37.14 -22.19,87.93 -2.69,125 l -82,40 c 23.18,-30.76 36.49,-65.93 30.87,-105 -1.1,-7.67 -4.89,-33.46 -14.91,-34.47 -13.43,-1.34 -28.86,22.72 -34.19,32.47 -20.85,38.09 -28.22,80.02 -16.77,122 l -5,2 4,10 6,-2 c 3.11,13.09 12.51,23.89 22,32.96 25.22,24.11 64.21,38.52 99,35.21 11.46,-1.09 35.16,-1.05 42.29,-12.38 2.08,-3.31 -0.81,-7.87 -2.46,-10.79 -4.91,-8.68 -12.06,-15.67 -19.83,-21.79 -29.7,-23.39 -68.3,-36.26 -106,-37.21 v -1 c 29.01,-6.89 56.19,-27.48 83,-40 18.08,43.21 79.02,57.98 121,54.07 12.78,-1.18 25.72,-4.47 37,-10.74 3.47,-1.92 9.18,-4.68 10.86,-8.5 1.5,-3.39 -1.73,-7.28 -3.62,-9.83 -5.91,-7.96 -13.96,-14.03 -22.24,-19.3 -31.47,-20.05 -74.19,-28.35 -111,-23.7 v -1 l 29,-16.95 49,-33.05 c 6.03,12.66 19.75,22.11 32,28.24 30.09,15.05 65.51,18.46 98,10.13 11.56,-2.96 36.92,-11.06 41.69,-23.41 1.49,-3.87 -2.3,-7.45 -4.73,-9.95 -6.79,-6.97 -15.29,-11.98 -23.96,-16.25 -34.36,-16.93 -76.1,-17.92 -113,-10.76 v -1 c 16.33,-8.13 31.21,-24 45,-35.87 8.31,-7.15 18.64,-14.17 25,-23.13 h 1 c 26.89,38.16 93.22,37.03 132,22.68 11.45,-4.24 23.02,-10.41 32,-18.77 2.96,-2.76 7.72,-6.63 8.34,-10.91 1.55,-10.72 -23.73,-19.13 -31.34,-21.67 -37.71,-12.57 -75.65,-7.31 -113,2.67 15.19,-15.19 29.64,-31.09 44.07,-47 4.22,-4.65 10.75,-16.08 16.93,-17.8 3.72,-1.03 8.98,4.39 12,6.2 8.57,5.11 18.24,8.57 28,10.6 34.77,7.21 74.04,1.52 104,-18.36 11.32,-7.51 24.09,-18.11 28,-31.64 -45.6,-30.03 -100.93,-17.6 -148,2 13.88,-15.94 26.5,-33.49 38.33,-51 3.69,-5.46 9.81,-19.3 15.86,-21.98 3.7,-1.64 9.53,3.19 12.81,4.67 9.05,4.08 19.15,6.2 29,7.14 35.01,3.35 71.71,-7.57 99,-29.63 10.91,-8.82 23.83,-21.69 26,-36.2 -47.04,-24.75 -104.55,-5.65 -147,20 17.01,-23.41 34.98,-53.83 45,-81 40.27,23.42 102.29,2.34 133,-28 8.59,-8.49 27.87,-26.81 25.51,-40.79 -0.61,-3.58 -5.58,-4.88 -8.51,-5.85 -8.93,-2.95 -20.09,-4.06 -29.42,-2.94 -38.92,4.69 -72.81,17.78 -103.58,42.58 l 33,-85 c 45.56,14.57 97.26,-7 127.71,-42 8.21,-9.44 15.26,-20.14 19.43,-32 1.26,-3.6 3.7,-10.01 2.22,-13.77 -1.32,-3.34 -6.3,-3.94 -9.36,-4.56 -9.15,-1.88 -19.87,-1.01 -29,0.58 -37.95,6.59 -73.83,27.94 -99,56.75 l 24,-90 c 13.69,4.64 30.31,2.05 44,-1.38 43.84,-10.97 97.13,-56.14 93,-105.62 -37.02,-4.68 -69.87,13.36 -98,36 -11.26,9.06 -25.29,21.42 -31,35 h -1 l 9.28,-60 2.72,-32 c 49,0 91.95,-28.04 114.24,-72 5.82,-11.48 10.43,-25.02 10.75,-38 0.08,-3.34 0.93,-8.76 -1.02,-11.68 -2,-3 -6.86,-2.42 -9.97,-2.28 -9.64,0.42 -19.2,3.62 -28,7.39 -33.77,14.44 -66.41,45.17 -82,78.57 h -1 c 6.76,-28.38 2,-62.88 2,-92 64.36,-0.04 119.37,-76 108,-137 -38.88,0 -72.13,34.87 -92,65 -6.72,10.19 -14.9,22.81 -17,35 h -1 l -10,-93 c 17.58,-0.76 33.81,-11.05 47,-21.92 34.26,-28.25 59.9,-83.21 43,-127.08 -51.46,6.65 -83.37,67.49 -96,112 -6.02,-19.04 -8.58,-39.57 -13.37,-59 -2.28,-9.2 -8.02,-20.54 -7.89,-30 0.13,-10.16 7.68,-22.21 8.97,-33 2.95,-24.64 -5.22,-51.44 -16.46,-73 -8.48,-16.28 -21.05,-32.07 -37.25,-41.14 -4.81,-2.69 -15.21,-9.32 -20.01,-3.54 -6.81,8.21 -6.99,24.62 -6.99,34.68 0,32.99 10.95,67.15 31.8,93 4.96,6.14 10.06,11.93 16.2,16.91 3.66,2.96 9.3,5.28 11.86,9.3 4.65,7.29 5.92,19.43 8.01,27.79 4.83,19.31 11.55,40.14 13.13,60 m 16.67,127.67 -0.34,0.66 0.34,-0.66 m -79.67,505.33 -1,1 1,-1 m -1739,1 -1,1 1,-1 m 60,114 -1,1 1,-1 m 74,107 -1,1 1,-1 m 86,97 -1,1 1,-1 m 1298,0 -1,1 1,-1 m -106,76 -1,1 1,-1"
         id="path22431-4"
         sodipodi:nodetypes="ccccsccccccsscccccccscccccccccccscccccccccccccccccccccccscscccccccccsccccccccscccccccccccccsccccccccsscccccccccccccccssccccccccccccccccccscccccccccccccccccccccccccccccscscccssccccccccccccccccccccccccccccsccccccssccccccccccccscccccccccccccccsccccccccccccccsccccccccccccsccccccccccccccccccccccccccccccccccsccssccscccccccccccccccccccccccsccccccccsccccccccccccsccccccccccccccccccccccccccccc" />
      <path
         style="fill:#f9f9f9;stroke:none"
         d="m -15209.666,14508.195 c -17.57,2.31 -35.36,2.13 -53,4.85 -35.47,5.48 -71.14,16.93 -103,33.51 -205.01,106.72 -265.5,371.9 -232.58,584.22 22.89,147.54 109.09,292.02 249.58,354.14 32.16,14.22 66.21,23.09 101,27.86 34.3,4.7 68.64,5.1 103,0.71 121.2,-15.47 218.87,-97.49 280.2,-199.71 95.96,-159.94 110.22,-374.47 41,-547 -51.96,-129.52 -161.64,-229 -301.2,-252.41 -26.82,-4.5 -57.85,-9.73 -85,-6.17 m -433,2.58 -63,38.45 -136,81.15 -161,100.4 c 2.67,11.36 13.54,23.31 20,33 14.6,21.9 28.75,44.09 43.33,66 5.08,7.62 9.99,15.34 15.01,23 1.54,2.34 3.57,6.61 6.75,6.89 3.37,0.29 7.3,-3.49 9.91,-5.22 7.25,-4.81 14.63,-9.48 22,-14.09 30.23,-18.93 63.68,-35.97 92,-57.58 l -3,713 155,-3 3,-698 -1.91,-209 -0.21,-53.83 -1.88,-21.17 m 448,152.57 c 24.7,0 49.33,3.61 73,10.71 151.11,45.34 193.45,222.45 183.91,361.72 -1.57,22.87 -5.78,45.56 -10.31,68 -5.93,29.41 -15.63,58.47 -27.45,86 -38.15,88.89 -112.39,171.83 -216.15,172 -24.61,0.04 -50.59,-3.2 -74,-11 -19.41,-6.47 -37.03,-15.63 -54,-27 -125.75,-84.25 -147.16,-257.38 -123.92,-395 4.95,-29.31 12.66,-58.1 22.87,-86 28.86,-78.92 81.29,-150.52 166.05,-172.85 19.44,-5.12 39.99,-6.58 60,-6.58"
         id="path22650-8"
         sodipodi:nodetypes="ccccsccscscccccscccccccccccccccccsccscsc" />
      <g
         id="g25120"
         transform="translate(-12040.922,6520.9578)">
        <path
           style="fill:#ffffff;stroke:#404041;stroke-width:28.954;stroke-linecap:butt;stroke-linejoin:miter;stroke-miterlimit:4;stroke-dasharray:none;stroke-opacity:1"
           d="m -6441.505,10898.167 89.9121,-161.414 -89.9121,-161.412 h 958.72 l -89.912,161.412 89.9118,161.414 z"
           id="path22352-3-5"
           sodipodi:nodetypes="ccccccc"
           clip-path="url(#clipPath24771)"
           transform="matrix(0.86343723,0,0,0.86343723,1611.0333,-222.96807)" />
        <path
           style="fill:#ffffff;stroke:#404041;stroke-width:28.954;stroke-linecap:butt;stroke-linejoin:miter;stroke-miterlimit:4;stroke-dasharray:none;stroke-opacity:1"
           d="m -3577.7225,10898.167 89.9121,-161.414 -89.9121,-161.412 h 958.72 l -89.912,161.412 89.9118,161.414 z"
           id="path22352-3-6"
           sodipodi:nodetypes="ccccccc"
           clip-path="url(#clipPath24767)"
           transform="matrix(0.86343723,0,0,0.86343723,-488.96674,-222.96807)" />
        <path
           style="fill:#ffffff;stroke:#404041;stroke-width:25;stroke-linecap:butt;stroke-linejoin:miter;stroke-miterlimit:4;stroke-dasharray:none;stroke-opacity:1"
           d="m -3819.9164,9208.958 89.9121,-161.414 -89.9121,-161.412 h 958.72 l -89.912,161.412 89.9118,161.414 z"
           id="path22352-3"
           sodipodi:nodetypes="ccccccc" />
        <g
           aria-label="ANOS"
           id="text3101-63"
           style="font-size:282.667px;line-height:1.25;fill:#404041;stroke-width:0.337246">
          <path
             d="m -3527.1161,9138.5642 c 0,0 0,-0.848 -1.1307,-3.9574 l -54.5547,-174.4055 c -3.392,-10.7413 -10.4587,-10.7413 -16.112,-10.7413 h -16.112 c -5.0881,0 -12.7201,0 -16.1121,10.4586 l -54.5547,174.1229 c -0.2827,1.1307 -1.1307,3.392 -1.1307,4.5227 0,7.0667 6.784,7.0667 10.7414,7.0667 h 4.5227 c 12.4373,0 14.1333,-5.088 16.112,-11.3067 l 11.872,-37.0294 h 68.4054 l 9.328,30.2454 c 4.5227,14.416 5.936,18.0907 18.3734,18.0907 h 9.6106 c 3.9574,0 10.7414,0 10.7414,-7.0667 z m -54.5547,-62.4694 h -55.4028 l 16.3947,-54.5548 c 5.088,-16.96 9.8934,-33.6373 11.024,-42.1173 h 0.2827 c 1.696,10.7413 8.7627,33.92 11.872,44.3787 z"
             style="font-family:'Latin Modern Sans Demi Cond';-inkscape-font-specification:'Latin Modern Sans Demi Cond, Normal'"
             id="path868" />
          <path
             d="m -3348.4707,9133.1935 v -171.2962 c 0,-8.7627 -1.696,-12.4373 -12.4373,-12.4373 h -4.5227 c -9.8933,0 -12.4373,2.8266 -12.4373,12.4373 v 153.7709 h -0.2827 c -3.392,-11.0241 -5.6533,-15.8294 -11.5893,-29.9627 l -53.4241,-124.9389 c -3.9573,-9.328 -7.9147,-11.3066 -17.808,-11.3066 h -20.352 c -9.8934,0 -12.7201,2.544 -12.7201,12.72 v 170.7308 c 0,9.8934 2.544,12.7201 12.7201,12.7201 h 4.24 c 9.8933,0 12.4373,-2.8267 12.4373,-12.4374 v -153.7708 h 0.2827 c 3.392,11.024 5.6533,15.8293 11.5893,29.9627 l 53.4241,124.9388 c 3.9573,9.328 7.9147,11.3067 17.808,11.3067 h 20.6347 c 9.8933,0 12.4373,-2.8267 12.4373,-12.4374 z"
             style="font-family:'Latin Modern Sans Demi Cond';-inkscape-font-specification:'Latin Modern Sans Demi Cond, Normal'"
             id="path870" />
          <path
             d="m -3143.5372,9048.9587 c 0,-12.1546 -0.5654,-44.6613 -16.1121,-69.536 -19.504,-31.0934 -50.5973,-35.3334 -67.2747,-35.3334 -26.8534,0 -50.8801,11.024 -64.7307,31.0934 -10.4587,15.5466 -18.6561,36.464 -18.6561,73.776 0,24.5921 3.392,54.5548 23.1787,77.4508 12.72,14.6987 34.2027,24.592 60.2081,24.592 19.7867,0 44.3787,-5.936 61.0561,-25.7227 18.9387,-22.3307 22.3307,-52.576 22.3307,-76.3201 z m -34.4854,-4.5226 c 0,17.808 -0.5653,38.4427 -8.48,57.0987 -10.7414,24.8747 -29.9627,29.1147 -40.4214,29.1147 -10.7413,0 -29.9627,-4.5227 -40.4214,-29.3974 -7.0667,-16.6773 -8.48,-34.2027 -8.48,-56.816 0,-13.8507 0,-39.0081 10.4587,-57.3814 10.176,-18.3734 26.5707,-23.1787 38.4427,-23.1787 8.7627,0 27.984,2.8267 39.2907,24.592 9.328,18.0907 9.6107,39.8561 9.6107,55.9681 z"
             style="font-family:'Latin Modern Sans Demi Cond';-inkscape-font-specification:'Latin Modern Sans Demi Cond, Normal'"
             id="path872" />
          <path
             d="m -2994.2895,9090.5108 c 0,-9.0453 -1.1306,-25.1574 -15.264,-41.8347 -11.5893,-13.568 -24.0267,-16.6774 -39.008,-20.6347 -17.2427,-4.5227 -20.9174,-5.6533 -25.7227,-10.176 -2.8267,-3.1094 -9.328,-9.328 -9.328,-21.2 0,-20.0694 13.0026,-27.9841 30.528,-27.9841 19.7867,0 30.8107,7.9147 39.2907,15.8294 1.696,1.696 1.9787,1.9786 3.392,1.9786 2.544,0 3.1094,-2.544 3.392,-3.9573 0.848,-3.6747 3.6747,-18.0907 3.6747,-20.9174 0,-2.2613 -0.2827,-2.544 -6.784,-6.2186 -9.6107,-5.6534 -21.7654,-11.3067 -43.2481,-11.3067 -43.8134,0 -59.9254,26.5707 -59.9254,56.8161 0,22.6133 13.0027,36.464 14.416,37.8773 13.0027,13.5681 21.7654,15.8294 37.5948,19.7867 5.936,1.696 16.112,4.24 18.3733,5.088 8.48,3.392 18.9387,13.568 18.9387,29.9627 0,13.568 -5.088,31.0934 -30.2454,31.0934 -9.0453,0 -30.528,-1.9787 -50.5974,-18.9387 -3.1093,-2.8267 -3.6746,-2.8267 -4.5226,-2.8267 -2.544,0 -3.1094,2.544 -3.392,3.9574 -0.848,3.6747 -3.6747,18.0907 -3.6747,20.9173 0,2.544 0.2827,2.8267 8.1973,7.632 18.9387,11.5894 37.5947,15.5467 54.2721,15.5467 41.2694,0 59.6427,-26.0053 59.6427,-60.4907 z"
             style="font-family:'Latin Modern Sans Demi Cond';-inkscape-font-specification:'Latin Modern Sans Demi Cond, Normal'"
             id="path874" />
        </g>
      </g>
    </g>
  </g>
</svg>
