<?xml version="1.0" encoding="UTF-8" standalone="no"?>
<svg
   width="76mm"
   height="12mm"
   viewBox="0 0 76.000006 12.000001"
   version="1.1"
   id="svg4738"
   inkscape:version="1.1.2 (0a00cf5339, 2022-02-04)"
   sodipodi:docname="logo_slogan_BR_oficial_10anos.svg"
   xmlns:inkscape="http://www.inkscape.org/namespaces/inkscape"
   xmlns:sodipodi="http://sodipodi.sourceforge.net/DTD/sodipodi-0.dtd"
   xmlns="http://www.w3.org/2000/svg"
   xmlns:svg="http://www.w3.org/2000/svg"
   xmlns:rdf="http://www.w3.org/1999/02/22-rdf-syntax-ns#"
   xmlns:cc="http://creativecommons.org/ns#"
   xmlns:dc="http://purl.org/dc/elements/1.1/">
  <defs
     id="defs4732">
    <clipPath
       clipPathUnits="userSpaceOnUse"
       id="clipPath24771">
      <rect
         style="opacity:0.92;fill:none;fill-opacity:1;stroke:#000000;stroke-width:25;stroke-miterlimit:4;stroke-dasharray:none;paint-order:markers stroke fill"
         id="rect24773"
         width="722.98907"
         height="722.98907"
         x="-6898.2656"
         y="10375.26" />
    </clipPath>
    <clipPath
       clipPathUnits="userSpaceOnUse"
       id="clipPath24767">
      <rect
         style="opacity:0.92;fill:none;fill-opacity:1;stroke:#000000;stroke-width:25;stroke-miterlimit:4;stroke-dasharray:none;paint-order:markers stroke fill"
         id="rect24769"
         width="722.98907"
         height="722.98907"
         x="-2885.2312"
         y="10375.26" />
    </clipPath>
  </defs>
  <sodipodi:namedview
     id="base"
     pagecolor="#ffffff"
     bordercolor="#666666"
     borderopacity="1.0"
     inkscape:pageopacity="0.0"
     inkscape:pageshadow="2"
     inkscape:zoom="8"
     inkscape:cx="248.5"
     inkscape:cy="34.5"
     inkscape:document-units="mm"
     inkscape:current-layer="g954"
     showgrid="false"
     inkscape:window-width="1920"
     inkscape:window-height="1011"
     inkscape:window-x="0"
     inkscape:window-y="0"
     inkscape:window-maximized="1"
     inkscape:snap-bbox="false"
     inkscape:bbox-nodes="true"
     inkscape:bbox-paths="true"
     inkscape:snap-text-baseline="true"
     inkscape:document-rotation="0"
     inkscape:pagecheckerboard="0" />
  <metadata
     id="metadata4735">
    <rdf:RDF>
      <cc:Work
         rdf:about="">
        <dc:format>image/svg+xml</dc:format>
        <dc:type
           rdf:resource="http://purl.org/dc/dcmitype/StillImage" />
      </cc:Work>
    </rdf:RDF>
  </metadata>
  <g
     inkscape:groupmode="layer"
     id="layer2"
     inkscape:label="Layer 2"
     transform="matrix(1.3412098,0,0,1.3412098,-17.825446,-104.12495)"
     style="display:inline"
     sodipodi:insensitive="true" />
  <g
     inkscape:label="Layer 1"
     inkscape:groupmode="layer"
     id="layer1"
     transform="translate(-2.9730686,-73.170775)"
     style="display:inline">
    <text
       xml:space="preserve"
       style="font-style:normal;font-weight:normal;font-size:6.08481px;line-height:125%;font-family:sans-serif;letter-spacing:0px;word-spacing:0px;fill:#000000;fill-opacity:1;stroke:none;stroke-width:0.264583px;stroke-linecap:butt;stroke-linejoin:miter;stroke-opacity:1"
       x="52.826782"
       y="125.43476"
       id="text5289" />
    <text
       xml:space="preserve"
       style="font-style:normal;font-weight:normal;font-size:6.08481px;line-height:125%;font-family:sans-serif;letter-spacing:0px;word-spacing:0px;fill:#000000;fill-opacity:1;stroke:none;stroke-width:0.264583px;stroke-linecap:butt;stroke-linejoin:miter;stroke-opacity:1"
       x="36.689808"
       y="85.343277"
       id="text5295" />
    <text
       xml:space="preserve"
       style="font-style:normal;font-weight:normal;font-size:3.1816px;line-height:125%;font-family:sans-serif;letter-spacing:0px;word-spacing:0px;fill:#000000;fill-opacity:1;stroke:none;stroke-width:0.264583px;stroke-linecap:butt;stroke-linejoin:miter;stroke-opacity:1"
       x="24.415754"
       y="93.21981"
       id="text828" />
    <flowRoot
       xml:space="preserve"
       id="flowRoot862"
       style="font-style:normal;font-weight:normal;font-size:10.6667px;line-height:125%;font-family:sans-serif;letter-spacing:0px;word-spacing:0px;fill:#000000;fill-opacity:1;stroke:none;stroke-width:0.887046px;stroke-linecap:butt;stroke-linejoin:miter;stroke-opacity:1"
       transform="matrix(0.29827477,0,0,0.29827477,22.924381,71.816621)"><flowRegion
         id="flowRegion864"
         style="stroke-width:0.887046px"><rect
           id="rect866"
           width="268"
           height="72.5"
           x="-26"
           y="81.756653"
           style="stroke-width:0.88704562px" /></flowRegion><flowPara
         id="flowPara868"
         style="stroke-width:0.887046px" /></flowRoot>
    <flowRoot
       xml:space="preserve"
       id="flowRoot5134"
       style="font-style:normal;font-weight:normal;font-size:10.6667px;line-height:125%;font-family:sans-serif;letter-spacing:0px;word-spacing:0px;fill:#000000;fill-opacity:1;stroke:none;stroke-width:1px;stroke-linecap:butt;stroke-linejoin:miter;stroke-opacity:1"><flowRegion
         id="flowRegion5136"><rect
           id="rect5138"
           width="172"
           height="45.5"
           x="-18.5"
           y="-14.540985" /></flowRegion><flowPara
         id="flowPara5140" /></flowRoot>
    <g
       id="g869"
       transform="matrix(1.2,0,0,1.2,-14.031617,-19.504151)"
       style="stroke-width:0.833333">
      <g
         transform="translate(0.52917261)"
         id="g929"
         style="stroke-width:0.833333" />
    </g>
    <flowRoot
       xml:space="preserve"
       id="flowRoot884"
       style="font-style:normal;font-variant:normal;font-weight:normal;font-stretch:normal;font-size:10.6667px;line-height:125%;font-family:ZephyrScriptFLF;-inkscape-font-specification:ZephyrScriptFLF;letter-spacing:0px;word-spacing:0px;fill:#000000;fill-opacity:1;stroke:none;stroke-width:1px;stroke-linecap:butt;stroke-linejoin:miter;stroke-opacity:1"><flowRegion
         id="flowRegion886"><rect
           id="rect888"
           width="1975.6562"
           height="115.96551"
           x="-14.142136"
           y="-35.425209" /></flowRegion><flowPara
         id="flowPara890" /></flowRoot>
    <flowRoot
       xml:space="preserve"
       id="flowRoot892"
       style="font-style:normal;font-variant:normal;font-weight:normal;font-stretch:normal;font-size:10.6667px;line-height:125%;font-family:ZephyrScriptFLF;-inkscape-font-specification:ZephyrScriptFLF;letter-spacing:0px;word-spacing:0px;fill:#000000;fill-opacity:1;stroke:none;stroke-width:1px;stroke-linecap:butt;stroke-linejoin:miter;stroke-opacity:1"><flowRegion
         id="flowRegion894"><rect
           id="rect896"
           width="759.43268"
           height="304.05591"
           x="-73.539101"
           y="-104.01456" /></flowRegion><flowPara
         id="flowPara898" /></flowRoot>
    <g
       id="g4144">
      <g
         id="g855"
         transform="translate(0.06986203,-0.34468378)">
        <path
           sodipodi:open="true"
           sodipodi:end="6.1383778"
           sodipodi:start="0"
           sodipodi:ry="1.6093882"
           sodipodi:rx="1.6094203"
           sodipodi:cy="80.499969"
           sodipodi:cx="11.188526"
           sodipodi:type="arc"
           id="path5291"
           style="display:inline;fill:#6a8888;fill-opacity:1;fill-rule:evenodd;stroke:#000000;stroke-width:0;stroke-miterlimit:4;stroke-dasharray:none;stroke-opacity:0"
           sodipodi:arc-type="arc"
           d="m 12.797946,80.499969 a 1.6094203,1.6093882 0 0 1 -1.551169,1.608334 1.6094203,1.6093882 0 0 1 -1.6634545,-1.49191 1.6094203,1.6093882 0 0 1 1.4307545,-1.71633 1.6094203,1.6093882 0 0 1 1.767025,1.367669" />
        <text
           id="text5285"
           y="82.144569"
           x="2.6549656"
           style="font-style:normal;font-weight:normal;font-size:7.58784px;line-height:125%;font-family:sans-serif;letter-spacing:0px;word-spacing:0px;display:inline;fill:#f9f9f9;fill-opacity:1;stroke:none;stroke-width:0.295718px;stroke-linecap:butt;stroke-linejoin:miter;stroke-opacity:1"
           xml:space="preserve"><tspan
             dx="0.71696138 -0.71696138"
             style="font-style:normal;font-variant:normal;font-weight:500;font-stretch:normal;font-size:11.4379px;font-family:Montserrat;-inkscape-font-specification:'Montserrat, Medium';font-variant-ligatures:normal;font-variant-caps:normal;font-variant-numeric:normal;font-variant-east-asian:normal;letter-spacing:-0.758784px;fill:#f9f9f9;fill-opacity:1;stroke-width:0.295718px"
             y="82.144569"
             x="2.6549656"
             id="tspan5283"
             sodipodi:role="line">eQuanta</tspan></text>
        <text
           id="text824"
           y="84.558937"
           x="18.892389"
           style="font-style:normal;font-weight:normal;font-size:10.1464px;line-height:125%;font-family:sans-serif;letter-spacing:0px;word-spacing:0px;display:inline;fill:#f9f9f9;fill-opacity:1;stroke:none;stroke-width:0.296;stroke-linecap:butt;stroke-linejoin:miter;stroke-miterlimit:4;stroke-dasharray:none;stroke-opacity:1"
           xml:space="preserve"><tspan
             style="font-style:normal;font-variant:normal;font-weight:600;font-stretch:normal;font-size:2.11667px;font-family:Montserrat;-inkscape-font-specification:'Montserrat, Semi-Bold';font-variant-ligatures:normal;font-variant-caps:normal;font-variant-numeric:normal;font-variant-east-asian:normal;text-align:start;writing-mode:lr-tb;text-anchor:start;fill:#f9f9f9;fill-opacity:1;stroke-width:0.296;stroke-miterlimit:4;stroke-dasharray:none"
             y="84.558937"
             x="18.892389"
             id="tspan822"
             sodipodi:role="line">Diligentia laborat in omnis silvae et maria</tspan></text>
        <g
           id="g971"
           transform="matrix(0.26458333,0,0,0.26458333,4466.6236,-4194.3478)">
          <g
             id="g954">
            <path
               style="display:inline;fill:#6a8888;fill-opacity:1;stroke:none;stroke-width:0.999999"
               d="m -16634.231,16139.428 h -0.02 c -0.04,-0.3 -0.164,-0.598 -0.298,-0.867 -0.38,-0.76 -1.044,-1.662 -1.95,-1.779 -0.283,1.04 0.113,2.083 0.867,2.833 0.324,0.323 0.766,0.635 1.241,0.655 l -0.211,2.155 c -0.112,-0.125 -0.161,-0.32 -0.242,-0.469 -0.165,-0.306 -0.365,-0.61 -0.603,-0.866 -0.344,-0.37 -0.741,-0.704 -1.216,-0.891 -0.11,-0.04 -0.418,-0.164 -0.516,-0.06 -0.06,0.07 -0.04,0.186 -0.05,0.267 -0.02,0.28 0.03,0.552 0.111,0.82 0.3,1.023 1.321,2.08 2.445,2.083 l 0.05,2.178 h -0.02 c -0.07,-0.242 -0.249,-0.46 -0.403,-0.655 -0.402,-0.511 -0.906,-0.923 -1.494,-1.2 -0.201,-0.1 -0.432,-0.164 -0.655,-0.18 -0.07,0 -0.185,-0.02 -0.235,0.03 -0.07,0.08 -0.05,0.261 -0.03,0.361 0.04,0.289 0.119,0.558 0.25,0.82 0.515,1.023 1.524,1.685 2.664,1.685 l 0.281,2.155 h -0.02 c -0.108,-0.286 -0.385,-0.529 -0.609,-0.727 -0.662,-0.588 -1.505,-1.05 -2.411,-0.936 0,1.46 1.799,2.876 3.231,2.506 0.06,0.713 0.378,1.413 0.539,2.107 h -0.02 c -0.134,-0.287 -0.509,-0.541 -0.772,-0.707 -0.728,-0.457 -1.55,-0.778 -2.412,-0.581 0,0.447 0.251,0.819 0.532,1.148 0.693,0.808 1.916,1.298 2.957,0.96 l 0.796,2.013 c -0.668,-0.614 -1.529,-0.909 -2.412,-1.013 -0.235,-0.03 -0.474,0 -0.703,0.06 -0.08,0.02 -0.19,0.05 -0.213,0.139 -0.02,0.1 0.05,0.221 0.09,0.302 0.136,0.273 0.337,0.517 0.567,0.716 0.75,0.648 2.106,1.141 3.044,0.595 l 1.031,1.874 c -0.778,-0.476 -1.617,-0.725 -2.529,-0.703 -0.225,0 -0.474,0.06 -0.679,0.151 -0.07,0.03 -0.172,0.07 -0.185,0.156 -0.01,0.09 0.07,0.207 0.116,0.279 0.154,0.248 0.371,0.452 0.607,0.622 0.702,0.505 1.656,0.728 2.506,0.538 0.247,-0.06 0.447,-0.183 0.679,-0.271 0.238,0.629 0.829,1.192 1.217,1.733 -0.826,-0.343 -1.702,-0.553 -2.599,-0.384 -0.188,0.04 -0.794,0.156 -0.803,0.408 0,0.1 0.1,0.21 0.155,0.28 0.19,0.224 0.433,0.412 0.695,0.545 1.052,0.534 2.177,0.467 3.161,-0.146 0.32,0.616 1.011,1.009 1.405,1.568 -0.418,-0.135 -0.846,-0.234 -1.288,-0.234 -0.3,0 -0.593,0 -0.89,0.06 -0.329,0.06 -0.68,0.157 -0.96,0.344 -0.08,0.05 -0.245,0.166 -0.233,0.278 0.01,0.09 0.121,0.192 0.187,0.251 0.21,0.187 0.464,0.332 0.725,0.433 0.749,0.29 1.615,0.307 2.365,0 0.265,-0.105 0.612,-0.266 0.75,-0.529 l 1.077,0.931 0.609,0.451 v 0.02 c -0.908,-0.122 -1.762,-0.136 -2.623,0.234 -0.208,0.09 -0.422,0.218 -0.584,0.377 -0.06,0.05 -0.153,0.145 -0.131,0.232 0.08,0.3 0.695,0.484 0.949,0.562 0.75,0.229 1.623,0.12 2.318,-0.228 0.286,-0.144 0.6,-0.346 0.75,-0.638 l 1.826,1.147 v 0.02 c -0.839,-0.106 -1.832,0.07 -2.552,0.532 -0.271,0.172 -0.584,0.385 -0.679,0.709 0.886,0.655 2.123,0.574 3.067,0.08 0.348,-0.184 0.797,-0.499 0.913,-0.895 0.64,0.268 1.277,0.814 1.967,0.936 v 0.02 c -0.838,0.01 -1.707,0.294 -2.388,0.783 -0.21,0.15 -0.405,0.334 -0.546,0.552 -0.05,0.07 -0.127,0.185 -0.1,0.276 0.08,0.221 0.608,0.286 0.805,0.305 0.818,0.08 1.63,-0.141 2.294,-0.632 0.235,-0.173 0.437,-0.382 0.593,-0.628 0.08,-0.125 0.1,-0.301 0.274,-0.281 l 0.09,-0.235 -0.117,-0.05 c 0.319,-0.945 0.09,-2.028 -0.395,-2.881 -0.13,-0.227 -0.481,-0.77 -0.797,-0.736 -0.08,0 -0.126,0.109 -0.159,0.175 -0.101,0.201 -0.159,0.433 -0.187,0.655 -0.108,0.847 0.134,1.814 0.742,2.435 l -1.943,-0.936 c 0.515,-0.789 0.329,-2.149 -0.06,-2.951 -0.107,-0.217 -0.369,-0.779 -0.661,-0.778 -0.245,0 -0.41,0.592 -0.457,0.778 -0.214,0.833 -0.08,1.802 0.434,2.506 -0.447,-0.238 -0.869,-0.529 -1.288,-0.812 -0.113,-0.08 -0.395,-0.208 -0.441,-0.339 -0.03,-0.08 0.08,-0.207 0.118,-0.277 0.1,-0.207 0.166,-0.431 0.21,-0.656 0.161,-0.823 0.14,-2.103 -0.497,-2.739 -0.356,-0.355 -0.663,0.449 -0.756,0.725 -0.256,0.761 -0.24,1.706 0.171,2.412 l -1.077,-0.87 -0.562,-0.465 c 0.121,-0.209 0.279,-0.384 0.378,-0.609 0.415,-0.938 0.57,-2.464 -0.214,-3.254 h -0.02 c -1.008,0.799 -1.087,2.105 -0.773,3.254 h -0.02 l -0.513,-0.562 -0.916,-1.006 v -0.02 c 0.791,-0.557 0.995,-1.824 0.984,-2.716 0,-0.255 -0.06,-0.905 -0.335,-1.027 -0.08,-0.03 -0.169,0.05 -0.227,0.08 -0.195,0.132 -0.349,0.307 -0.485,0.497 -0.503,0.705 -0.711,1.665 -0.475,2.506 l -0.829,-1.101 -0.435,-0.679 c 0.264,-0.1 0.453,-0.36 0.609,-0.585 0.41,-0.594 0.701,-1.355 0.702,-2.084 0,-0.254 0.03,-0.744 -0.197,-0.922 -0.199,-0.154 -0.667,0.329 -0.786,0.453 -0.645,0.676 -0.804,1.522 -0.797,2.412 h -0.02 l -1.007,-1.873 c 0.26,-0.07 0.471,-0.279 0.655,-0.468 0.51,-0.523 0.839,-1.258 0.979,-1.967 0.05,-0.259 0.06,-0.514 0,-0.773 -0.02,-0.08 -0.04,-0.21 -0.109,-0.256 -0.07,-0.04 -0.178,0.02 -0.242,0.04 -0.215,0.08 -0.413,0.211 -0.586,0.359 -0.472,0.401 -0.802,0.95 -0.97,1.545 -0.06,0.226 -0.133,0.516 -0.08,0.749 l -0.277,-0.585 -0.542,-1.405 c 0.938,-0.306 1.638,-1.314 1.919,-2.225 0.08,-0.255 0.101,-0.506 0.09,-0.772 0,-0.08 0,-0.23 -0.08,-0.28 -0.185,-0.12 -0.676,0.191 -0.831,0.284 -0.696,0.423 -1.34,1.333 -1.358,2.173 h -0.02 l -0.539,-2.084 c 0.349,-0.01 0.664,-0.23 0.937,-0.428 0.743,-0.538 1.588,-1.609 1.405,-2.592 -1.132,0 -2.339,1.077 -2.506,2.201 h -0.02 l -0.281,-2.154 c 0.957,0 1.956,-0.908 2.405,-1.686 0.186,-0.322 0.334,-0.652 0.288,-1.03 -1.095,-0.139 -2.481,0.784 -2.74,1.873 h -0.02 l -0.02,-2.155 c 0.306,0.05 0.654,-0.05 0.937,-0.163 0.635,-0.253 1.212,-0.661 1.644,-1.195 0.168,-0.208 0.321,-0.44 0.389,-0.702 0.02,-0.08 0.06,-0.218 0,-0.291 -0.134,-0.181 -0.685,-0.07 -0.866,-0.03 -0.759,0.16 -1.787,0.728 -2.037,1.517 h -0.02 c 0,-0.682 0.07,-1.466 0.235,-2.131 0.916,0.218 2.09,-0.407 2.716,-1.03 0.171,-0.171 0.648,-0.644 0.524,-0.931 -0.09,-0.21 -0.65,-0.155 -0.829,-0.147 -0.653,0.03 -1.279,0.309 -1.779,0.725 -0.177,0.147 -0.384,0.321 -0.469,0.54 h -0.02 c 0.05,-0.417 0.18,-0.83 0.271,-1.241 0.06,-0.257 0.101,-0.607 0.231,-0.838 0.06,-0.105 0.225,-0.172 0.317,-0.249 0.173,-0.145 0.315,-0.324 0.448,-0.505 0.601,-0.82 0.835,-1.982 0.442,-2.927 -1.101,0.228 -1.752,1.65 -1.707,2.693 0,0.195 0.04,0.4 0.104,0.585 0.03,0.104 0.129,0.228 0.122,0.338 -0.01,0.167 -0.1,0.343 -0.137,0.505 -0.129,0.515 -0.307,1.063 -0.349,1.593 m 43.974,0.02 h -0.02 c -0.368,-0.739 -1.44,-1.198 -2.224,-1.242 -0.174,-0.01 -0.77,-0.06 -0.852,0.147 -0.11,0.282 0.352,0.763 0.524,0.931 0.663,0.65 1.789,1.207 2.739,1.03 l 0.211,2.108 h -0.02 c -0.288,-0.787 -1.261,-1.33 -2.037,-1.494 -0.182,-0.04 -0.732,-0.149 -0.866,0.03 -0.06,0.07 -0.01,0.212 0,0.291 0.07,0.257 0.224,0.497 0.391,0.702 0.618,0.764 1.575,1.358 2.573,1.358 l -0.02,2.155 h -0.02 c -0.04,-0.249 -0.203,-0.477 -0.343,-0.679 -0.507,-0.734 -1.487,-1.309 -2.396,-1.194 0,0.983 0.779,1.81 1.569,2.31 0.337,0.214 0.715,0.404 1.124,0.406 l -0.282,2.154 h -0.02 c -0.07,-0.846 -0.878,-1.63 -1.592,-1.985 -0.205,-0.101 -0.428,-0.18 -0.656,-0.209 -0.07,0 -0.184,-0.03 -0.235,0.03 -0.188,0.209 0.06,0.806 0.148,1.016 0.273,0.635 0.766,1.207 1.328,1.602 0.243,0.172 0.538,0.352 0.843,0.365 -0.08,0.662 -0.268,1.451 -0.538,2.061 -0.204,-0.825 -0.527,-1.544 -1.241,-2.06 -0.214,-0.155 -0.448,-0.278 -0.703,-0.348 -0.07,-0.02 -0.197,-0.07 -0.264,-0.03 -0.07,0.05 -0.08,0.201 -0.08,0.28 -0.09,0.873 0.523,1.887 1.143,2.454 0.173,0.159 0.358,0.3 0.562,0.416 0.07,0.04 0.239,0.08 0.273,0.157 0.05,0.124 -0.114,0.414 -0.16,0.532 -0.185,0.471 -0.442,0.943 -0.581,1.428 h -0.02 c 0,-0.852 -0.404,-1.767 -1.078,-2.302 -0.178,-0.142 -0.371,-0.273 -0.585,-0.356 -0.07,-0.03 -0.177,-0.07 -0.242,-0.02 -0.221,0.186 -0.14,0.748 -0.103,0.992 0.107,0.69 0.457,1.367 0.901,1.897 0.19,0.227 0.44,0.478 0.732,0.562 -0.131,0.476 -0.477,0.98 -0.726,1.405 -0.09,0.16 -0.225,0.314 -0.281,0.492 h -0.02 c 0.206,-1.113 -0.478,-2.536 -1.546,-2.951 -0.566,0.842 -0.08,2.177 0.394,2.951 0.174,0.28 0.406,0.576 0.707,0.725 l -1.265,1.733 c 0.168,-0.864 0.03,-1.754 -0.488,-2.482 -0.13,-0.182 -0.288,-0.361 -0.472,-0.491 -0.07,-0.05 -0.168,-0.128 -0.255,-0.08 -0.249,0.145 -0.277,0.623 -0.313,0.874 -0.101,0.71 0.102,1.522 0.422,2.154 0.124,0.244 0.294,0.549 0.544,0.679 -0.343,0.597 -0.967,1.131 -1.451,1.615 0.313,-0.813 0.255,-1.814 -0.178,-2.575 -0.11,-0.195 -0.24,-0.385 -0.408,-0.535 -0.05,-0.05 -0.132,-0.129 -0.211,-0.11 -0.285,0.07 -0.416,0.688 -0.463,0.926 -0.139,0.697 -0.05,1.492 0.201,2.154 0.1,0.25 0.227,0.542 0.45,0.702 v 0.02 l -1.639,1.358 c 0.339,-0.816 0.465,-1.711 0.107,-2.552 -0.07,-0.173 -0.292,-0.723 -0.529,-0.702 -0.304,0.03 -0.502,0.629 -0.577,0.866 -0.237,0.743 -0.239,1.597 0,2.341 0.07,0.218 0.201,0.399 0.281,0.609 l -0.679,0.445 -1.077,0.679 c 0.437,-0.789 0.66,-1.635 0.407,-2.529 -0.05,-0.175 -0.2,-0.75 -0.432,-0.756 -0.307,0 -0.58,0.575 -0.685,0.803 -0.401,0.87 -0.52,2.059 -0.06,2.927 l -1.92,0.936 c 0.543,-0.72 0.854,-1.543 0.723,-2.458 -0.03,-0.18 -0.115,-0.784 -0.35,-0.807 -0.314,-0.03 -0.675,0.532 -0.8,0.76 -0.488,0.892 -0.661,1.874 -0.393,2.857 l -0.117,0.05 0.09,0.235 0.14,-0.05 c 0.07,0.306 0.293,0.559 0.516,0.772 0.59,0.564 1.503,0.901 2.318,0.824 0.268,-0.03 0.823,-0.03 0.99,-0.29 0.05,-0.08 -0.02,-0.184 -0.06,-0.253 -0.115,-0.203 -0.282,-0.366 -0.464,-0.51 -0.696,-0.548 -1.599,-0.849 -2.482,-0.871 v -0.02 c 0.679,-0.161 1.316,-0.643 1.943,-0.936 0.424,1.012 1.851,1.357 2.834,1.266 0.299,-0.03 0.602,-0.105 0.866,-0.251 0.08,-0.05 0.215,-0.11 0.254,-0.2 0.03,-0.08 -0.04,-0.17 -0.08,-0.23 -0.138,-0.186 -0.326,-0.328 -0.52,-0.452 -0.737,-0.469 -1.737,-0.664 -2.599,-0.555 v -0.02 l 0.679,-0.397 1.147,-0.774 c 0.141,0.297 0.462,0.518 0.749,0.662 0.705,0.352 1.534,0.432 2.295,0.237 0.271,-0.07 0.865,-0.259 0.976,-0.548 0.03,-0.09 -0.05,-0.175 -0.111,-0.233 -0.159,-0.164 -0.358,-0.281 -0.561,-0.381 -0.804,-0.396 -1.782,-0.42 -2.646,-0.252 v -0.02 c 0.383,-0.191 0.731,-0.562 1.054,-0.84 0.195,-0.168 0.437,-0.332 0.586,-0.542 h 0.02 c 0.63,0.894 2.183,0.867 3.091,0.531 0.268,-0.1 0.539,-0.244 0.749,-0.439 0.07,-0.06 0.181,-0.155 0.195,-0.256 0.04,-0.251 -0.555,-0.448 -0.733,-0.507 -0.883,-0.295 -1.772,-0.171 -2.646,0.06 0.355,-0.355 0.694,-0.728 1.031,-1.1 0.1,-0.109 0.252,-0.377 0.397,-0.417 0.09,-0.02 0.21,0.103 0.281,0.145 0.201,0.12 0.427,0.201 0.656,0.248 0.814,0.169 1.733,0.04 2.435,-0.429 0.265,-0.176 0.564,-0.425 0.655,-0.741 -1.067,-0.703 -2.363,-0.412 -3.465,0.05 0.325,-0.374 0.62,-0.785 0.897,-1.195 0.09,-0.128 0.23,-0.452 0.372,-0.514 0.09,-0.04 0.223,0.07 0.3,0.109 0.212,0.1 0.448,0.145 0.679,0.167 0.82,0.08 1.679,-0.177 2.318,-0.694 0.255,-0.206 0.558,-0.507 0.609,-0.847 -1.102,-0.58 -2.448,-0.133 -3.442,0.468 0.398,-0.548 0.819,-1.26 1.053,-1.897 0.943,0.549 2.395,0.06 3.115,-0.655 0.201,-0.199 0.652,-0.628 0.597,-0.955 -0.01,-0.08 -0.131,-0.115 -0.199,-0.137 -0.209,-0.07 -0.471,-0.09 -0.689,-0.07 -0.912,0.11 -1.705,0.416 -2.426,0.997 l 0.773,-1.99 c 1.067,0.341 2.278,-0.164 2.99,-0.984 0.193,-0.221 0.358,-0.471 0.455,-0.749 0.03,-0.08 0.09,-0.235 0.05,-0.323 -0.03,-0.08 -0.147,-0.09 -0.219,-0.106 -0.214,-0.04 -0.465,-0.02 -0.679,0.01 -0.888,0.154 -1.729,0.654 -2.318,1.329 l 0.562,-2.107 c 0.321,0.108 0.71,0.05 1.03,-0.03 1.027,-0.257 2.275,-1.314 2.178,-2.473 -0.867,-0.109 -1.636,0.313 -2.295,0.843 -0.263,0.212 -0.592,0.502 -0.726,0.82 h -0.02 l 0.217,-1.405 0.06,-0.75 c 1.147,0 2.153,-0.656 2.675,-1.685 0.136,-0.269 0.244,-0.586 0.252,-0.89 0,-0.08 0.02,-0.205 -0.02,-0.274 -0.05,-0.07 -0.161,-0.06 -0.234,-0.05 -0.225,0 -0.449,0.08 -0.655,0.173 -0.791,0.338 -1.555,1.058 -1.92,1.84 h -0.02 c 0.159,-0.665 0.05,-1.473 0.05,-2.155 1.507,0 2.795,-1.779 2.529,-3.207 -0.91,0 -1.689,0.816 -2.154,1.522 -0.158,0.238 -0.349,0.534 -0.398,0.819 h -0.02 l -0.234,-2.178 c 0.412,-0.02 0.792,-0.258 1.101,-0.513 0.802,-0.661 1.402,-1.948 1.006,-2.975 -1.205,0.155 -1.952,1.58 -2.247,2.622 -0.141,-0.446 -0.201,-0.926 -0.314,-1.381 -0.05,-0.216 -0.187,-0.481 -0.184,-0.703 0,-0.238 0.18,-0.52 0.21,-0.772 0.07,-0.578 -0.122,-1.205 -0.386,-1.71 -0.198,-0.381 -0.493,-0.751 -0.872,-0.963 -0.112,-0.06 -0.356,-0.218 -0.468,-0.08 -0.16,0.192 -0.164,0.576 -0.164,0.812 0,0.772 0.256,1.572 0.744,2.178 0.117,0.143 0.236,0.279 0.38,0.396 0.09,0.07 0.218,0.123 0.278,0.217 0.108,0.171 0.138,0.455 0.187,0.651 0.113,0.452 0.271,0.94 0.308,1.405 m 0.39,2.989 v 0.02 -0.02 m -1.866,11.833 -0.02,0.02 0.02,-0.02 m -40.719,0.02 -0.02,0.02 0.02,-0.02 m 1.405,2.67 -0.02,0.02 0.02,-0.02 m 1.733,2.505 -0.02,0.02 0.02,-0.02 m 2.014,2.271 -0.02,0.02 0.02,-0.02 m 30.393,0 -0.02,0.02 0.02,-0.02 m -2.482,1.78 -0.02,0.02 0.02,-0.02"
               id="path22431-4"
               sodipodi:nodetypes="ccccsccccccsscccccccscccccccccccscccccccccccccccccccccccscscccccccccsccccccccscccccccccccccsccccccccsscccccccccccccccssccccccccccccccccccscccccccccccccccccccccccccccccscscccssccccccccccccccccccccccccccccsccccccssccccccccccccscccccccccccccccsccccccccccccccsccccccccccccsccccccccccccccccccccccccccccccccccsccssccscccccccccccccccccccccccsccccccccsccccccccccccsccccccccccccccccccccccccccccc" />
            <path
               sodipodi:open="true"
               sodipodi:end="6.1383778"
               sodipodi:start="0"
               sodipodi:ry="1.15662"
               sodipodi:rx="1.1566432"
               sodipodi:cy="16170.113"
               sodipodi:cx="-16612.104"
               sodipodi:type="arc"
               id="path13811-7-9-1-6"
               style="display:inline;fill:#6a8888;fill-opacity:1;fill-rule:evenodd;stroke:#000000;stroke-width:0;stroke-miterlimit:4;stroke-dasharray:none;stroke-opacity:0"
               sodipodi:arc-type="arc"
               d="m -16610.947,16170.113 a 1.1566432,1.15662 0 0 1 -1.115,1.156 1.1566432,1.15662 0 0 1 -1.195,-1.072 1.1566432,1.15662 0 0 1 1.028,-1.234 1.1566432,1.15662 0 0 1 1.27,0.983" />
            <text
               id="text13815-2-4-7-4"
               y="16171.454"
               x="-16618.236"
               style="font-style:normal;font-weight:normal;font-size:5.45315px;line-height:125%;font-family:sans-serif;letter-spacing:0px;word-spacing:0px;display:inline;fill:#f9f9f9;fill-opacity:1;stroke:none;stroke-width:1.11767px;stroke-linecap:butt;stroke-linejoin:miter;stroke-opacity:1"
               xml:space="preserve"><tspan
                 dx="0.51525909 -0.51525909"
                 style="font-style:normal;font-variant:normal;font-weight:500;font-stretch:normal;font-size:8.22007px;font-family:Montserrat;-inkscape-font-specification:'Montserrat Medium';font-variant-ligatures:normal;font-variant-caps:normal;font-variant-numeric:normal;font-variant-east-asian:normal;letter-spacing:-0.545315px;fill:#f9f9f9;fill-opacity:1;stroke-width:1.11767px"
                 y="16171.454"
                 x="-16618.236"
                 id="tspan13813-7-9-7-9"
                 sodipodi:role="line">eQ</tspan></text>
            <path
               style="fill:#f9f9f9;fill-opacity:1;stroke:none;stroke-width:0.999999"
               d="m -16607.857,16134.731 c -0.411,0.05 -0.828,0.05 -1.241,0.113 -0.831,0.129 -1.666,0.397 -2.412,0.785 -4.8,2.499 -6.217,8.708 -5.446,13.68 0.536,3.455 2.555,6.838 5.844,8.292 0.753,0.333 1.551,0.541 2.365,0.653 0.803,0.11 1.607,0.119 2.412,0.02 2.838,-0.362 5.125,-2.283 6.561,-4.676 2.247,-3.745 2.581,-8.769 0.96,-12.808 -1.217,-3.033 -3.785,-5.363 -7.053,-5.911 -0.628,-0.105 -1.354,-0.227 -1.99,-0.144 m -10.139,0.06 -1.475,0.901 -3.185,1.9 -3.769,2.351 c 0.06,0.266 0.317,0.546 0.468,0.772 0.342,0.513 0.673,1.033 1.014,1.546 0.119,0.178 0.234,0.359 0.352,0.538 0.04,0.05 0.08,0.155 0.158,0.162 0.08,0 0.171,-0.08 0.232,-0.123 0.17,-0.112 0.343,-0.221 0.515,-0.329 0.708,-0.444 1.491,-0.843 2.154,-1.349 l -0.07,16.695 3.63,-0.07 0.07,-16.344 -0.05,-4.893 v -1.261 l -0.04,-0.496 m 10.49,3.573 c 0.578,0 1.155,0.08 1.709,0.251 3.538,1.061 4.53,5.208 4.306,8.469 -0.04,0.536 -0.135,1.067 -0.241,1.593 -0.139,0.688 -0.366,1.369 -0.643,2.013 -0.893,2.082 -2.631,4.024 -5.061,4.028 -0.576,0 -1.185,-0.08 -1.733,-0.258 -0.454,-0.151 -0.867,-0.366 -1.264,-0.632 -2.945,-1.973 -3.446,-6.027 -2.902,-9.249 0.116,-0.686 0.297,-1.361 0.536,-2.014 0.675,-1.848 1.903,-3.524 3.888,-4.047 0.455,-0.12 0.936,-0.154 1.405,-0.154"
               id="path22650-8"
               sodipodi:nodetypes="ccccsccscscccccscccccccccccccccccsccscsc" />
            <path
               style="fill:#ffffff;stroke:#404041;stroke-width:37.3883;stroke-linecap:butt;stroke-linejoin:miter;stroke-miterlimit:4;stroke-dasharray:none;stroke-opacity:1"
               d="m -6441.505,10898.167 89.9121,-161.414 -89.9121,-161.412 h 958.72 l -89.912,161.412 89.9118,161.414 z"
               id="path22352-3-5"
               sodipodi:nodetypes="ccccccc"
               clip-path="url(#clipPath24771)"
               transform="matrix(0.02021769,0,0,0.02021769,-16495.937,15942.486)" />
            <path
               style="fill:#ffffff;stroke:#404041;stroke-width:37.3883;stroke-linecap:butt;stroke-linejoin:miter;stroke-miterlimit:4;stroke-dasharray:none;stroke-opacity:1"
               d="m -3577.7225,10898.167 89.9121,-161.414 -89.9121,-161.412 h 958.72 l -89.912,161.412 89.9118,161.414 z"
               id="path22352-3-6"
               sodipodi:nodetypes="ccccccc"
               clip-path="url(#clipPath24767)"
               transform="matrix(0.02021769,0,0,0.02021769,-16545.109,15942.486)" />
            <path
               style="fill:#ffffff;stroke:#404041;stroke-width:0.755906;stroke-linecap:butt;stroke-linejoin:miter;stroke-miterlimit:4;stroke-dasharray:none;stroke-opacity:1"
               d="m -16623.104,16163.338 2.105,-3.78 -2.105,-3.779 h 22.448 l -2.105,3.779 2.105,3.78 z"
               id="path22352-3"
               sodipodi:nodetypes="ccccccc" />
            <g
               aria-label="ANOS"
               id="text3101-63"
               style="font-size:282.667px;line-height:1.25;fill:#404041;stroke-width:14.4028"
               transform="matrix(0.02341535,0,0,0.02341535,-16533.66,15947.707)">
              <path
                 d="m -3527.1161,9138.5642 c 0,0 0,-0.848 -1.1307,-3.9574 l -54.5547,-174.4055 c -3.392,-10.7413 -10.4587,-10.7413 -16.112,-10.7413 h -16.112 c -5.0881,0 -12.7201,0 -16.1121,10.4586 l -54.5547,174.1229 c -0.2827,1.1307 -1.1307,3.392 -1.1307,4.5227 0,7.0667 6.784,7.0667 10.7414,7.0667 h 4.5227 c 12.4373,0 14.1333,-5.088 16.112,-11.3067 l 11.872,-37.0294 h 68.4054 l 9.328,30.2454 c 4.5227,14.416 5.936,18.0907 18.3734,18.0907 h 9.6106 c 3.9574,0 10.7414,0 10.7414,-7.0667 z m -54.5547,-62.4694 h -55.4028 l 16.3947,-54.5548 c 5.088,-16.96 9.8934,-33.6373 11.024,-42.1173 h 0.2827 c 1.696,10.7413 8.7627,33.92 11.872,44.3787 z"
                 style="font-family:'Latin Modern Sans Demi Cond';-inkscape-font-specification:'Latin Modern Sans Demi Cond, Normal';stroke-width:14.4028"
                 id="path914" />
              <path
                 d="m -3348.4707,9133.1935 v -171.2962 c 0,-8.7627 -1.696,-12.4373 -12.4373,-12.4373 h -4.5227 c -9.8933,0 -12.4373,2.8266 -12.4373,12.4373 v 153.7709 h -0.2827 c -3.392,-11.0241 -5.6533,-15.8294 -11.5893,-29.9627 l -53.4241,-124.9389 c -3.9573,-9.328 -7.9147,-11.3066 -17.808,-11.3066 h -20.352 c -9.8934,0 -12.7201,2.544 -12.7201,12.72 v 170.7308 c 0,9.8934 2.544,12.7201 12.7201,12.7201 h 4.24 c 9.8933,0 12.4373,-2.8267 12.4373,-12.4374 v -153.7708 h 0.2827 c 3.392,11.024 5.6533,15.8293 11.5893,29.9627 l 53.4241,124.9388 c 3.9573,9.328 7.9147,11.3067 17.808,11.3067 h 20.6347 c 9.8933,0 12.4373,-2.8267 12.4373,-12.4374 z"
                 style="font-family:'Latin Modern Sans Demi Cond';-inkscape-font-specification:'Latin Modern Sans Demi Cond, Normal';stroke-width:14.4028"
                 id="path916" />
              <path
                 d="m -3143.5372,9048.9587 c 0,-12.1546 -0.5654,-44.6613 -16.1121,-69.536 -19.504,-31.0934 -50.5973,-35.3334 -67.2747,-35.3334 -26.8534,0 -50.8801,11.024 -64.7307,31.0934 -10.4587,15.5466 -18.6561,36.464 -18.6561,73.776 0,24.5921 3.392,54.5548 23.1787,77.4508 12.72,14.6987 34.2027,24.592 60.2081,24.592 19.7867,0 44.3787,-5.936 61.0561,-25.7227 18.9387,-22.3307 22.3307,-52.576 22.3307,-76.3201 z m -34.4854,-4.5226 c 0,17.808 -0.5653,38.4427 -8.48,57.0987 -10.7414,24.8747 -29.9627,29.1147 -40.4214,29.1147 -10.7413,0 -29.9627,-4.5227 -40.4214,-29.3974 -7.0667,-16.6773 -8.48,-34.2027 -8.48,-56.816 0,-13.8507 0,-39.0081 10.4587,-57.3814 10.176,-18.3734 26.5707,-23.1787 38.4427,-23.1787 8.7627,0 27.984,2.8267 39.2907,24.592 9.328,18.0907 9.6107,39.8561 9.6107,55.9681 z"
                 style="font-family:'Latin Modern Sans Demi Cond';-inkscape-font-specification:'Latin Modern Sans Demi Cond, Normal';stroke-width:14.4028"
                 id="path918" />
              <path
                 d="m -2994.2895,9090.5108 c 0,-9.0453 -1.1306,-25.1574 -15.264,-41.8347 -11.5893,-13.568 -24.0267,-16.6774 -39.008,-20.6347 -17.2427,-4.5227 -20.9174,-5.6533 -25.7227,-10.176 -2.8267,-3.1094 -9.328,-9.328 -9.328,-21.2 0,-20.0694 13.0026,-27.9841 30.528,-27.9841 19.7867,0 30.8107,7.9147 39.2907,15.8294 1.696,1.696 1.9787,1.9786 3.392,1.9786 2.544,0 3.1094,-2.544 3.392,-3.9573 0.848,-3.6747 3.6747,-18.0907 3.6747,-20.9174 0,-2.2613 -0.2827,-2.544 -6.784,-6.2186 -9.6107,-5.6534 -21.7654,-11.3067 -43.2481,-11.3067 -43.8134,0 -59.9254,26.5707 -59.9254,56.8161 0,22.6133 13.0027,36.464 14.416,37.8773 13.0027,13.5681 21.7654,15.8294 37.5948,19.7867 5.936,1.696 16.112,4.24 18.3733,5.088 8.48,3.392 18.9387,13.568 18.9387,29.9627 0,13.568 -5.088,31.0934 -30.2454,31.0934 -9.0453,0 -30.528,-1.9787 -50.5974,-18.9387 -3.1093,-2.8267 -3.6746,-2.8267 -4.5226,-2.8267 -2.544,0 -3.1094,2.544 -3.392,3.9574 -0.848,3.6747 -3.6747,18.0907 -3.6747,20.9173 0,2.544 0.2827,2.8267 8.1973,7.632 18.9387,11.5894 37.5947,15.5467 54.2721,15.5467 41.2694,0 59.6427,-26.0053 59.6427,-60.4907 z"
                 style="font-family:'Latin Modern Sans Demi Cond';-inkscape-font-specification:'Latin Modern Sans Demi Cond, Normal';stroke-width:14.4028"
                 id="path920" />
            </g>
          </g>
        </g>
      </g>
    </g>
  </g>
</svg>
