<?xml version="1.0" encoding="UTF-8" standalone="no"?>
<svg
   width="76mm"
   height="12mm"
   viewBox="0 0 76.000006 12.000001"
   version="1.1"
   id="svg4738"
   inkscape:version="1.1.2 (0a00cf5339, 2022-02-04)"
   sodipodi:docname="logo_slogan_PT_oficial_10anos.svg"
   xmlns:inkscape="http://www.inkscape.org/namespaces/inkscape"
   xmlns:sodipodi="http://sodipodi.sourceforge.net/DTD/sodipodi-0.dtd"
   xmlns="http://www.w3.org/2000/svg"
   xmlns:svg="http://www.w3.org/2000/svg"
   xmlns:rdf="http://www.w3.org/1999/02/22-rdf-syntax-ns#"
   xmlns:cc="http://creativecommons.org/ns#"
   xmlns:dc="http://purl.org/dc/elements/1.1/">
  <defs
     id="defs4732">
    <clipPath
       clipPathUnits="userSpaceOnUse"
       id="clipPath24771">
      <rect
         style="opacity:0.92;fill:none;fill-opacity:1;stroke:#000000;stroke-width:25;stroke-miterlimit:4;stroke-dasharray:none;paint-order:markers stroke fill"
         id="rect24773"
         width="722.98907"
         height="722.98907"
         x="-6898.2656"
         y="10375.26" />
    </clipPath>
    <clipPath
       clipPathUnits="userSpaceOnUse"
       id="clipPath24767">
      <rect
         style="opacity:0.92;fill:none;fill-opacity:1;stroke:#000000;stroke-width:25;stroke-miterlimit:4;stroke-dasharray:none;paint-order:markers stroke fill"
         id="rect24769"
         width="722.98907"
         height="722.98907"
         x="-2885.2312"
         y="10375.26" />
    </clipPath>
  </defs>
  <sodipodi:namedview
     id="base"
     pagecolor="#ffffff"
     bordercolor="#666666"
     borderopacity="1.0"
     inkscape:pageopacity="0.0"
     inkscape:pageshadow="2"
     inkscape:zoom="2"
     inkscape:cx="187.25"
     inkscape:cy="36.5"
     inkscape:document-units="mm"
     inkscape:current-layer="g855"
     showgrid="false"
     inkscape:window-width="1920"
     inkscape:window-height="1011"
     inkscape:window-x="0"
     inkscape:window-y="0"
     inkscape:window-maximized="1"
     inkscape:snap-bbox="false"
     inkscape:bbox-nodes="true"
     inkscape:bbox-paths="true"
     inkscape:snap-text-baseline="true"
     inkscape:document-rotation="0"
     inkscape:pagecheckerboard="0" />
  <metadata
     id="metadata4735">
    <rdf:RDF>
      <cc:Work
         rdf:about="">
        <dc:format>image/svg+xml</dc:format>
        <dc:type
           rdf:resource="http://purl.org/dc/dcmitype/StillImage" />
      </cc:Work>
    </rdf:RDF>
  </metadata>
  <g
     inkscape:groupmode="layer"
     id="layer2"
     inkscape:label="Layer 2"
     transform="matrix(1.3412098,0,0,1.3412098,-17.825446,-104.12495)"
     style="display:inline"
     sodipodi:insensitive="true" />
  <g
     inkscape:label="Layer 1"
     inkscape:groupmode="layer"
     id="layer1"
     transform="translate(-2.9730686,-73.170775)"
     style="display:inline">
    <text
       xml:space="preserve"
       style="font-style:normal;font-weight:normal;font-size:6.08481px;line-height:125%;font-family:sans-serif;letter-spacing:0px;word-spacing:0px;fill:#000000;fill-opacity:1;stroke:none;stroke-width:0.264583px;stroke-linecap:butt;stroke-linejoin:miter;stroke-opacity:1"
       x="52.826782"
       y="125.43476"
       id="text5289" />
    <text
       xml:space="preserve"
       style="font-style:normal;font-weight:normal;font-size:6.08481px;line-height:125%;font-family:sans-serif;letter-spacing:0px;word-spacing:0px;fill:#000000;fill-opacity:1;stroke:none;stroke-width:0.264583px;stroke-linecap:butt;stroke-linejoin:miter;stroke-opacity:1"
       x="36.689808"
       y="85.343277"
       id="text5295" />
    <text
       xml:space="preserve"
       style="font-style:normal;font-weight:normal;font-size:3.1816px;line-height:125%;font-family:sans-serif;letter-spacing:0px;word-spacing:0px;fill:#000000;fill-opacity:1;stroke:none;stroke-width:0.264583px;stroke-linecap:butt;stroke-linejoin:miter;stroke-opacity:1"
       x="24.415754"
       y="93.21981"
       id="text828" />
    <flowRoot
       xml:space="preserve"
       id="flowRoot862"
       style="font-style:normal;font-weight:normal;font-size:10.6667px;line-height:125%;font-family:sans-serif;letter-spacing:0px;word-spacing:0px;fill:#000000;fill-opacity:1;stroke:none;stroke-width:0.887046px;stroke-linecap:butt;stroke-linejoin:miter;stroke-opacity:1"
       transform="matrix(0.29827477,0,0,0.29827477,22.924381,71.816621)"><flowRegion
         id="flowRegion864"
         style="stroke-width:0.887046px"><rect
           id="rect866"
           width="268"
           height="72.5"
           x="-26"
           y="81.756653"
           style="stroke-width:0.88704562px" /></flowRegion><flowPara
         id="flowPara868"
         style="stroke-width:0.887046px" /></flowRoot>
    <flowRoot
       xml:space="preserve"
       id="flowRoot5134"
       style="font-style:normal;font-weight:normal;font-size:10.6667px;line-height:125%;font-family:sans-serif;letter-spacing:0px;word-spacing:0px;fill:#000000;fill-opacity:1;stroke:none;stroke-width:1px;stroke-linecap:butt;stroke-linejoin:miter;stroke-opacity:1"><flowRegion
         id="flowRegion5136"><rect
           id="rect5138"
           width="172"
           height="45.5"
           x="-18.5"
           y="-14.540985" /></flowRegion><flowPara
         id="flowPara5140" /></flowRoot>
    <g
       id="g869"
       transform="matrix(1.2,0,0,1.2,-14.031617,-19.504151)"
       style="stroke-width:0.833333">
      <g
         transform="translate(0.52917261)"
         id="g929"
         style="stroke-width:0.833333" />
    </g>
    <flowRoot
       xml:space="preserve"
       id="flowRoot884"
       style="font-style:normal;font-variant:normal;font-weight:normal;font-stretch:normal;font-size:10.6667px;line-height:125%;font-family:ZephyrScriptFLF;-inkscape-font-specification:ZephyrScriptFLF;letter-spacing:0px;word-spacing:0px;fill:#000000;fill-opacity:1;stroke:none;stroke-width:1px;stroke-linecap:butt;stroke-linejoin:miter;stroke-opacity:1"><flowRegion
         id="flowRegion886"><rect
           id="rect888"
           width="1975.6562"
           height="115.96551"
           x="-14.142136"
           y="-35.425209" /></flowRegion><flowPara
         id="flowPara890" /></flowRoot>
    <flowRoot
       xml:space="preserve"
       id="flowRoot892"
       style="font-style:normal;font-variant:normal;font-weight:normal;font-stretch:normal;font-size:10.6667px;line-height:125%;font-family:ZephyrScriptFLF;-inkscape-font-specification:ZephyrScriptFLF;letter-spacing:0px;word-spacing:0px;fill:#000000;fill-opacity:1;stroke:none;stroke-width:1px;stroke-linecap:butt;stroke-linejoin:miter;stroke-opacity:1"><flowRegion
         id="flowRegion894"><rect
           id="rect896"
           width="759.43268"
           height="304.05591"
           x="-73.539101"
           y="-104.01456" /></flowRegion><flowPara
         id="flowPara898" /></flowRoot>
    <g
       id="g4144">
      <g
         id="g855"
         transform="translate(0.06986203,-0.34468378)">
        <g
           id="g928">
          <g
             id="g900">
            <g
               id="g1554">
              <path
                 id="path5291"
                 style="display:inline;fill:#6a8888;fill-rule:evenodd;stroke:#000000;stroke-width:0;stroke-opacity:0"
                 d="m 12.797946,80.499969 a 1.6094203,1.6093882 0 0 1 -1.551169,1.608334 1.6094203,1.6093882 0 0 1 -1.6634545,-1.49191 1.6094203,1.6093882 0 0 1 1.4307545,-1.71633 1.6094203,1.6093882 0 0 1 1.767025,1.367669" />
              <g
                 aria-label="eQuanta"
                 id="text5285"
                 style="font-size:7.58784px;line-height:125%;letter-spacing:0px;word-spacing:0px;display:inline;stroke-width:0.295718px">
                <path
                   d="m 9.8915298,79.14784 c 0,-1.864378 -1.2467311,-3.122547 -2.9967297,-3.122547 -1.7499986,0 -3.0424813,1.292483 -3.0424813,3.088233 0,1.807188 1.3039206,3.099671 3.2598014,3.099671 1.0065352,0 1.8415018,-0.343137 2.390521,-0.98366 L 8.8964325,80.520388 c -0.4460781,0.491829 -1.0408488,0.732025 -1.7499986,0.732025 -1.2009795,0 -2.0588219,-0.70915 -2.1960767,-1.772874 H 9.868654 c 0.011438,-0.102941 0.022876,-0.240196 0.022876,-0.331699 z M 6.8948001,76.951763 c 1.0637247,0 1.8300639,0.720588 1.9444429,1.738561 H 4.9503572 c 0.114379,-1.029411 0.8921561,-1.738561 1.9444429,-1.738561 z"
                   style="font-weight:500;font-size:11.4379px;font-family:Montserrat;-inkscape-font-specification:'Montserrat, Medium';letter-spacing:-0.758784px;fill:#1a222c"
                   id="path931" />
                <path
                   d="m 17.806295,82.224635 c -0.411765,0.457516 -0.892157,0.686274 -1.464052,0.686274 -0.514705,0 -0.995097,-0.228758 -1.532678,-0.800653 1.864378,-0.43464 3.145422,-1.978757 3.145422,-3.968951 0,-2.356208 -1.807188,-4.094769 -4.24346,-4.094769 -2.459149,0 -4.266337,1.749999 -4.266337,4.094769 0,2.253266 1.669933,3.957513 3.968951,4.08333 1.120914,1.155228 1.910129,1.589868 2.916665,1.589868 0.800653,0 1.498364,-0.331699 2.01307,-0.937908 z m -7.217315,-4.08333 c 0,-1.761437 1.326796,-3.076795 3.122547,-3.076795 1.772874,0 3.09967,1.315358 3.09967,3.076795 0,1.761436 -1.326796,3.076795 -3.09967,3.076795 -1.795751,0 -3.122547,-1.315359 -3.122547,-3.076795 z"
                   style="font-weight:500;font-size:11.4379px;font-family:Montserrat;-inkscape-font-specification:'Montserrat, Medium';letter-spacing:-0.758784px;fill:#1a222c"
                   id="path933" />
                <path
                   d="m 23.338335,79.216467 c 0,1.303921 -0.732025,2.01307 -1.875815,2.01307 -1.040849,0 -1.63562,-0.59477 -1.63562,-1.784312 v -3.362742 h -1.098038 v 3.488559 c 0,1.784312 1.040849,2.642155 2.607841,2.642155 0.857842,0 1.612744,-0.354575 2.058822,-0.98366 v 0.915032 h 1.040849 v -6.062086 h -1.098039 z"
                   style="font-weight:500;font-size:11.4379px;font-family:Montserrat;-inkscape-font-specification:'Montserrat, Medium';letter-spacing:-0.758784px;fill:#1a222c"
                   id="path935" />
                <path
                   d="m 27.978219,76.025293 c -0.972221,0 -1.875815,0.27451 -2.5049,0.777777 l 0.457516,0.823529 c 0.468954,-0.400326 1.20098,-0.65196 1.921567,-0.65196 1.086601,0 1.624182,0.537581 1.624182,1.464051 v 0.21732 h -1.738561 c -1.807188,0 -2.436272,0.800653 -2.436272,1.772874 0,1.052287 0.86928,1.784313 2.241828,1.784313 0.949346,0 1.624182,-0.320261 1.990195,-0.869281 v 0.800653 h 1.040848 v -3.660127 c 0,-1.658496 -0.937907,-2.459149 -2.596403,-2.459149 z m -0.251634,5.341499 c -0.834966,0 -1.338234,-0.37745 -1.338234,-0.983659 0,-0.514706 0.308824,-0.937908 1.395424,-0.937908 h 1.692809 v 0.846405 c -0.274509,0.697712 -0.92647,1.075162 -1.749999,1.075162 z"
                   style="font-weight:500;font-size:11.4379px;font-family:Montserrat;-inkscape-font-specification:'Montserrat, Medium';letter-spacing:-0.758784px;fill:#1a222c"
                   id="path937" />
                <path
                   d="m 35.088704,76.025293 c -0.960784,0 -1.738561,0.354575 -2.184639,0.972222 v -0.915032 h -1.052287 v 6.062086 h 1.098039 v -3.122546 c 0,-1.315359 0.754901,-2.013071 1.921567,-2.013071 1.040849,0 1.63562,0.583333 1.63562,1.772875 v 3.362742 h 1.098038 V 78.65601 c 0,-1.784312 -1.040849,-2.630717 -2.516338,-2.630717 z"
                   style="font-weight:500;font-size:11.4379px;font-family:Montserrat;-inkscape-font-specification:'Montserrat, Medium';letter-spacing:-0.758784px;fill:#1a222c"
                   id="path939" />
                <path
                   d="m 41.947558,81.000779 c -0.228758,0.183007 -0.537582,0.285948 -0.857843,0.285948 -0.606208,0 -0.949345,-0.366013 -0.949345,-1.017973 v -3.282677 h 1.73856 v -0.903594 h -1.73856 v -1.326797 h -1.098039 v 1.326797 H 38.01292 v 0.903594 h 1.029411 v 3.328428 c 0,1.223856 0.697712,1.898692 1.921567,1.898692 0.49183,0 0.995098,-0.137255 1.326797,-0.423202 z"
                   style="font-weight:500;font-size:11.4379px;font-family:Montserrat;-inkscape-font-specification:'Montserrat, Medium';letter-spacing:-0.758784px;fill:#1a222c"
                   id="path941" />
                <path
                   d="m 45.066217,76.025293 c -0.972222,0 -1.875816,0.27451 -2.5049,0.777777 l 0.457516,0.823529 c 0.468954,-0.400326 1.200979,-0.65196 1.921567,-0.65196 1.0866,0 1.624182,0.537581 1.624182,1.464051 v 0.21732 h -1.738561 c -1.807188,0 -2.436273,0.800653 -2.436273,1.772874 0,1.052287 0.869281,1.784313 2.241829,1.784313 0.949345,0 1.624181,-0.320261 1.990194,-0.869281 v 0.800653 h 1.040849 v -3.660127 c 0,-1.658496 -0.937908,-2.459149 -2.596403,-2.459149 z m -0.251634,5.341499 c -0.834967,0 -1.338234,-0.37745 -1.338234,-0.983659 0,-0.514706 0.308823,-0.937908 1.395423,-0.937908 h 1.69281 v 0.846405 c -0.27451,0.697712 -0.92647,1.075162 -1.749999,1.075162 z"
                   style="font-weight:500;font-size:11.4379px;font-family:Montserrat;-inkscape-font-specification:'Montserrat, Medium';letter-spacing:-0.758784px;fill:#1a222c"
                   id="path943" />
              </g>
              <g
                 aria-label="Diligentia laborat in omnis silvae et maria"
                 id="text824"
                 style="font-size:10.1464px;line-height:125%;letter-spacing:0px;word-spacing:0px;display:inline;stroke-width:0.296">
                <path
                   d="m 19.739057,84.558937 c 0.480484,0 0.808568,-0.296334 0.808568,-0.740834 0,-0.444501 -0.328084,-0.740835 -0.808568,-0.740835 h -0.647701 v 1.481669 z m -0.372534,-1.248835 h 0.359834 c 0.330201,0 0.543984,0.201083 0.543984,0.508001 0,0.306917 -0.213783,0.508 -0.543984,0.508 h -0.359834 z"
                   style="font-weight:600;font-size:2.11667px;font-family:Montserrat;-inkscape-font-specification:'Montserrat, Semi-Bold';fill:#5a7272"
                   id="path946" />
                <path
                   d="m 20.947672,83.242368 c 0.09948,0 0.169334,-0.07197 0.169334,-0.1651 0,-0.08678 -0.07197,-0.1524 -0.169334,-0.1524 -0.09737,0 -0.169333,0.06985 -0.169333,0.15875 0,0.0889 0.07197,0.15875 0.169333,0.15875 z m 0.131234,1.316569 v -1.130302 h -0.264584 v 1.130302 z"
                   style="font-weight:600;font-size:2.11667px;font-family:Montserrat;-inkscape-font-specification:'Montserrat, Semi-Bold';fill:#5a7272"
                   id="path948" />
                <path
                   d="m 21.690622,84.558937 v -1.570569 h -0.264583 v 1.570569 z"
                   style="font-weight:600;font-size:2.11667px;font-family:Montserrat;-inkscape-font-specification:'Montserrat, Semi-Bold';fill:#5a7272"
                   id="path950" />
                <path
                   d="m 22.171106,83.242368 c 0.09948,0 0.169333,-0.07197 0.169333,-0.1651 0,-0.08678 -0.07197,-0.1524 -0.169333,-0.1524 -0.09737,0 -0.169334,0.06985 -0.169334,0.15875 0,0.0889 0.07197,0.15875 0.169334,0.15875 z m 0.131233,1.316569 v -1.130302 h -0.264584 v 1.130302 z"
                   style="font-weight:600;font-size:2.11667px;font-family:Montserrat;-inkscape-font-specification:'Montserrat, Semi-Bold';fill:#5a7272"
                   id="path952" />
                <path
                   d="m 23.519423,83.578919 c -0.09313,-0.112184 -0.232833,-0.162984 -0.391583,-0.162984 -0.323851,0 -0.571501,0.215901 -0.571501,0.543984 0,0.328084 0.24765,0.548218 0.571501,0.548218 0.1524,0 0.28575,-0.04868 0.378883,-0.150284 v 0.05927 c 0,0.228601 -0.110066,0.342901 -0.359833,0.342901 -0.156634,0 -0.317501,-0.05292 -0.416984,-0.135467 l -0.118534,0.198967 c 0.129117,0.105833 0.338667,0.160867 0.550334,0.160867 0.395817,0 0.609601,-0.186267 0.609601,-0.596901 v -0.958852 h -0.251884 z m -0.351367,0.704851 c -0.201083,0 -0.345017,-0.131234 -0.345017,-0.323851 0,-0.1905 0.143934,-0.319617 0.345017,-0.319617 0.198967,0 0.342901,0.129117 0.342901,0.319617 0,0.192617 -0.143934,0.323851 -0.342901,0.323851 z"
                   style="font-weight:600;font-size:2.11667px;font-family:Montserrat;-inkscape-font-specification:'Montserrat, Semi-Bold';fill:#5a7272"
                   id="path954" />
                <path
                   d="m 25.181006,84.000136 c 0,-0.353484 -0.241301,-0.584201 -0.571501,-0.584201 -0.336551,0 -0.584201,0.241301 -0.584201,0.577851 0,0.336551 0.245534,0.579968 0.624418,0.579968 0.194733,0 0.353483,-0.0635 0.455084,-0.184151 L 24.962989,84.22662 c -0.08043,0.08255 -0.179917,0.122767 -0.306917,0.122767 -0.196851,0 -0.334434,-0.105834 -0.366184,-0.270934 h 0.886884 c 0.0021,-0.0254 0.0042,-0.05715 0.0042,-0.07832 z m -0.571501,-0.372534 c 0.173567,0 0.29845,0.112184 0.319617,0.275167 h -0.641351 c 0.0254,-0.1651 0.150284,-0.275167 0.321734,-0.275167 z"
                   style="font-weight:600;font-size:2.11667px;font-family:Montserrat;-inkscape-font-specification:'Montserrat, Semi-Bold';fill:#5a7272"
                   id="path956" />
                <path
                   d="m 26.076357,83.415935 c -0.1651,0 -0.302684,0.05503 -0.389468,0.158751 v -0.146051 h -0.251883 v 1.130302 h 0.264584 v -0.571501 c 0,-0.226483 0.127,-0.340784 0.315383,-0.340784 0.169334,0 0.268817,0.09737 0.268817,0.298451 v 0.613834 h 0.264584 v -0.647701 c 0,-0.340784 -0.201083,-0.495301 -0.472017,-0.495301 z"
                   style="font-weight:600;font-size:2.11667px;font-family:Montserrat;-inkscape-font-specification:'Montserrat, Semi-Bold';fill:#5a7272"
                   id="path958" />
                <path
                   d="m 27.490291,84.30917 c -0.04022,0.03175 -0.09313,0.04657 -0.148167,0.04657 -0.1016,0 -0.156633,-0.05927 -0.156633,-0.169334 v -0.537634 h 0.302683 v -0.211667 h -0.302683 v -0.258234 h -0.264584 v 0.258234 H 26.73464 v 0.211667 h 0.186267 v 0.543984 c 0,0.249767 0.141817,0.381001 0.389467,0.381001 0.09525,0 0.190501,-0.0254 0.254001,-0.0762 z"
                   style="font-weight:600;font-size:2.11667px;font-family:Montserrat;-inkscape-font-specification:'Montserrat, Semi-Bold';fill:#5a7272"
                   id="path960" />
                <path
                   d="m 27.915741,83.242368 c 0.09948,0 0.169334,-0.07197 0.169334,-0.1651 0,-0.08678 -0.07197,-0.1524 -0.169334,-0.1524 -0.09737,0 -0.169334,0.06985 -0.169334,0.15875 0,0.0889 0.07197,0.15875 0.169334,0.15875 z m 0.131233,1.316569 v -1.130302 h -0.264583 v 1.130302 z"
                   style="font-weight:600;font-size:2.11667px;font-family:Montserrat;-inkscape-font-specification:'Montserrat, Semi-Bold';fill:#5a7272"
                   id="path962" />
                <path
                   d="m 28.825909,83.415935 c -0.182034,0 -0.357718,0.04657 -0.478368,0.139701 l 0.103717,0.192617 c 0.08467,-0.06985 0.2159,-0.112184 0.342901,-0.112184 0.188383,0 0.281517,0.09102 0.281517,0.245534 v 0.01693 h -0.292101 c -0.3429,0 -0.469901,0.148167 -0.469901,0.336551 0,0.19685 0.162984,0.338667 0.421218,0.338667 0.169333,0 0.2921,-0.05503 0.3556,-0.1524 v 0.137583 h 0.249767 v -0.662518 c 0,-0.325967 -0.188383,-0.480484 -0.51435,-0.480484 z m -0.03598,0.965202 c -0.135467,0 -0.2159,-0.06138 -0.2159,-0.156634 0,-0.08255 0.04868,-0.150283 0.2286,-0.150283 h 0.273051 v 0.131233 c -0.04445,0.116417 -0.156634,0.175684 -0.285751,0.175684 z"
                   style="font-weight:600;font-size:2.11667px;font-family:Montserrat;-inkscape-font-specification:'Montserrat, Semi-Bold';fill:#5a7272"
                   id="path964" />
                <path
                   d="m 30.527705,84.558937 v -1.570569 h -0.264583 v 1.570569 z"
                   style="font-weight:600;font-size:2.11667px;font-family:Montserrat;-inkscape-font-specification:'Montserrat, Semi-Bold';fill:#5a7272"
                   id="path966" />
                <path
                   d="m 31.30664,83.415935 c -0.182034,0 -0.357718,0.04657 -0.478368,0.139701 l 0.103717,0.192617 c 0.08467,-0.06985 0.2159,-0.112184 0.342901,-0.112184 0.188383,0 0.281517,0.09102 0.281517,0.245534 v 0.01693 h -0.292101 c -0.3429,0 -0.469901,0.148167 -0.469901,0.336551 0,0.19685 0.162984,0.338667 0.421218,0.338667 0.169333,0 0.2921,-0.05503 0.3556,-0.1524 v 0.137583 h 0.249767 v -0.662518 c 0,-0.325967 -0.188383,-0.480484 -0.51435,-0.480484 z m -0.03598,0.965202 c -0.135467,0 -0.2159,-0.06138 -0.2159,-0.156634 0,-0.08255 0.04868,-0.150283 0.2286,-0.150283 h 0.273051 v 0.131233 c -0.04445,0.116417 -0.156634,0.175684 -0.285751,0.175684 z"
                   style="font-weight:600;font-size:2.11667px;font-family:Montserrat;-inkscape-font-specification:'Montserrat, Semi-Bold';fill:#5a7272"
                   id="path968" />
                <path
                   d="m 32.786188,83.415935 c -0.143933,0 -0.270934,0.04868 -0.36195,0.150284 v -0.577851 h -0.264584 v 1.570569 h 0.251883 v -0.14605 c 0.0889,0.10795 0.220134,0.160867 0.374651,0.160867 0.330201,0 0.573618,-0.228601 0.573618,-0.579968 0,-0.351367 -0.243417,-0.577851 -0.573618,-0.577851 z m -0.02963,0.931335 c -0.190501,0 -0.336551,-0.137583 -0.336551,-0.353484 0,-0.2159 0.14605,-0.353484 0.336551,-0.353484 0.1905,0 0.334434,0.137584 0.334434,0.353484 0,0.215901 -0.143934,0.353484 -0.334434,0.353484 z"
                   style="font-weight:600;font-size:2.11667px;font-family:Montserrat;-inkscape-font-specification:'Montserrat, Semi-Bold';fill:#5a7272"
                   id="path970" />
                <path
                   d="m 34.119688,84.573754 c 0.351367,0 0.603251,-0.241301 0.603251,-0.579968 0,-0.338667 -0.251884,-0.577851 -0.603251,-0.577851 -0.347134,0 -0.601135,0.239184 -0.601135,0.577851 0,0.338667 0.254001,0.579968 0.601135,0.579968 z m 0,-0.226484 c -0.190501,0 -0.334434,-0.137583 -0.334434,-0.353484 0,-0.2159 0.143933,-0.353484 0.334434,-0.353484 0.192617,0 0.33655,0.137584 0.33655,0.353484 0,0.215901 -0.143933,0.353484 -0.33655,0.353484 z"
                   style="font-weight:600;font-size:2.11667px;font-family:Montserrat;-inkscape-font-specification:'Montserrat, Semi-Bold';fill:#5a7272"
                   id="path972" />
                <path
                   d="m 35.22882,83.428635 h -0.251884 v 1.130302 H 35.24152 V 84.01072 c 0,-0.230717 0.127,-0.349251 0.328084,-0.349251 0.01905,0 0.0381,0.0021 0.06138,0.0063 v -0.251884 c -0.188383,0 -0.325967,0.05927 -0.402167,0.177801 z"
                   style="font-weight:600;font-size:2.11667px;font-family:Montserrat;-inkscape-font-specification:'Montserrat, Semi-Bold';fill:#5a7272"
                   id="path974" />
                <path
                   d="m 36.206715,83.415935 c -0.182034,0 -0.357718,0.04657 -0.478368,0.139701 l 0.103717,0.192617 c 0.08467,-0.06985 0.2159,-0.112184 0.342901,-0.112184 0.188383,0 0.281517,0.09102 0.281517,0.245534 v 0.01693 h -0.292101 c -0.3429,0 -0.469901,0.148167 -0.469901,0.336551 0,0.19685 0.162984,0.338667 0.421218,0.338667 0.169333,0 0.2921,-0.05503 0.3556,-0.1524 v 0.137583 h 0.249767 v -0.662518 c 0,-0.325967 -0.188383,-0.480484 -0.51435,-0.480484 z m -0.03598,0.965202 c -0.135467,0 -0.2159,-0.06138 -0.2159,-0.156634 0,-0.08255 0.04868,-0.150283 0.2286,-0.150283 h 0.273051 v 0.131233 c -0.04445,0.116417 -0.156634,0.175684 -0.285751,0.175684 z"
                   style="font-weight:600;font-size:2.11667px;font-family:Montserrat;-inkscape-font-specification:'Montserrat, Semi-Bold';fill:#5a7272"
                   id="path976" />
                <path
                   d="m 37.665096,84.30917 c -0.04022,0.03175 -0.09313,0.04657 -0.148167,0.04657 -0.1016,0 -0.156633,-0.05927 -0.156633,-0.169334 v -0.537634 h 0.302684 v -0.211667 h -0.302684 v -0.258234 h -0.264584 v 0.258234 h -0.186267 v 0.211667 h 0.186267 v 0.543984 c 0,0.249767 0.141817,0.381001 0.389467,0.381001 0.09525,0 0.190501,-0.0254 0.254001,-0.0762 z"
                   style="font-weight:600;font-size:2.11667px;font-family:Montserrat;-inkscape-font-specification:'Montserrat, Semi-Bold';fill:#5a7272"
                   id="path978" />
                <path
                   d="m 38.674746,83.242368 c 0.09948,0 0.169333,-0.07197 0.169333,-0.1651 0,-0.08678 -0.07197,-0.1524 -0.169333,-0.1524 -0.09737,0 -0.169334,0.06985 -0.169334,0.15875 0,0.0889 0.07197,0.15875 0.169334,0.15875 z m 0.131233,1.316569 v -1.130302 h -0.264584 v 1.130302 z"
                   style="font-weight:600;font-size:2.11667px;font-family:Montserrat;-inkscape-font-specification:'Montserrat, Semi-Bold';fill:#5a7272"
                   id="path980" />
                <path
                   d="m 39.794464,83.415935 c -0.165101,0 -0.302684,0.05503 -0.389468,0.158751 v -0.146051 h -0.251883 v 1.130302 h 0.264583 v -0.571501 c 0,-0.226483 0.127,-0.340784 0.315384,-0.340784 0.169334,0 0.268817,0.09737 0.268817,0.298451 v 0.613834 h 0.264584 v -0.647701 c 0,-0.340784 -0.201084,-0.495301 -0.472017,-0.495301 z"
                   style="font-weight:600;font-size:2.11667px;font-family:Montserrat;-inkscape-font-specification:'Montserrat, Semi-Bold';fill:#5a7272"
                   id="path982" />
                <path
                   d="m 41.69523,84.573754 c 0.351367,0 0.603251,-0.241301 0.603251,-0.579968 0,-0.338667 -0.251884,-0.577851 -0.603251,-0.577851 -0.347134,0 -0.601134,0.239184 -0.601134,0.577851 0,0.338667 0.254,0.579968 0.601134,0.579968 z m 0,-0.226484 c -0.1905,0 -0.334434,-0.137583 -0.334434,-0.353484 0,-0.2159 0.143934,-0.353484 0.334434,-0.353484 0.192617,0 0.336551,0.137584 0.336551,0.353484 0,0.215901 -0.143934,0.353484 -0.336551,0.353484 z"
                   style="font-weight:600;font-size:2.11667px;font-family:Montserrat;-inkscape-font-specification:'Montserrat, Semi-Bold';fill:#5a7272"
                   id="path984" />
                <path
                   d="m 43.979114,83.415935 c -0.179917,0 -0.332317,0.07197 -0.423334,0.188384 -0.07832,-0.127 -0.2159,-0.188384 -0.381,-0.188384 -0.154517,0 -0.285751,0.05503 -0.370417,0.156634 v -0.143934 h -0.251884 v 1.130302 h 0.264584 V 83.98532 c 0,-0.224367 0.118533,-0.338668 0.294217,-0.338668 0.160867,0 0.254,0.09737 0.254,0.298451 v 0.613834 h 0.264584 V 83.98532 c 0,-0.224367 0.12065,-0.338668 0.294217,-0.338668 0.160867,0 0.254,0.09737 0.254,0.298451 v 0.613834 h 0.264584 v -0.647701 c 0,-0.340784 -0.1905,-0.495301 -0.463551,-0.495301 z"
                   style="font-weight:600;font-size:2.11667px;font-family:Montserrat;-inkscape-font-specification:'Montserrat, Semi-Bold';fill:#5a7272"
                   id="path986" />
                <path
                   d="m 45.422681,83.415935 c -0.1651,0 -0.302684,0.05503 -0.389467,0.158751 V 83.428635 H 44.78133 v 1.130302 h 0.264584 v -0.571501 c 0,-0.226483 0.127,-0.340784 0.315384,-0.340784 0.169333,0 0.268817,0.09737 0.268817,0.298451 v 0.613834 h 0.264584 v -0.647701 c 0,-0.340784 -0.201084,-0.495301 -0.472018,-0.495301 z"
                   style="font-weight:600;font-size:2.11667px;font-family:Montserrat;-inkscape-font-specification:'Montserrat, Semi-Bold';fill:#5a7272"
                   id="path988" />
                <path
                   d="m 46.364599,83.242368 c 0.09948,0 0.169334,-0.07197 0.169334,-0.1651 0,-0.08678 -0.07197,-0.1524 -0.169334,-0.1524 -0.09737,0 -0.169333,0.06985 -0.169333,0.15875 0,0.0889 0.07197,0.15875 0.169333,0.15875 z m 0.131234,1.316569 v -1.130302 h -0.264584 v 1.130302 z"
                   style="font-weight:600;font-size:2.11667px;font-family:Montserrat;-inkscape-font-specification:'Montserrat, Semi-Bold';fill:#5a7272"
                   id="path990" />
                <path
                   d="m 47.192215,84.573754 c 0.3175,0 0.512234,-0.137584 0.512234,-0.349251 0,-0.442384 -0.698501,-0.239183 -0.698501,-0.467784 0,-0.07408 0.0762,-0.127 0.237067,-0.127 0.10795,0 0.2159,0.02117 0.32385,0.08467 l 0.101601,-0.201084 c -0.101601,-0.06138 -0.273051,-0.09737 -0.423334,-0.09737 -0.304801,0 -0.497418,0.139701 -0.497418,0.353484 0,0.450851 0.698501,0.247651 0.698501,0.463551 0,0.07832 -0.06985,0.124883 -0.237067,0.124883 -0.141817,0 -0.294217,-0.04657 -0.3937,-0.112183 l -0.101601,0.201084 c 0.101601,0.07197 0.289984,0.127 0.478368,0.127 z"
                   style="font-weight:600;font-size:2.11667px;font-family:Montserrat;-inkscape-font-specification:'Montserrat, Semi-Bold';fill:#5a7272"
                   id="path992" />
                <path
                   d="m 48.866499,84.573754 c 0.3175,0 0.512234,-0.137584 0.512234,-0.349251 0,-0.442384 -0.698501,-0.239183 -0.698501,-0.467784 0,-0.07408 0.0762,-0.127 0.237067,-0.127 0.10795,0 0.2159,0.02117 0.32385,0.08467 l 0.101601,-0.201084 c -0.101601,-0.06138 -0.273051,-0.09737 -0.423334,-0.09737 -0.304801,0 -0.497418,0.139701 -0.497418,0.353484 0,0.450851 0.698501,0.247651 0.698501,0.463551 0,0.07832 -0.06985,0.124883 -0.237067,0.124883 -0.141817,0 -0.294217,-0.04657 -0.3937,-0.112183 l -0.101601,0.201084 c 0.101601,0.07197 0.289984,0.127 0.478368,0.127 z"
                   style="font-weight:600;font-size:2.11667px;font-family:Montserrat;-inkscape-font-specification:'Montserrat, Semi-Bold';fill:#5a7272"
                   id="path994" />
                <path
                   d="m 49.740683,83.242368 c 0.09948,0 0.169333,-0.07197 0.169333,-0.1651 0,-0.08678 -0.07197,-0.1524 -0.169333,-0.1524 -0.09737,0 -0.169334,0.06985 -0.169334,0.15875 0,0.0889 0.07197,0.15875 0.169334,0.15875 z m 0.131233,1.316569 v -1.130302 h -0.264584 v 1.130302 z"
                   style="font-weight:600;font-size:2.11667px;font-family:Montserrat;-inkscape-font-specification:'Montserrat, Semi-Bold';fill:#5a7272"
                   id="path996" />
                <path
                   d="m 50.483631,84.558937 v -1.570569 h -0.264583 v 1.570569 z"
                   style="font-weight:600;font-size:2.11667px;font-family:Montserrat;-inkscape-font-specification:'Montserrat, Semi-Bold';fill:#5a7272"
                   id="path998" />
                <path
                   d="m 51.273149,84.266837 -0.351367,-0.838202 h -0.275167 l 0.484717,1.130302 h 0.27305 L 51.8891,83.428635 h -0.254001 z"
                   style="font-weight:600;font-size:2.11667px;font-family:Montserrat;-inkscape-font-specification:'Montserrat, Semi-Bold';fill:#5a7272"
                   id="path1000" />
                <path
                   d="m 52.450016,83.415935 c -0.182034,0 -0.357717,0.04657 -0.478367,0.139701 l 0.103716,0.192617 c 0.08467,-0.06985 0.215901,-0.112184 0.342901,-0.112184 0.188384,0 0.281517,0.09102 0.281517,0.245534 v 0.01693 h -0.2921 c -0.342901,0 -0.469901,0.148167 -0.469901,0.336551 0,0.19685 0.162983,0.338667 0.421217,0.338667 0.169334,0 0.292101,-0.05503 0.355601,-0.1524 v 0.137583 h 0.249767 v -0.662518 c 0,-0.325967 -0.188384,-0.480484 -0.514351,-0.480484 z m -0.03598,0.965202 c -0.135467,0 -0.215901,-0.06138 -0.215901,-0.156634 0,-0.08255 0.04868,-0.150283 0.228601,-0.150283 h 0.27305 v 0.131233 c -0.04445,0.116417 -0.156634,0.175684 -0.28575,0.175684 z"
                   style="font-weight:600;font-size:2.11667px;font-family:Montserrat;-inkscape-font-specification:'Montserrat, Semi-Bold';fill:#5a7272"
                   id="path1002" />
                <path
                   d="m 54.367714,84.000136 c 0,-0.353484 -0.241301,-0.584201 -0.571501,-0.584201 -0.336551,0 -0.584201,0.241301 -0.584201,0.577851 0,0.336551 0.245534,0.579968 0.624418,0.579968 0.194733,0 0.353483,-0.0635 0.455084,-0.184151 L 54.149697,84.22662 c -0.08043,0.08255 -0.179917,0.122767 -0.306917,0.122767 -0.196851,0 -0.334434,-0.105834 -0.366184,-0.270934 h 0.886884 c 0.0021,-0.0254 0.0042,-0.05715 0.0042,-0.07832 z m -0.571501,-0.372534 c 0.173567,0 0.29845,0.112184 0.319617,0.275167 h -0.641351 c 0.0254,-0.1651 0.150284,-0.275167 0.321734,-0.275167 z"
                   style="font-weight:600;font-size:2.11667px;font-family:Montserrat;-inkscape-font-specification:'Montserrat, Semi-Bold';fill:#5a7272"
                   id="path1004" />
                <path
                   d="m 56.268482,84.000136 c 0,-0.353484 -0.2413,-0.584201 -0.571501,-0.584201 -0.33655,0 -0.584201,0.241301 -0.584201,0.577851 0,0.336551 0.245534,0.579968 0.624418,0.579968 0.194733,0 0.353484,-0.0635 0.455084,-0.184151 L 56.050465,84.22662 c -0.08043,0.08255 -0.179917,0.122767 -0.306917,0.122767 -0.19685,0 -0.334434,-0.105834 -0.366184,-0.270934 h 0.886885 c 0.0021,-0.0254 0.0042,-0.05715 0.0042,-0.07832 z m -0.571501,-0.372534 c 0.173567,0 0.298451,0.112184 0.319617,0.275167 h -0.641351 c 0.0254,-0.1651 0.150284,-0.275167 0.321734,-0.275167 z"
                   style="font-weight:600;font-size:2.11667px;font-family:Montserrat;-inkscape-font-specification:'Montserrat, Semi-Bold';fill:#5a7272"
                   id="path1006" />
                <path
                   d="m 57.127848,84.30917 c -0.04022,0.03175 -0.09313,0.04657 -0.148167,0.04657 -0.1016,0 -0.156634,-0.05927 -0.156634,-0.169334 v -0.537634 h 0.302684 v -0.211667 h -0.302684 v -0.258234 h -0.264583 v 0.258234 h -0.186267 v 0.211667 h 0.186267 v 0.543984 c 0,0.249767 0.141816,0.381001 0.389467,0.381001 0.09525,0 0.1905,-0.0254 0.254,-0.0762 z"
                   style="font-weight:600;font-size:2.11667px;font-family:Montserrat;-inkscape-font-specification:'Montserrat, Semi-Bold';fill:#5a7272"
                   id="path1008" />
                <path
                   d="m 59.430782,83.415935 c -0.179917,0 -0.332317,0.07197 -0.423334,0.188384 -0.07832,-0.127 -0.2159,-0.188384 -0.381,-0.188384 -0.154517,0 -0.285751,0.05503 -0.370418,0.156634 v -0.143934 h -0.251883 v 1.130302 H 58.26873 V 83.98532 c 0,-0.224367 0.118534,-0.338668 0.294218,-0.338668 0.160866,0 0.254,0.09737 0.254,0.298451 v 0.613834 h 0.264584 V 83.98532 c 0,-0.224367 0.12065,-0.338668 0.294217,-0.338668 0.160867,0 0.254,0.09737 0.254,0.298451 v 0.613834 h 0.264584 v -0.647701 c 0,-0.340784 -0.1905,-0.495301 -0.463551,-0.495301 z"
                   style="font-weight:600;font-size:2.11667px;font-family:Montserrat;-inkscape-font-specification:'Montserrat, Semi-Bold';fill:#5a7272"
                   id="path1010" />
                <path
                   d="m 60.664799,83.415935 c -0.182034,0 -0.357718,0.04657 -0.478368,0.139701 l 0.103717,0.192617 c 0.08467,-0.06985 0.2159,-0.112184 0.342901,-0.112184 0.188383,0 0.281517,0.09102 0.281517,0.245534 v 0.01693 h -0.292101 c -0.3429,0 -0.4699,0.148167 -0.4699,0.336551 0,0.19685 0.162983,0.338667 0.421217,0.338667 0.169333,0 0.2921,-0.05503 0.3556,-0.1524 v 0.137583 h 0.249767 v -0.662518 c 0,-0.325967 -0.188383,-0.480484 -0.51435,-0.480484 z m -0.03598,0.965202 c -0.135467,0 -0.2159,-0.06138 -0.2159,-0.156634 0,-0.08255 0.04868,-0.150283 0.2286,-0.150283 h 0.273051 v 0.131233 c -0.04445,0.116417 -0.156634,0.175684 -0.285751,0.175684 z"
                   style="font-weight:600;font-size:2.11667px;font-family:Montserrat;-inkscape-font-specification:'Montserrat, Semi-Bold';fill:#5a7272"
                   id="path1012" />
                <path
                   d="m 61.769698,83.428635 h -0.251883 v 1.130302 h 0.264583 V 84.01072 c 0,-0.230717 0.127001,-0.349251 0.328084,-0.349251 0.01905,0 0.0381,0.0021 0.06138,0.0063 v -0.251884 c -0.188384,0 -0.325967,0.05927 -0.402168,0.177801 z"
                   style="font-weight:600;font-size:2.11667px;font-family:Montserrat;-inkscape-font-specification:'Montserrat, Semi-Bold';fill:#5a7272"
                   id="path1014" />
                <path
                   d="m 62.529575,83.242368 c 0.09948,0 0.169334,-0.07197 0.169334,-0.1651 0,-0.08678 -0.07197,-0.1524 -0.169334,-0.1524 -0.09737,0 -0.169333,0.06985 -0.169333,0.15875 0,0.0889 0.07197,0.15875 0.169333,0.15875 z m 0.131234,1.316569 v -1.130302 h -0.264584 v 1.130302 z"
                   style="font-weight:600;font-size:2.11667px;font-family:Montserrat;-inkscape-font-specification:'Montserrat, Semi-Bold';fill:#5a7272"
                   id="path1016" />
                <path
                   d="m 63.439743,83.415935 c -0.182034,0 -0.357717,0.04657 -0.478367,0.139701 l 0.103716,0.192617 c 0.08467,-0.06985 0.215901,-0.112184 0.342901,-0.112184 0.188384,0 0.281517,0.09102 0.281517,0.245534 v 0.01693 h -0.2921 c -0.342901,0 -0.469901,0.148167 -0.469901,0.336551 0,0.19685 0.162983,0.338667 0.421217,0.338667 0.169334,0 0.292101,-0.05503 0.355601,-0.1524 v 0.137583 h 0.249767 v -0.662518 c 0,-0.325967 -0.188384,-0.480484 -0.514351,-0.480484 z m -0.03598,0.965202 c -0.135467,0 -0.215901,-0.06138 -0.215901,-0.156634 0,-0.08255 0.04868,-0.150283 0.228601,-0.150283 h 0.27305 v 0.131233 c -0.04445,0.116417 -0.156634,0.175684 -0.28575,0.175684 z"
                   style="font-weight:600;font-size:2.11667px;font-family:Montserrat;-inkscape-font-specification:'Montserrat, Semi-Bold';fill:#5a7272"
                   id="path1018" />
              </g>
            </g>
            <g
               id="g912"
               transform="translate(-5.2916663,-0.85537065)">
              <g
                 id="g860"
                 transform="matrix(0.26458333,0,0,0.26458333,4471.9153,-4193.4924)">
                <g
                   id="g971">
                  <g
                     id="g954">
                    <g
                       id="g1395"
                       transform="matrix(0.10585935,0,0,0.10585935,-13762.147,13677.028)"
                       style="stroke-width:9.4465">
                      <g
                         id="g1547"
                         transform="translate(-2340.7386,-304.98163)">
                        <path
                           style="display:inline;fill:#6a8888;fill-opacity:1;stroke:none;stroke-width:9.44649"
                           d="m -24790.398,23566.029 h -0.222 c -0.38,-2.829 -1.552,-5.649 -2.82,-8.184 -3.59,-7.178 -9.854,-15.705 -18.414,-16.811 -2.68,9.824 1.062,19.678 8.184,26.765 3.063,3.048 7.244,5.999 11.723,6.193 l -1.991,20.35 c -1.057,-1.175 -1.524,-3.024 -2.28,-4.424 -1.566,-2.895 -3.455,-5.769 -5.702,-8.184 -3.25,-3.495 -7.003,-6.649 -11.483,-8.421 -1.038,-0.411 -3.954,-1.542 -4.88,-0.515 -0.556,0.619 -0.407,1.758 -0.462,2.521 -0.191,2.641 0.305,5.218 1.046,7.742 2.838,9.666 12.487,19.658 23.098,19.686 l 0.442,20.571 h -0.221 c -0.661,-2.289 -2.351,-4.348 -3.807,-6.193 -3.8,-4.818 -8.56,-8.711 -14.11,-11.33 -1.905,-0.9 -4.082,-1.555 -6.193,-1.701 -0.63,-0.04 -1.75,-0.203 -2.215,0.334 -0.691,0.803 -0.447,2.46 -0.311,3.407 0.391,2.729 1.117,5.273 2.36,7.742 4.865,9.668 14.393,15.925 25.161,15.925 l 2.654,20.35 h -0.221 c -1.024,-2.701 -3.641,-4.997 -5.751,-6.868 -6.258,-5.552 -14.221,-9.918 -22.783,-8.837 0,13.792 16.997,27.167 30.525,23.668 0.55,6.742 3.572,13.354 5.087,19.908 h -0.221 c -1.265,-2.715 -4.813,-5.114 -7.299,-6.678 -6.877,-4.32 -14.639,-7.351 -22.783,-5.488 0,4.218 2.37,7.739 5.027,10.838 6.546,7.634 18.105,12.266 27.93,9.069 l 7.521,19.023 c -6.308,-5.806 -14.439,-8.587 -22.783,-9.576 -2.218,-0.261 -4.481,-0.07 -6.636,0.542 -0.716,0.202 -1.802,0.48 -2.013,1.314 -0.223,0.896 0.472,2.086 0.854,2.854 1.288,2.577 3.188,4.886 5.362,6.762 7.085,6.12 19.89,10.778 28.755,5.624 l 9.733,17.696 c -7.342,-4.495 -15.269,-6.844 -23.889,-6.634 -2.126,0.05 -4.471,0.562 -6.415,1.423 -0.632,0.281 -1.621,0.69 -1.741,1.471 -0.128,0.844 0.671,1.957 1.093,2.634 1.458,2.345 3.506,4.276 5.736,5.877 6.631,4.769 15.642,6.884 23.667,5.087 2.336,-0.522 4.229,-1.731 6.415,-2.559 2.249,5.935 7.83,11.261 11.502,16.369 -7.806,-3.245 -16.081,-5.223 -24.553,-3.626 -1.774,0.334 -7.505,1.467 -7.584,3.849 -0.03,0.942 0.891,1.986 1.457,2.652 1.801,2.115 4.095,3.886 6.57,5.141 9.938,5.043 20.562,4.41 29.861,-1.381 3.019,5.822 9.547,9.532 13.271,14.82 -3.946,-1.283 -7.996,-2.212 -12.165,-2.212 -2.836,0 -5.601,0.07 -8.405,0.54 -3.108,0.522 -6.424,1.482 -9.069,3.243 -0.761,0.506 -2.316,1.575 -2.201,2.632 0.1,0.896 1.137,1.812 1.76,2.369 1.982,1.767 4.387,3.132 6.855,4.088 7.076,2.74 15.256,2.902 22.341,0.09 2.501,-0.993 5.777,-2.515 7.078,-4.999 l 10.175,8.793 5.751,4.258 v 0.221 c -8.576,-1.155 -16.641,-1.285 -24.774,2.212 -1.962,0.845 -3.986,2.061 -5.521,3.559 -0.524,0.511 -1.444,1.367 -1.236,2.192 0.71,2.831 6.567,4.567 8.969,5.304 7.087,2.168 15.331,1.139 21.898,-2.152 2.699,-1.354 5.669,-3.267 7.078,-6.028 l 17.253,10.839 v 0.221 c -7.925,-1.002 -17.31,0.699 -24.11,5.021 -2.559,1.626 -5.514,3.641 -6.414,6.702 8.37,6.183 20.062,5.419 28.976,0.712 3.289,-1.736 7.525,-4.707 8.627,-8.454 6.04,2.529 12.055,7.689 18.58,8.848 v 0.221 c -7.917,0.104 -16.132,2.776 -22.562,7.395 -1.98,1.42 -3.826,3.161 -5.154,5.213 -0.442,0.686 -1.205,1.748 -0.895,2.613 0.741,2.088 5.739,2.698 7.598,2.88 7.732,0.752 15.395,-1.334 21.676,-5.97 2.215,-1.633 4.121,-3.612 5.597,-5.937 0.747,-1.175 0.946,-2.84 2.588,-2.655 l 0.884,-2.211 -1.106,-0.443 c 3.013,-8.921 0.872,-19.155 -3.731,-27.207 -1.228,-2.145 -4.546,-7.279 -7.53,-6.961 -0.789,0.09 -1.196,1.033 -1.508,1.653 -0.953,1.9 -1.498,4.092 -1.765,6.193 -1.022,7.999 1.269,17.138 7.014,23.004 l -18.359,-8.847 c 4.868,-7.45 3.114,-20.295 -0.611,-27.871 -1.011,-2.055 -3.483,-7.361 -6.246,-7.357 -2.318,0 -3.869,5.601 -4.318,7.357 -2.017,7.87 -0.73,17.023 4.097,23.668 -4.223,-2.247 -8.207,-4.999 -12.166,-7.669 -1.06,-0.714 -3.732,-1.962 -4.165,-3.207 -0.27,-0.774 0.794,-1.947 1.117,-2.617 0.938,-1.955 1.568,-4.07 1.986,-6.193 1.522,-7.769 1.323,-19.866 -4.698,-25.871 -3.364,-3.358 -6.264,4.236 -7.142,6.848 -2.418,7.189 -2.27,16.116 1.621,22.783 l -10.175,-8.22 -5.308,-4.388 c 1.139,-1.978 2.632,-3.632 3.57,-5.751 3.919,-8.865 5.381,-23.281 -2.022,-30.746 h -0.221 c -9.518,7.554 -10.264,19.885 -7.3,30.746 h -0.221 l -4.846,-5.309 -8.647,-9.511 v -0.221 c 7.472,-5.262 9.392,-17.231 9.291,-25.659 -0.03,-2.406 -0.534,-8.549 -3.164,-9.697 -0.71,-0.309 -1.594,0.421 -2.145,0.794 -1.84,1.25 -3.296,2.9 -4.579,4.701 -4.749,6.662 -6.722,15.727 -4.49,23.667 l -7.835,-10.396 -4.109,-6.414 c 2.501,-0.949 4.286,-3.4 5.755,-5.53 3.873,-5.612 6.629,-12.801 6.631,-19.686 0,-2.396 0.33,-7.03 -1.855,-8.711 -1.885,-1.451 -6.304,3.112 -7.426,4.287 -6.096,6.383 -7.598,14.373 -7.529,22.783 h -0.221 l -9.512,-17.696 c 2.458,-0.71 4.448,-2.636 6.191,-4.424 4.811,-4.934 7.919,-11.875 9.249,-18.58 0.486,-2.448 0.57,-4.848 0.04,-7.299 -0.158,-0.717 -0.357,-1.986 -1.027,-2.418 -0.621,-0.402 -1.681,0.137 -2.289,0.361 -2.026,0.736 -3.895,1.995 -5.53,3.384 -4.457,3.793 -7.578,8.983 -9.162,14.599 -0.601,2.132 -1.256,4.875 -0.792,7.078 l -2.621,-5.53 -5.12,-13.271 c 8.863,-2.889 15.47,-12.412 18.131,-21.014 0.747,-2.413 0.951,-4.784 0.889,-7.299 -0.02,-0.754 -0.06,-2.175 -0.774,-2.639 -1.754,-1.135 -6.393,1.798 -7.85,2.683 -6.576,3.993 -12.666,12.586 -12.83,20.527 h -0.221 l -5.087,-19.686 c 3.291,-0.144 6.268,-2.177 8.848,-4.046 7.018,-5.085 14.996,-15.198 13.271,-24.488 -10.695,0 -22.099,10.179 -23.668,20.792 h -0.221 l -2.654,-20.35 c 9.036,-0.02 18.476,-8.571 22.721,-15.926 1.752,-3.039 3.152,-6.156 2.716,-9.732 -10.341,-1.308 -23.435,7.407 -25.879,17.695 h -0.222 l -0.221,-20.35 c 2.891,0.474 6.178,-0.484 8.848,-1.548 5.996,-2.389 11.453,-6.244 15.528,-11.281 1.592,-1.973 3.032,-4.156 3.68,-6.636 0.197,-0.745 0.54,-2.061 0.03,-2.751 -1.265,-1.708 -6.465,-0.662 -8.177,-0.299 -7.169,1.515 -16.884,6.877 -19.244,14.331 h -0.221 c 0,-6.443 0.701,-13.853 2.212,-20.128 8.655,2.059 19.745,-3.847 25.658,-9.733 1.621,-1.615 6.12,-6.08 4.952,-8.799 -0.849,-1.977 -6.144,-1.46 -7.828,-1.385 -6.175,0.279 -12.083,2.918 -16.81,6.849 -1.67,1.389 -3.623,3.032 -4.424,5.105 h -0.221 c 0.508,-3.942 1.703,-7.844 2.561,-11.724 0.535,-2.433 0.956,-5.735 2.179,-7.916 0.557,-0.993 2.132,-1.624 3.001,-2.356 1.626,-1.369 2.975,-3.059 4.227,-4.769 5.678,-7.744 7.89,-18.724 4.179,-27.649 -10.407,2.155 -16.557,15.588 -16.125,25.437 0.08,1.839 0.4,3.781 0.977,5.53 0.321,0.976 1.224,2.152 1.153,3.19 -0.104,1.579 -0.911,3.24 -1.296,4.773 -1.217,4.862 -2.894,10.038 -3.289,15.041 m 415.4,0.221 h -0.221 c -3.477,-6.983 -13.601,-11.32 -21.013,-11.732 -1.637,-0.09 -7.275,-0.584 -8.043,1.385 -1.037,2.665 3.327,7.209 4.946,8.797 6.266,6.14 16.899,11.402 25.879,9.735 l 1.991,19.907 h -0.221 c -2.721,-7.43 -11.913,-12.559 -19.244,-14.11 -1.712,-0.363 -6.914,-1.409 -8.177,0.299 -0.52,0.703 -0.122,2.004 0.09,2.751 0.684,2.425 2.11,4.692 3.685,6.636 5.846,7.213 14.878,12.829 24.312,12.829 l -0.222,20.35 h -0.221 c -0.352,-2.353 -1.918,-4.499 -3.242,-6.414 -4.792,-6.93 -14.051,-12.367 -22.637,-11.281 0,9.294 7.361,17.102 14.82,21.827 3.189,2.022 6.761,3.82 10.617,3.831 l -2.655,20.35 h -0.221 c -0.696,-7.987 -8.299,-15.397 -15.041,-18.746 -1.933,-0.96 -4.045,-1.703 -6.193,-1.982 -0.642,-0.08 -1.737,-0.252 -2.225,0.29 -1.777,1.973 0.546,7.609 1.402,9.599 2.577,5.99 7.235,11.394 12.546,15.132 2.298,1.619 5.081,3.322 7.963,3.449 -0.794,6.25 -2.531,13.698 -5.087,19.465 -1.92,-7.797 -4.971,-14.584 -11.724,-19.463 -2.017,-1.458 -4.227,-2.626 -6.636,-3.287 -0.661,-0.182 -1.866,-0.699 -2.499,-0.246 -0.666,0.48 -0.71,1.905 -0.781,2.646 -0.798,8.246 4.937,17.828 10.801,23.187 1.635,1.496 3.382,2.83 5.309,3.924 0.679,0.388 2.256,0.719 2.577,1.485 0.488,1.172 -1.078,3.91 -1.516,5.025 -1.747,4.446 -4.167,8.914 -5.485,13.493 h -0.221 c 0,-8.049 -3.814,-16.691 -10.175,-21.75 -1.686,-1.343 -3.513,-2.575 -5.53,-3.364 -0.642,-0.25 -1.677,-0.695 -2.289,-0.182 -2.086,1.75 -1.323,7.065 -0.969,9.37 1.008,6.516 4.32,12.907 8.511,17.917 1.792,2.141 4.156,4.514 6.913,5.308 -1.239,4.495 -4.508,9.255 -6.86,13.272 -0.884,1.511 -2.119,2.971 -2.652,4.645 h -0.221 c 1.951,-10.513 -4.512,-23.957 -14.599,-27.87 -5.344,7.951 -0.809,20.566 3.719,27.87 1.643,2.65 3.837,5.441 6.677,6.857 l -11.944,16.368 c 1.584,-8.166 0.29,-16.574 -4.614,-23.446 -1.228,-1.719 -2.719,-3.411 -4.455,-4.636 -0.657,-0.463 -1.588,-1.215 -2.413,-0.737 -2.351,1.363 -2.619,5.886 -2.955,8.248 -0.956,6.709 0.96,14.378 3.988,20.35 1.168,2.305 2.78,5.191 5.14,6.415 -3.245,5.64 -9.142,10.69 -13.714,15.262 2.962,-7.68 2.416,-17.136 -1.676,-24.331 -1.044,-1.836 -2.27,-3.632 -3.853,-5.05 -0.494,-0.44 -1.252,-1.221 -1.991,-1.042 -2.694,0.65 -3.933,6.499 -4.38,8.746 -1.307,6.589 -0.517,14.099 1.905,20.35 0.915,2.36 2.141,5.123 4.244,6.636 v 0.221 l -15.483,12.829 c 3.205,-7.711 4.399,-16.163 1.011,-24.11 -0.695,-1.632 -2.759,-6.826 -4.993,-6.631 -2.871,0.252 -4.74,5.943 -5.454,8.179 -2.241,7.023 -2.259,15.086 -0.07,22.12 0.639,2.059 1.898,3.769 2.648,5.751 l -6.415,4.202 -10.175,6.415 c 4.13,-7.45 6.236,-15.448 3.854,-23.889 -0.467,-1.655 -1.896,-7.083 -4.084,-7.142 -2.906,-0.08 -5.479,5.43 -6.474,7.584 -3.789,8.216 -4.908,19.45 -0.595,27.65 l -18.138,8.847 c 5.127,-6.804 8.071,-14.583 6.828,-23.225 -0.243,-1.697 -1.081,-7.401 -3.298,-7.625 -2.97,-0.296 -6.383,5.026 -7.562,7.183 -4.612,8.425 -6.242,17.699 -3.71,26.985 l -1.106,0.443 0.885,2.211 1.327,-0.442 c 0.688,2.895 2.767,5.284 4.867,7.291 5.578,5.333 14.202,8.52 21.898,7.788 2.535,-0.241 7.777,-0.232 9.354,-2.739 0.46,-0.732 -0.179,-1.74 -0.544,-2.386 -1.086,-1.92 -2.668,-3.466 -4.386,-4.82 -6.57,-5.174 -15.108,-8.02 -23.447,-8.231 v -0.221 c 6.417,-1.524 12.429,-6.078 18.359,-8.848 3.999,9.558 17.479,12.825 26.764,11.96 2.827,-0.261 5.69,-0.988 8.185,-2.375 0.767,-0.425 2.03,-1.035 2.402,-1.88 0.332,-0.75 -0.383,-1.611 -0.801,-2.175 -1.307,-1.76 -3.088,-3.103 -4.919,-4.269 -6.961,-4.435 -16.411,-6.271 -24.553,-5.242 v -0.221 l 6.415,-3.749 10.838,-7.311 c 1.334,2.8 4.369,4.891 7.079,6.247 6.655,3.329 14.49,4.083 21.676,2.24 2.557,-0.654 8.167,-2.446 9.222,-5.178 0.33,-0.856 -0.509,-1.648 -1.046,-2.201 -1.502,-1.541 -3.382,-2.65 -5.3,-3.594 -7.6,-3.745 -16.833,-3.964 -24.995,-2.38 v -0.221 c 3.612,-1.799 6.904,-5.309 9.954,-7.935 1.838,-1.581 4.123,-3.134 5.53,-5.116 h 0.221 c 5.948,8.441 20.619,8.191 29.197,5.017 2.533,-0.938 5.092,-2.303 7.079,-4.152 0.654,-0.61 1.707,-1.466 1.844,-2.413 0.343,-2.371 -5.249,-4.231 -6.932,-4.793 -8.341,-2.781 -16.733,-1.617 -24.995,0.59 3.36,-3.36 6.556,-6.877 9.748,-10.396 0.934,-1.028 2.378,-3.557 3.745,-3.937 0.823,-0.228 1.986,0.971 2.654,1.371 1.896,1.131 4.035,1.896 6.194,2.345 7.691,1.595 16.377,0.336 23.004,-4.061 2.504,-1.661 5.328,-4.006 6.193,-6.999 -10.086,-6.642 -22.325,-3.893 -32.736,0.443 3.07,-3.526 5.861,-7.408 8.478,-11.281 0.816,-1.208 2.17,-4.269 3.508,-4.862 0.819,-0.363 2.108,0.706 2.834,1.033 2.001,0.903 4.235,1.371 6.414,1.579 7.744,0.741 15.862,-1.674 21.898,-6.554 2.414,-1.951 5.271,-4.797 5.751,-8.007 -10.405,-5.474 -23.125,-1.25 -32.515,4.424 3.762,-5.178 7.737,-11.907 9.954,-17.917 8.907,5.181 22.625,0.518 29.418,-6.193 1.9,-1.878 6.165,-5.93 5.643,-9.022 -0.135,-0.792 -1.234,-1.08 -1.882,-1.294 -1.976,-0.653 -4.444,-0.898 -6.508,-0.651 -8.609,1.038 -16.105,3.933 -22.911,9.419 l 7.299,-18.802 c 10.078,3.223 21.514,-1.548 28.249,-9.29 1.816,-2.088 3.375,-4.455 4.298,-7.078 0.278,-0.796 0.818,-2.214 0.491,-3.046 -0.292,-0.739 -1.394,-0.871 -2.071,-1.008 -2.024,-0.416 -4.395,-0.224 -6.414,0.128 -8.395,1.457 -16.331,6.18 -21.898,12.553 l 5.308,-19.908 c 3.028,1.026 6.705,0.454 9.733,-0.305 9.697,-2.427 21.484,-12.418 20.571,-23.363 -8.189,-1.035 -15.455,2.956 -21.677,7.963 -2.491,2.004 -5.594,4.738 -6.857,7.742 h -0.221 l 2.052,-13.271 0.602,-7.079 c 10.838,0 20.339,-6.202 25.269,-15.925 1.287,-2.54 2.307,-5.535 2.378,-8.406 0.02,-0.739 0.206,-1.937 -0.226,-2.583 -0.442,-0.664 -1.517,-0.536 -2.205,-0.505 -2.132,0.09 -4.247,0.801 -6.193,1.635 -7.47,3.194 -14.69,9.991 -18.138,17.379 h -0.221 c 1.495,-6.277 0.442,-13.909 0.442,-20.35 14.236,0 26.404,-16.81 23.889,-30.303 -8.6,0 -15.955,7.713 -20.35,14.377 -1.486,2.254 -3.296,5.046 -3.76,7.742 h -0.221 l -2.212,-20.571 c 3.888,-0.168 7.478,-2.444 10.396,-4.848 7.578,-6.249 13.249,-18.406 9.511,-28.11 -11.383,1.471 -18.441,14.929 -21.235,24.774 -1.331,-4.211 -1.897,-8.753 -2.957,-13.05 -0.504,-2.035 -1.774,-4.544 -1.745,-6.636 0.03,-2.247 1.699,-4.913 1.984,-7.299 0.652,-5.451 -1.155,-11.379 -3.641,-16.148 -1.876,-3.601 -4.656,-7.093 -8.239,-9.099 -1.064,-0.595 -3.365,-2.062 -4.426,-0.783 -1.507,1.816 -1.547,5.445 -1.547,7.671 0,7.297 2.423,14.853 7.034,20.57 1.098,1.359 2.226,2.639 3.584,3.741 0.809,0.655 2.057,1.168 2.623,2.057 1.029,1.612 1.31,4.298 1.772,6.147 1.068,4.271 2.555,8.879 2.904,13.271 m 3.687,28.24 -0.07,0.146 0.07,-0.146 m -17.622,111.776 -0.221,0.221 0.221,-0.221 m -384.655,0.221 -0.221,0.221 0.221,-0.221 m 13.272,25.216 -0.221,0.221 0.221,-0.221 m 16.368,23.668 -0.221,0.221 0.221,-0.221 m 19.023,21.455 -0.222,0.221 0.222,-0.221 m 287.108,0 -0.221,0.221 0.221,-0.221 m -23.446,16.811 -0.221,0.221 0.221,-0.221"
                           id="path22431-4"
                           sodipodi:nodetypes="ccccsccccccsscccccccscccccccccccscccccccccccccccccccccccscscccccccccsccccccccscccccccccccccsccccccccsscccccccccccccccssccccccccccccccccccscccccccccccccccccccccccccccccscscccssccccccccccccccccccccccccccccsccccccssccccccccccccscccccccccccccccsccccccccccccccsccccccccccccsccccccccccccccccccccccccccccccccccsccssccscccccccccccccccccccccccsccccccccsccccccccccccsccccccccccccccccccccccccccccc" />
                        <path
                           id="path13811-7-9-1-6"
                           style="display:inline;fill:#6a8888;fill-rule:evenodd;stroke:#000000;stroke-width:0;stroke-opacity:0"
                           d="m -24570.433,23855.898 a 10.926226,10.926007 0 0 1 -10.531,10.919 10.926226,10.926007 0 0 1 -11.293,-10.128 10.926226,10.926007 0 0 1 9.713,-11.652 10.926226,10.926007 0 0 1 11.996,9.285" />
                        <g
                           aria-label="eQ"
                           id="text13815-2-4-7-4"
                           style="font-size:51.5132px;line-height:125%;letter-spacing:0px;word-spacing:0px;display:inline;fill:#404041;stroke-width:10.5581px">
                          <path
                             d="m -24590.165,23848.224 c 0,-12.657 -8.464,-21.199 -20.344,-21.199 -11.881,0 -20.655,8.775 -20.655,20.966 0,12.269 8.852,21.043 22.13,21.043 6.834,0 12.502,-2.329 16.229,-6.678 l -4.115,-4.814 c -3.029,3.339 -7.066,4.97 -11.881,4.97 -8.153,0 -13.977,-4.815 -14.909,-12.036 h 33.39 c 0.08,-0.699 0.155,-1.631 0.155,-2.252 z m -20.344,-14.909 c 7.221,0 12.424,4.892 13.201,11.803 h -26.402 c 0.777,-6.989 6.057,-11.803 13.201,-11.803 z"
                             style="font-weight:500;font-size:77.6509px;font-family:Montserrat;-inkscape-font-specification:'Montserrat Medium';letter-spacing:-5.15132px"
                             id="path1022" />
                          <path
                             d="m -24536.432,23869.112 c -2.795,3.106 -6.057,4.659 -9.939,4.659 -3.495,0 -6.756,-1.553 -10.405,-5.436 12.657,-2.95 21.354,-13.433 21.354,-26.944 0,-15.997 -12.269,-27.799 -28.809,-27.799 -16.695,0 -28.964,11.88 -28.964,27.799 0,15.297 11.337,26.867 26.945,27.721 7.61,7.843 12.968,10.793 19.801,10.793 5.436,0 10.172,-2.251 13.667,-6.367 z m -48.998,-27.721 c 0,-11.959 9.008,-20.889 21.199,-20.889 12.036,0 21.043,8.93 21.043,20.889 0,11.958 -9.007,20.888 -21.043,20.888 -12.191,0 -21.199,-8.93 -21.199,-20.888 z"
                             style="font-weight:500;font-size:77.6509px;font-family:Montserrat;-inkscape-font-specification:'Montserrat Medium';letter-spacing:-5.15132px"
                             id="path1024" />
                        </g>
                        <path
                           style="fill:#404041;fill-opacity:1;stroke:none;stroke-width:9.44649"
                           d="m -24541.253,23521.662 c -3.886,0.511 -7.821,0.472 -11.723,1.073 -7.846,1.212 -15.735,3.745 -22.783,7.412 -45.346,23.606 -58.726,82.262 -51.445,129.226 5.063,32.635 24.13,64.593 55.206,78.333 7.113,3.145 14.645,5.107 22.34,6.163 7.587,1.039 15.183,1.128 22.783,0.157 26.809,-3.422 48.413,-21.565 61.978,-44.175 21.226,-35.378 24.38,-82.83 9.069,-120.993 -11.493,-28.648 -35.753,-50.653 -66.623,-55.831 -5.933,-0.995 -12.796,-2.152 -18.802,-1.365 m -95.776,0.571 -13.935,8.505 -30.083,17.95 -35.612,22.208 c 0.591,2.512 2.995,5.156 4.424,7.299 3.23,4.844 6.359,9.752 9.584,14.599 1.124,1.685 2.21,3.393 3.321,5.087 0.34,0.518 0.789,1.462 1.493,1.524 0.745,0.06 1.614,-0.772 2.192,-1.155 1.603,-1.063 3.236,-2.096 4.866,-3.116 6.687,-4.187 14.085,-7.956 20.35,-12.736 l -0.664,157.71 34.285,-0.663 0.664,-154.393 -0.423,-46.229 -0.05,-11.907 -0.416,-4.683 m 99.094,33.747 c 5.464,0 10.912,0.799 16.147,2.369 33.425,10.029 42.79,49.205 40.68,80.01 -0.347,5.059 -1.278,10.078 -2.28,15.042 -1.312,6.505 -3.458,12.933 -6.072,19.022 -8.439,19.662 -24.86,38.008 -47.811,38.045 -5.444,0 -11.19,-0.707 -16.368,-2.433 -4.294,-1.431 -8.191,-3.457 -11.945,-5.972 -27.815,-18.635 -32.551,-56.931 -27.41,-87.371 1.095,-6.483 2.8,-12.852 5.059,-19.023 6.383,-17.456 17.98,-33.294 36.729,-38.233 4.3,-1.133 8.845,-1.456 13.271,-1.456"
                           id="path22650-8"
                           sodipodi:nodetypes="ccccsccscscccccscccccccccccccccccsccscsc" />
                        <path
                           style="fill:#ffffff;stroke:#404041;stroke-width:37.3883;stroke-linecap:butt;stroke-linejoin:miter;stroke-miterlimit:4;stroke-dasharray:none;stroke-opacity:1"
                           d="m -6441.505,10898.167 89.9121,-161.414 -89.9121,-161.412 h 958.72 l -89.912,161.412 89.9118,161.414 z"
                           id="path22352-3-5"
                           sodipodi:nodetypes="ccccccc"
                           clip-path="url(#clipPath24771)"
                           transform="matrix(0.19098633,0,0,0.19098633,-23483.999,21705.622)" />
                        <path
                           style="fill:#ffffff;stroke:#404041;stroke-width:37.3883;stroke-linecap:butt;stroke-linejoin:miter;stroke-miterlimit:4;stroke-dasharray:none;stroke-opacity:1"
                           d="m -3577.7225,10898.167 89.9121,-161.414 -89.9121,-161.412 h 958.72 l -89.912,161.412 89.9118,161.414 z"
                           id="path22352-3-6"
                           sodipodi:nodetypes="ccccccc"
                           clip-path="url(#clipPath24767)"
                           transform="matrix(0.19098633,0,0,0.19098633,-23948.505,21705.622)" />
                        <path
                           style="fill:#ffffff;stroke:#404041;stroke-width:7.14066;stroke-linecap:butt;stroke-linejoin:miter;stroke-miterlimit:4;stroke-dasharray:none;stroke-opacity:1"
                           d="m -24685.287,23791.899 19.888,-35.704 -19.888,-35.703 h 212.062 l -19.888,35.703 19.888,35.704 z"
                           id="path22352-3"
                           sodipodi:nodetypes="ccccccc" />
                        <g
                           aria-label="ANOS"
                           id="text3101-63"
                           style="font-size:282.667px;line-height:1.25;fill:#404041;stroke-width:14.4028"
                           transform="matrix(0.22119306,0,0,0.22119306,-23840.348,21754.941)">
                          <path
                             d="m -3527.1161,9138.5642 c 0,0 0,-0.848 -1.1307,-3.9574 l -54.5547,-174.4055 c -3.392,-10.7413 -10.4587,-10.7413 -16.112,-10.7413 h -16.112 c -5.0881,0 -12.7201,0 -16.1121,10.4586 l -54.5547,174.1229 c -0.2827,1.1307 -1.1307,3.392 -1.1307,4.5227 0,7.0667 6.784,7.0667 10.7414,7.0667 h 4.5227 c 12.4373,0 14.1333,-5.088 16.112,-11.3067 l 11.872,-37.0294 h 68.4054 l 9.328,30.2454 c 4.5227,14.416 5.936,18.0907 18.3734,18.0907 h 9.6106 c 3.9574,0 10.7414,0 10.7414,-7.0667 z m -54.5547,-62.4694 h -55.4028 l 16.3947,-54.5548 c 5.088,-16.96 9.8934,-33.6373 11.024,-42.1173 h 0.2827 c 1.696,10.7413 8.7627,33.92 11.872,44.3787 z"
                             style="font-family:'Latin Modern Sans Demi Cond';-inkscape-font-specification:'Latin Modern Sans Demi Cond, Normal';stroke-width:14.4028"
                             id="path914" />
                          <path
                             d="m -3348.4707,9133.1935 v -171.2962 c 0,-8.7627 -1.696,-12.4373 -12.4373,-12.4373 h -4.5227 c -9.8933,0 -12.4373,2.8266 -12.4373,12.4373 v 153.7709 h -0.2827 c -3.392,-11.0241 -5.6533,-15.8294 -11.5893,-29.9627 l -53.4241,-124.9389 c -3.9573,-9.328 -7.9147,-11.3066 -17.808,-11.3066 h -20.352 c -9.8934,0 -12.7201,2.544 -12.7201,12.72 v 170.7308 c 0,9.8934 2.544,12.7201 12.7201,12.7201 h 4.24 c 9.8933,0 12.4373,-2.8267 12.4373,-12.4374 v -153.7708 h 0.2827 c 3.392,11.024 5.6533,15.8293 11.5893,29.9627 l 53.4241,124.9388 c 3.9573,9.328 7.9147,11.3067 17.808,11.3067 h 20.6347 c 9.8933,0 12.4373,-2.8267 12.4373,-12.4374 z"
                             style="font-family:'Latin Modern Sans Demi Cond';-inkscape-font-specification:'Latin Modern Sans Demi Cond, Normal';stroke-width:14.4028"
                             id="path916" />
                          <path
                             d="m -3143.5372,9048.9587 c 0,-12.1546 -0.5654,-44.6613 -16.1121,-69.536 -19.504,-31.0934 -50.5973,-35.3334 -67.2747,-35.3334 -26.8534,0 -50.8801,11.024 -64.7307,31.0934 -10.4587,15.5466 -18.6561,36.464 -18.6561,73.776 0,24.5921 3.392,54.5548 23.1787,77.4508 12.72,14.6987 34.2027,24.592 60.2081,24.592 19.7867,0 44.3787,-5.936 61.0561,-25.7227 18.9387,-22.3307 22.3307,-52.576 22.3307,-76.3201 z m -34.4854,-4.5226 c 0,17.808 -0.5653,38.4427 -8.48,57.0987 -10.7414,24.8747 -29.9627,29.1147 -40.4214,29.1147 -10.7413,0 -29.9627,-4.5227 -40.4214,-29.3974 -7.0667,-16.6773 -8.48,-34.2027 -8.48,-56.816 0,-13.8507 0,-39.0081 10.4587,-57.3814 10.176,-18.3734 26.5707,-23.1787 38.4427,-23.1787 8.7627,0 27.984,2.8267 39.2907,24.592 9.328,18.0907 9.6107,39.8561 9.6107,55.9681 z"
                             style="font-family:'Latin Modern Sans Demi Cond';-inkscape-font-specification:'Latin Modern Sans Demi Cond, Normal';stroke-width:14.4028"
                             id="path918" />
                          <path
                             d="m -2994.2895,9090.5108 c 0,-9.0453 -1.1306,-25.1574 -15.264,-41.8347 -11.5893,-13.568 -24.0267,-16.6774 -39.008,-20.6347 -17.2427,-4.5227 -20.9174,-5.6533 -25.7227,-10.176 -2.8267,-3.1094 -9.328,-9.328 -9.328,-21.2 0,-20.0694 13.0026,-27.9841 30.528,-27.9841 19.7867,0 30.8107,7.9147 39.2907,15.8294 1.696,1.696 1.9787,1.9786 3.392,1.9786 2.544,0 3.1094,-2.544 3.392,-3.9573 0.848,-3.6747 3.6747,-18.0907 3.6747,-20.9174 0,-2.2613 -0.2827,-2.544 -6.784,-6.2186 -9.6107,-5.6534 -21.7654,-11.3067 -43.2481,-11.3067 -43.8134,0 -59.9254,26.5707 -59.9254,56.8161 0,22.6133 13.0027,36.464 14.416,37.8773 13.0027,13.5681 21.7654,15.8294 37.5948,19.7867 5.936,1.696 16.112,4.24 18.3733,5.088 8.48,3.392 18.9387,13.568 18.9387,29.9627 0,13.568 -5.088,31.0934 -30.2454,31.0934 -9.0453,0 -30.528,-1.9787 -50.5974,-18.9387 -3.1093,-2.8267 -3.6746,-2.8267 -4.5226,-2.8267 -2.544,0 -3.1094,2.544 -3.392,3.9574 -0.848,3.6747 -3.6747,18.0907 -3.6747,20.9173 0,2.544 0.2827,2.8267 8.1973,7.632 18.9387,11.5894 37.5947,15.5467 54.2721,15.5467 41.2694,0 59.6427,-26.0053 59.6427,-60.4907 z"
                             style="font-family:'Latin Modern Sans Demi Cond';-inkscape-font-specification:'Latin Modern Sans Demi Cond, Normal';stroke-width:14.4028"
                             id="path920" />
                        </g>
                      </g>
                    </g>
                  </g>
                </g>
              </g>
            </g>
          </g>
        </g>
      </g>
    </g>
  </g>
</svg>
