<?xml version="1.0" encoding="UTF-8" standalone="no"?>
<!-- Uploaded to SVGRepo https://www.svgrepo.com -->

<svg
   version="1.1"
   id="Layer_1"
   x="0px"
   y="0px"
   viewBox="0 0 16 16"
   xml:space="preserve"
   sodipodi:docname="conduta.svg"
   inkscape:version="1.1.2 (0a00cf5339, 2022-02-04)"
   width="16"
   height="16"
   xmlns:inkscape="http://www.inkscape.org/namespaces/inkscape"
   xmlns:sodipodi="http://sodipodi.sourceforge.net/DTD/sodipodi-0.dtd"
   xmlns:xlink="http://www.w3.org/1999/xlink"
   xmlns="http://www.w3.org/2000/svg"
   xmlns:svg="http://www.w3.org/2000/svg"><defs
   id="defs7"><linearGradient
     id="linearGradient960"
     inkscape:swatch="solid"><stop
       style="stop-color:#6d8b8b;stop-opacity:1;"
       offset="0"
       id="stop958" /></linearGradient><linearGradient
     inkscape:collect="always"
     xlink:href="#linearGradient960"
     id="linearGradient962"
     x1="0.63999999"
     y1="16"
     x2="31.360001"
     y2="16"
     gradientUnits="userSpaceOnUse"
     gradientTransform="scale(0.5)" /></defs><sodipodi:namedview
   id="namedview5"
   pagecolor="#ffffff"
   bordercolor="#666666"
   borderopacity="1.0"
   inkscape:pageshadow="2"
   inkscape:pageopacity="0.0"
   inkscape:pagecheckerboard="0"
   showgrid="false"
   inkscape:zoom="6.0625"
   inkscape:cx="-8"
   inkscape:cy="36.618557"
   inkscape:window-width="1920"
   inkscape:window-height="1011"
   inkscape:window-x="0"
   inkscape:window-y="0"
   inkscape:window-maximized="1"
   inkscape:current-layer="Layer_1" />
<path
   id="ai--ethics_1_"
   d="M 8,15.68 C 7.6765,15.68 7.405,15.453 7.3365,15.1495 5.8895,15.0175 4.5425,14.461 3.4225,13.532 3.3065,13.6245 3.1595,13.68 3,13.68 2.625,13.68 2.32,13.375 2.32,13 2.32,12.8405 2.375,12.6935 2.4675,12.577 1.539,11.457 0.982,10.11 0.85,8.6635 0.547,8.595 0.32,8.3235 0.32,8 0.32,7.6765 0.547,7.405 0.8505,7.3365 0.9825,5.8895 1.539,4.543 2.468,3.4225 2.375,3.3065 2.32,3.1595 2.32,3 2.32,2.625 2.625,2.32 3,2.32 3.1595,2.32 3.3065,2.375 3.423,2.4675 4.543,1.539 5.89,0.982 7.337,0.85 7.405,0.547 7.6765,0.32 8,0.32 8.3235,0.32 8.595,0.547 8.6635,0.8505 10.1105,0.9825 11.457,1.539 12.577,2.468 12.6935,2.375 12.8405,2.32 13,2.32 c 0.375,0 0.68,0.305 0.68,0.68 0,0.1595 -0.0555,0.3065 -0.148,0.423 0.929,1.12 1.486,2.467 1.6175,3.914 0.303,0.0685 0.5305,0.34 0.5305,0.6635 0,0.3235 -0.227,0.595 -0.5305,0.6635 -0.132,1.447 -0.689,2.794 -1.6175,3.9135 0.0925,0.116 0.148,0.263 0.148,0.423 0,0.375 -0.305,0.68 -0.68,0.68 -0.1595,0 -0.3065,-0.0555 -0.423,-0.148 C 11.4575,14.461 10.11,15.0185 8.6635,15.15 8.595,15.453 8.3235,15.68 8,15.68 Z m 0,-1 c -0.1765,0 -0.32,0.1435 -0.32,0.32 0,0.1765 0.1435,0.32 0.32,0.32 0.1765,0 0.32,-0.1435 0.32,-0.32 C 8.32,14.8235 8.1765,14.68 8,14.68 Z M 3.6355,13.241 c 1.063,0.887 2.3425,1.42 3.7175,1.549 0.0885,-0.2725 0.345,-0.47 0.6465,-0.47 0.3015,0 0.558,0.198 0.647,0.47 1.375,-0.129 2.6545,-0.6615 3.7175,-1.549 C 12.3355,13.166 12.32,13.085 12.32,13 c 0,-0.375 0.305,-0.68 0.68,-0.68 0.085,0 0.166,0.0155 0.241,0.0445 0.887,-1.063 1.42,-2.3425 1.549,-3.7175 C 14.5175,8.558 14.32,8.3015 14.32,8 14.32,7.6985 14.518,7.442 14.79,7.3535 14.661,5.9785 14.1285,4.699 13.241,3.636 13.166,3.6645 13.085,3.68 13,3.68 12.625,3.68 12.32,3.375 12.32,3 12.32,2.9155 12.3355,2.834 12.3645,2.759 11.3015,1.872 10.022,1.339 8.647,1.21 8.558,1.4825 8.3015,1.68 8,1.68 7.6985,1.68 7.442,1.4825 7.3535,1.2105 5.9785,1.3395 4.699,1.8725 3.636,2.7595 3.6645,2.834 3.68,2.9155 3.68,3 3.68,3.375 3.375,3.68 3,3.68 2.915,3.68 2.8335,3.6645 2.759,3.636 1.872,4.699 1.3395,5.9785 1.2105,7.3535 1.4825,7.442 1.68,7.6985 1.68,8 c 0,0.3015 -0.1975,0.558 -0.4695,0.647 0.129,1.375 0.662,2.6545 1.549,3.7175 C 2.834,12.3355 2.9155,12.32 3,12.32 c 0.375,0 0.68,0.305 0.68,0.68 0,0.085 -0.0155,0.166 -0.0445,0.241 z M 13,12.68 c -0.1765,0 -0.32,0.1435 -0.32,0.32 0,0.1765 0.1435,0.32 0.32,0.32 0.1765,0 0.32,-0.1435 0.32,-0.32 0,-0.1765 -0.1435,-0.32 -0.32,-0.32 z m -10,0 c -0.1765,0 -0.32,0.1435 -0.32,0.32 0,0.1765 0.1435,0.32 0.32,0.32 0.1765,0 0.32,-0.1435 0.32,-0.32 0,-0.1765 -0.1435,-0.32 -0.32,-0.32 z m 12,-5 c -0.1765,0 -0.32,0.1435 -0.32,0.32 0,0.1765 0.1435,0.32 0.32,0.32 0.1765,0 0.32,-0.1435 0.32,-0.32 0,-0.1765 -0.1435,-0.32 -0.32,-0.32 z m -14,0 C 0.8235,7.68 0.68,7.8235 0.68,8 0.68,8.1765 0.8235,8.32 1,8.32 1.1765,8.32 1.32,8.1765 1.32,8 1.32,7.8235 1.1765,7.68 1,7.68 Z m 12,-5 c -0.1765,0 -0.32,0.1435 -0.32,0.32 0,0.1765 0.1435,0.32 0.32,0.32 0.1765,0 0.32,-0.1435 0.32,-0.32 0,-0.1765 -0.1435,-0.32 -0.32,-0.32 z m -10,0 C 2.8235,2.68 2.68,2.8235 2.68,3 2.68,3.1765 2.8235,3.32 3,3.32 3.1765,3.32 3.32,3.1765 3.32,3 3.32,2.8235 3.1765,2.68 3,2.68 Z m 5,-2 C 7.8235,0.68 7.68,0.8235 7.68,1 7.68,1.1765 7.8235,1.32 8,1.32 8.1765,1.32 8.32,1.1765 8.32,1 8.32,0.8235 8.1765,0.68 8,0.68 Z m 0.5,12 C 8.3025,12.68 8.1245,12.595 8,12.4605 7.8755,12.5955 7.6975,12.68 7.5,12.68 7.125,12.68 6.82,12.375 6.82,12 V 6.68 H 4.7915 l 0.868,1.7365 C 5.6725,8.4415 5.68,8.47 5.68,8.5 5.68,9.151 5.1505,9.68 4.5,9.68 3.8495,9.68 3.32,9.151 3.32,8.5 3.32,8.4695 3.3275,8.441 3.3405,8.4165 l 0.895,-1.79 C 3.9915,6.523 3.82,6.281 3.82,6 3.82,5.625 4.125,5.32 4.5,5.32 H 7.0335 C 6.896,5.125 6.82,4.885 6.82,4.625 6.82,3.9745 7.3495,3.445 8,3.445 c 0.651,0 1.18,0.5295 1.18,1.18 0,0.26 -0.076,0.5 -0.2135,0.695 H 11.5 c 0.375,0 0.68,0.305 0.68,0.68 0,0.281 -0.172,0.523 -0.4155,0.6265 l 0.8945,1.79 C 12.672,8.4415 12.68,8.47 12.68,8.5 c 0,0.651 -0.5295,1.18 -1.18,1.18 -0.6505,0 -1.18,-0.5295 -1.18,-1.18 0,-0.0305 0.008,-0.059 0.021,-0.0835 L 11.209,6.68 H 9.18 V 12 c 0,0.375 -0.305,0.68 -0.68,0.68 z M 8.18,12 c 0,0.1765 0.1435,0.32 0.32,0.32 0.1765,0 0.32,-0.1435 0.32,-0.32 V 6.5 C 8.82,6.4005 8.9005,6.32 9,6.32 h 2.5 c 0.1765,0 0.32,-0.1435 0.32,-0.32 0,-0.1765 -0.1435,-0.32 -0.32,-0.32 h -3 C 8.4175,5.68 8.346,5.6245 8.3255,5.5445 8.305,5.4645 8.342,5.381 8.414,5.342 8.6685,5.204 8.82,4.936 8.82,4.625 8.82,4.173 8.4525,3.805 8,3.805 c -0.4525,0 -0.82,0.368 -0.82,0.82 0,0.3105 0.152,0.5785 0.406,0.717 C 7.6585,5.3815 7.695,5.465 7.6745,5.5445 7.654,5.6245 7.582,5.68 7.5,5.68 h -3 C 4.3235,5.68 4.18,5.8235 4.18,6 4.18,6.1765 4.3235,6.32 4.5,6.32 H 7 c 0.0995,0 0.18,0.0805 0.18,0.18 V 12 c 0,0.1765 0.1435,0.32 0.32,0.32 0.1765,0 0.32,-0.1435 0.32,-0.32 V 9 h 0.36 z m 2.5195,-3.32 c 0.0825,0.3655 0.41,0.6395 0.8005,0.6395 0.3905,0 0.718,-0.274 0.8005,-0.6395 z M 3.7,8.68 c 0.082,0.366 0.4095,0.64 0.8,0.64 0.3905,0 0.718,-0.274 0.8,-0.6395 z m 7.091,-0.36 h 1.418 L 11.5,6.9025 Z m -6.9995,0 H 5.209 L 4.5,6.9025 Z"
   style="fill:url(#linearGradient962);fill-opacity:1;stroke-width:0.5" />
<rect
   id="_Transparent_Rectangle"
   style="fill:none;stroke-width:0.5"
   width="16"
   height="16"
   x="0"
   y="0" />
</svg>
