<?xml version="1.0" encoding="UTF-8" standalone="no"?>
<!-- Generator: Adobe Illustrator 19.0.0, SVG Export Plug-In . SVG Version: 6.00 Build 0)  -->

<svg
   xmlns:dc="http://purl.org/dc/elements/1.1/"
   xmlns:cc="http://creativecommons.org/ns#"
   xmlns:rdf="http://www.w3.org/1999/02/22-rdf-syntax-ns#"
   xmlns:svg="http://www.w3.org/2000/svg"
   xmlns="http://www.w3.org/2000/svg"
   xmlns:sodipodi="http://sodipodi.sourceforge.net/DTD/sodipodi-0.dtd"
   xmlns:inkscape="http://www.inkscape.org/namespaces/inkscape"
   version="1.1"
   id="Capa_1"
   x="0px"
   y="0px"
   viewBox="0 0 90 90.001228"
   xml:space="preserve"
   sodipodi:docname="diagram_90x90.svg"
   width="90"
   height="90.001228"
   inkscape:version="0.92.3 (2405546, 2018-03-11)"><metadata
   id="metadata103"><rdf:RDF><cc:Work
       rdf:about=""><dc:format>image/svg+xml</dc:format><dc:type
         rdf:resource="http://purl.org/dc/dcmitype/StillImage" /><dc:title></dc:title></cc:Work></rdf:RDF></metadata><defs
   id="defs101" /><sodipodi:namedview
   pagecolor="#ffffff"
   bordercolor="#666666"
   borderopacity="1"
   objecttolerance="10"
   gridtolerance="10"
   guidetolerance="10"
   inkscape:pageopacity="0"
   inkscape:pageshadow="2"
   inkscape:window-width="1366"
   inkscape:window-height="719"
   id="namedview99"
   showgrid="false"
   inkscape:zoom="3.933284"
   inkscape:cx="17.151079"
   inkscape:cy="33.131486"
   inkscape:window-x="0"
   inkscape:window-y="25"
   inkscape:window-maximized="1"
   inkscape:current-layer="g2284" />

























<g
   id="g2284"
   transform="matrix(0.125,0,0,0.125,-3.75e-4,30.00048)"
   style="stroke-width:8"><g
     id="g917"
     transform="matrix(1.5,0,0,1.5,-0.0015,-240.00301)"><g
       style="stroke-width:8"
       id="g6">
	<g
   style="stroke-width:8"
   id="g4">
		<rect
   style="stroke-width:8"
   x="40.002998"
   y="48.006001"
   width="104"
   height="16"
   id="rect2" />
	</g>
</g><g
       style="stroke-width:8"
       id="g12">
	<g
   style="stroke-width:8"
   id="g10">
		<rect
   style="stroke-width:8"
   x="40.002998"
   y="80.005997"
   width="104"
   height="16"
   id="rect8" />
	</g>
</g><g
       style="stroke-width:8"
       id="g18">
	<g
   style="stroke-width:8"
   id="g16">
		<rect
   style="stroke-width:8"
   x="40.002998"
   y="112.006"
   width="72"
   height="16"
   id="rect14" />
	</g>
</g><g
       style="stroke-width:8"
       id="g24">
	<g
   style="stroke-width:8"
   id="g22">
		<rect
   style="stroke-width:8"
   x="40.002998"
   y="144.006"
   width="72"
   height="16"
   id="rect20" />
	</g>
</g><g
       style="stroke-width:8"
       id="g30">
	<g
   style="stroke-width:8"
   id="g28">
		<rect
   style="stroke-width:8"
   x="0.003"
   y="464.00601"
   width="480"
   height="16"
   id="rect26" />
	</g>
</g><g
       style="stroke-width:8"
       id="g36">
	<g
   style="stroke-width:8"
   id="g34">
		<path
   style="stroke-width:8"
   inkscape:connector-curvature="0"
   d="m 463.163,68.43 -32,-64 c -1.973,-3.954 -6.776,-5.56 -10.73,-3.587 -0.002,0.001 -0.004,0.002 -0.006,0.003 l -64,32 c -3.954,1.975 -5.559,6.782 -3.584,10.736 1.975,3.954 6.782,5.559 10.736,3.584 l 46.352,-23.16 -12.648,36.112 C 341.69,218.446 198.501,329.522 31.323,344.006 l 1.36,16 C 206.16,344.978 354.737,229.701 412.395,65.398 l 12.912,-36.896 23.536,47.08 c 1.975,3.954 6.782,5.559 10.736,3.584 3.955,-1.975 5.559,-6.781 3.584,-10.736 z"
   id="path32" />
	</g>
</g><g
       style="stroke-width:8"
       id="g42">
	<g
   style="stroke-width:8"
   id="g40">
		<path
   style="stroke-width:8"
   inkscape:connector-curvature="0"
   d="m 96.003,384.006 h -56 c -4.418,0 -8,3.582 -8,8 v 48 c 0,4.418 3.582,8 8,8 h 56 c 4.418,0 8,-3.582 8,-8 v -48 c 0,-4.418 -3.582,-8 -8,-8 z m -8,48 h -40 v -32 h 40 z"
   id="path38" />
	</g>
</g><g
       style="stroke-width:8"
       id="g48">
	<g
   style="stroke-width:8"
   id="g46">
		<path
   style="stroke-width:8"
   inkscape:connector-curvature="0"
   d="m 184.003,360.006 h -56 c -4.418,0 -8,3.582 -8,8 v 72 c 0,4.418 3.582,8 8,8 h 56 c 4.418,0 8,-3.582 8,-8 v -72 c 0,-4.418 -3.582,-8 -8,-8 z m -8,72 h -40 v -56 h 40 z"
   id="path44" />
	</g>
</g><g
       style="stroke-width:8"
       id="g54">
	<g
   style="stroke-width:8"
   id="g52">
		<path
   style="stroke-width:8"
   inkscape:connector-curvature="0"
   d="m 272.003,320.006 h -56 c -4.418,0 -8,3.582 -8,8 v 112 c 0,4.418 3.582,8 8,8 h 56 c 4.418,0 8,-3.582 8,-8 v -112 c 0,-4.418 -3.582,-8 -8,-8 z m -8,112 h -40 v -96 h 40 z"
   id="path50" />
	</g>
</g><g
       style="stroke-width:8"
       id="g60">
	<g
   style="stroke-width:8"
   id="g58">
		<path
   style="stroke-width:8"
   inkscape:connector-curvature="0"
   d="m 360.003,264.006 h -56 c -4.418,0 -8,3.582 -8,8 v 168 c 0,4.418 3.582,8 8,8 h 56 c 4.418,0 8,-3.582 8,-8 v -168 c 0,-4.418 -3.582,-8 -8,-8 z m -8,168 h -40 v -152 h 40 z"
   id="path56" />
	</g>
</g><g
       style="stroke-width:8"
       id="g66">
	<g
   style="stroke-width:8"
   id="g64">
		<path
   style="stroke-width:8"
   inkscape:connector-curvature="0"
   d="m 448.003,152.006 h -56 c -4.418,0 -8,3.582 -8,8 v 280 c 0,4.418 3.582,8 8,8 h 56 c 4.418,0 8,-3.582 8,-8 v -280 c 0,-4.418 -3.582,-8 -8,-8 z m -8,280 h -40 v -264 h 40 z"
   id="path62" />
	</g>
</g><g
       style="stroke-width:8"
       id="g68">
</g><g
       style="stroke-width:8"
       id="g70">
</g><g
       style="stroke-width:8"
       id="g72">
</g><g
       style="stroke-width:8"
       id="g74">
</g><g
       style="stroke-width:8"
       id="g76">
</g><g
       style="stroke-width:8"
       id="g78">
</g><g
       style="stroke-width:8"
       id="g80">
</g><g
       style="stroke-width:8"
       id="g82">
</g><g
       style="stroke-width:8"
       id="g84">
</g><g
       style="stroke-width:8"
       id="g86">
</g><g
       style="stroke-width:8"
       id="g88">
</g><g
       style="stroke-width:8"
       id="g90">
</g><g
       style="stroke-width:8"
       id="g92">
</g><g
       style="stroke-width:8"
       id="g94">
</g><g
       style="stroke-width:8"
       id="g96">
</g><path
       transform="matrix(8,0,0,8,0.003,-5.5127538e-4)"
       inkscape:connector-curvature="0"
       id="path71"
       d="M 50.047269,37.481471 V 21.032043 h 2.471909 2.471908 v 16.449428 16.449427 h -2.471908 -2.471909 z"
       style="fill:#008080;stroke:#008080;stroke-width:0.71910065" /><path
       transform="matrix(8,0,0,8,0.003,-5.5127538e-4)"
       inkscape:connector-curvature="0"
       id="path80"
       d="m 39.080984,44.492702 v -9.438196 h 2.426965 2.426965 v 9.438196 9.438196 h -2.426965 -2.426965 z"
       style="fill:#008000;stroke:#008000;stroke-width:0.71910065" /><path
       transform="matrix(8,0,0,8,0.003,-5.5127538e-4)"
       inkscape:connector-curvature="0"
       id="path84"
       d="m 28.024811,47.998318 v -5.93258 h 2.471909 2.471909 v 5.93258 5.93258 H 30.49672 28.024811 Z"
       style="fill:#808000;stroke:#808000;stroke-width:0.71910065" /></g></g>
</svg>