<?xml version="1.0" encoding="UTF-8" standalone="no"?>
<svg
   xmlns:dc="http://purl.org/dc/elements/1.1/"
   xmlns:cc="http://creativecommons.org/ns#"
   xmlns:rdf="http://www.w3.org/1999/02/22-rdf-syntax-ns#"
   xmlns:svg="http://www.w3.org/2000/svg"
   xmlns="http://www.w3.org/2000/svg"
   xmlns:sodipodi="http://sodipodi.sourceforge.net/DTD/sodipodi-0.dtd"
   xmlns:inkscape="http://www.inkscape.org/namespaces/inkscape"
   id="_x33_0"
   enable-background="new 0 0 64 64"
   height="90"
   viewBox="0 0 11.25 11.25"
   width="90"
   version="1.1"
   sodipodi:docname="fair_color_90x90.svg"
   inkscape:version="0.92.3 (2405546, 2018-03-11)">
  <metadata
     id="metadata79">
    <rdf:RDF>
      <cc:Work
         rdf:about="">
        <dc:format>image/svg+xml</dc:format>
        <dc:type
           rdf:resource="http://purl.org/dc/dcmitype/StillImage" />
        <dc:title></dc:title>
      </cc:Work>
    </rdf:RDF>
  </metadata>
  <defs
     id="defs77" />
  <sodipodi:namedview
     pagecolor="#ffffff"
     bordercolor="#666666"
     borderopacity="1"
     objecttolerance="10"
     gridtolerance="10"
     guidetolerance="10"
     inkscape:pageopacity="0"
     inkscape:pageshadow="2"
     inkscape:window-width="1366"
     inkscape:window-height="719"
     id="namedview75"
     showgrid="false"
     inkscape:zoom="2.6074563"
     inkscape:cx="37.131339"
     inkscape:cy="71.536307"
     inkscape:window-x="0"
     inkscape:window-y="25"
     inkscape:window-maximized="1"
     inkscape:current-layer="_x33_0" />
  <g
     id="g72"
     transform="matrix(0.18145161,0,0,0.18145161,-0.18145161,-0.18145161)">
    <g
       id="g62">
      <g
         id="g4">
        <path
           d="M 8.77,13.99 8.76,14 H 3 C 2.45,14 2,13.55 2,13 v -2 c 0,-0.55 0.45,-1 1,-1 h 5.76 l 0.01,0.01 C 8.29,10.54 8,11.23 8,12 c 0,0.77 0.29,1.46 0.77,1.99 z"
           id="path2"
           inkscape:connector-curvature="0"
           style="fill:#cf9e76" />
      </g>
      <g
         id="g8">
        <path
           d="m 22.17,10 h 0.01 C 22.06,10.31 22,10.65 22,11 v 3 H 13.24 L 13.23,13.99 C 13.71,13.46 14,12.77 14,12 14,11.23 13.71,10.54 13.23,10.01 L 13.24,10 Z"
           id="path6"
           inkscape:connector-curvature="0"
           style="fill:#cf9e76" />
      </g>
      <g
         id="g12">
        <path
           d="M 50.77,13.99 50.76,14 H 42 28 l 5.09,-1.27 C 34.47,12.38 35.51,11.32 35.87,10 H 36 40 50.76 l 0.01,0.01 C 50.29,10.54 50,11.23 50,12 c 0,0.77 0.29,1.46 0.77,1.99 z"
           id="path10"
           inkscape:connector-curvature="0"
           style="fill:#cf9e76" />
      </g>
      <g
         id="g16">
        <path
           d="m 62,11 v 2 c 0,0.55 -0.45,1 -1,1 H 55.24 L 55.23,13.99 C 55.71,13.46 56,12.77 56,12 56,11.23 55.71,10.54 55.23,10.01 L 55.24,10 H 61 c 0.55,0 1,0.45 1,1 z"
           id="path14"
           inkscape:connector-curvature="0"
           style="fill:#cf9e76" />
      </g>
      <g
         id="g20">
        <path
           d="M 13.23,10.01 C 13.71,10.54 14,11.23 14,12 c 0,0.77 -0.29,1.46 -0.77,1.99 -0.33,0.39 -0.78,0.69 -1.29,0.85 C 11.65,14.95 11.33,15 11,15 10.67,15 10.35,14.95 10.06,14.84 9.55,14.68 9.1,14.38 8.77,13.99 8.29,13.46 8,12.77 8,12 8,11.23 8.29,10.54 8.77,10.01 9.3,9.39 10.11,9 11,9 c 0.89,0 1.7,0.39 2.23,1.01 z"
           id="path18"
           inkscape:connector-curvature="0"
           style="fill:#fcd770" />
      </g>
      <g
         id="g24">
        <path
           d="M 55.23,10.01 C 55.71,10.54 56,11.23 56,12 c 0,0.77 -0.29,1.46 -0.77,1.99 -0.33,0.39 -0.78,0.69 -1.29,0.85 C 53.65,14.95 53.33,15 53,15 52.67,15 52.35,14.95 52.06,14.84 51.55,14.68 51.1,14.38 50.77,13.99 50.29,13.46 50,12.77 50,12 50,11.23 50.29,10.54 50.77,10.01 51.3,9.39 52.11,9 53,9 c 0.89,0 1.7,0.39 2.23,1.01 z"
           id="path22"
           inkscape:connector-curvature="0"
           style="fill:#fcd770" />
      </g>
      <g
         id="g28">
        <path
           d="m 28,14 h 14 v 3 c 0,3.25 -1.05,6.4 -3,9 H 25 c -1.95,-2.6 -3,-5.75 -3,-9 v -3 -3 c 0,-0.35 0.06,-0.69 0.18,-1 0.4,-1.17 1.51,-2 2.82,-2 h 1 4 4 1 c 0.55,0 1,0.45 1,1 0,0.34 -0.05,0.68 -0.13,1 -0.36,1.32 -1.4,2.38 -2.78,2.73 z"
           id="path26"
           inkscape:connector-curvature="0"
           style="fill:#f0d0b4" />
      </g>
      <g
         id="g32">
        <path
           d="M 30,4 V 8 H 26 V 4 c 0,-1.1 0.9,-2 2,-2 0.55,0 1.05,0.22 1.41,0.59 C 29.78,2.95 30,3.45 30,4 Z"
           id="path30"
           inkscape:connector-curvature="0"
           style="fill:#f0d0b4" />
      </g>
      <g
         id="g36">
        <path
           d="m 38,6 v 2 c 0,1.1 -0.9,2 -2,2 H 35.87 C 35.95,9.68 36,9.34 36,9 36,8.45 35.55,8 35,8 H 34 V 4 c 0,-1.1 0.9,-2 2,-2 0.55,0 1.05,0.22 1.41,0.59 C 37.78,2.95 38,3.45 38,4 Z"
           id="path34"
           inkscape:connector-curvature="0"
           style="fill:#f0d0b4" />
      </g>
      <g
         id="g40">
        <path
           d="M 34,4 V 8 H 30 V 4 c 0,-1.1 0.9,-2 2,-2 0.55,0 1.05,0.22 1.41,0.59 C 33.78,2.95 34,3.45 34,4 Z"
           id="path38"
           inkscape:connector-curvature="0"
           style="fill:#f0d0b4" />
      </g>
      <g
         id="g44">
        <path
           d="m 42,6 v 2 c 0,1.1 -0.9,2 -2,2 C 39.45,10 38.95,9.78 38.59,9.41 38.22,9.05 38,8.55 38,8 V 6 c 0,-1.1 0.9,-2 2,-2 0.55,0 1.05,0.22 1.41,0.59 C 41.78,4.95 42,5.45 42,6 Z"
           id="path42"
           inkscape:connector-curvature="0"
           style="fill:#f0d0b4" />
      </g>
      <g
         id="g48">
        <path
           d="m 40,27 v 11.61 l -0.22,-0.22 -0.75,0.75 c -0.84,0.84 -2.1,1.08 -3.19,0.62 -0.01,0 -0.03,-0.01 -0.04,-0.01 C 34.71,39.3 34,38.24 34,37.05 V 36 h -4 v 1.05 c 0,1.19 -0.71,2.25 -1.8,2.7 -0.01,0 -0.03,0.01 -0.04,0.01 -1.09,0.46 -2.35,0.22 -3.19,-0.62 L 24.22,38.39 24,38.61 V 27 c 0,-0.55 0.45,-1 1,-1 h 14 c 0.55,0 1,0.45 1,1 z"
           id="path46"
           inkscape:connector-curvature="0"
           style="fill:#ff826e" />
      </g>
      <g
         id="g52">
        <path
           d="m 45,47 v 4 h -1.05 c -1.19,0 -2.25,0.71 -2.7,1.8 0,0.01 -0.01,0.03 -0.01,0.04 -0.46,1.09 -0.22,2.35 0.62,3.19 l 0.75,0.75 -2.83,2.83 -0.75,-0.75 c -0.84,-0.84 -2.1,-1.08 -3.19,-0.62 -0.01,0 -0.03,0.01 -0.04,0.01 -1.09,0.45 -1.8,1.51 -1.8,2.7 V 62 h -4 v -1.05 c 0,-1.19 -0.71,-2.25 -1.8,-2.7 -0.01,0 -0.03,-0.01 -0.04,-0.01 -1.09,-0.46 -2.35,-0.22 -3.19,0.62 l -0.75,0.75 -2.83,-2.83 0.75,-0.75 c 0.84,-0.84 1.08,-2.1 0.62,-3.19 0,-0.01 -0.01,-0.03 -0.01,-0.04 C 22.3,51.71 21.24,51 20.05,51 H 19 v -4 h 1.05 c 1.19,0 2.25,-0.71 2.7,-1.8 0,-0.01 0.01,-0.03 0.01,-0.04 0.46,-1.09 0.22,-2.35 -0.62,-3.19 l -0.75,-0.75 2.61,-2.61 0.22,-0.22 0.75,0.75 c 0.84,0.84 2.1,1.08 3.19,0.62 0.01,0 0.03,-0.01 0.04,-0.01 1.09,-0.45 1.8,-1.51 1.8,-2.7 V 36 h 4 v 1.05 c 0,1.19 0.71,2.25 1.8,2.7 0.01,0 0.03,0.01 0.04,0.01 1.09,0.46 2.35,0.22 3.19,-0.62 l 0.75,-0.75 0.22,0.22 2.61,2.61 -0.75,0.75 c -0.84,0.84 -1.08,2.1 -0.62,3.19 0,0.01 0.01,0.03 0.01,0.04 0.45,1.09 1.51,1.8 2.7,1.8 z m -7,2 c 0,-3.31 -2.69,-6 -6,-6 -3.31,0 -6,2.69 -6,6 0,3.31 2.69,6 6,6 3.31,0 6,-2.69 6,-6 z"
           id="path50"
           inkscape:connector-curvature="0"
           style="fill:#fcd770" />
      </g>
      <g
         id="g56">
        <path
           d="m 20,32 v 1 c 0,4.97 -4.03,9 -9,9 C 8.52,42 6.26,40.99 4.64,39.36 3.01,37.74 2,35.48 2,33 v -1 z"
           id="path54"
           inkscape:connector-curvature="0"
           style="fill:#aab2bd" />
      </g>
      <g
         id="g60">
        <path
           d="m 62,32 v 1 c 0,2.48 -1.01,4.74 -2.64,6.36 C 57.74,40.99 55.48,42 53,42 48.03,42 44,37.97 44,33 v -1 z"
           id="path58"
           inkscape:connector-curvature="0"
           style="fill:#aab2bd" />
      </g>
    </g>
    <g
       id="g70">
      <path
         d="m 38.316,18.948 -0.633,-1.896 c -2.175,0.725 -3.907,2.457 -4.632,4.632 l 1.896,0.633 c 0.529,-1.582 1.788,-2.841 3.369,-3.369 z"
         id="path64"
         inkscape:connector-curvature="0" />
      <path
         d="m 61,15 c 1.103,0 2,-0.897 2,-2 V 11 C 63,9.897 62.103,9 61,9 H 55.618 C 54.915,8.385 54.006,8 53,8 51.994,8 51.085,8.385 50.382,9 H 42.816 C 42.928,8.686 43,8.352 43,8 V 6 C 43,4.346 41.654,3 40,3 39.605,3 39.23,3.081 38.884,3.22 38.539,1.945 37.383,1 36,1 35.229,1 34.532,1.301 34,1.78 33.468,1.301 32.771,1 32,1 31.229,1 30.532,1.301 30,1.78 29.468,1.301 28.771,1 28,1 26.346,1 25,2.346 25,4 V 7 C 23.526,7 22.25,7.81 21.556,9 H 13.618 C 12.915,8.385 12.006,8 11,8 9.994,8 9.085,8.385 8.382,9 H 3 C 1.897,9 1,9.897 1,11 v 2 c 0,1.103 0.897,2 2,2 h 5.382 c 0.12,0.105 0.237,0.214 0.369,0.305 L 1,31.776 V 33 c 0,5.514 4.486,10 10,10 5.514,0 10,-4.486 10,-10 V 31.776 L 13.249,15.304 c 0.132,-0.09 0.249,-0.2 0.369,-0.305 H 21 v 2 c 0,3.05 0.898,6.076 2.541,8.641 C 23.208,25.999 23,26.474 23,27 v 11.195 l -3.024,3.024 1.456,1.456 c 0.551,0.552 0.712,1.377 0.394,2.141 C 21.527,45.535 20.833,46 20.055,46 H 18 v 6 h 2.055 c 0.778,0 1.473,0.465 1.786,1.222 0.303,0.726 0.142,1.551 -0.409,2.103 l -1.456,1.456 4.244,4.244 1.456,-1.456 c 0.551,-0.552 1.374,-0.714 2.141,-0.394 0.718,0.298 1.183,0.992 1.183,1.77 V 63 h 6 v -2.055 c 0,-0.778 0.465,-1.473 1.222,-1.786 0.728,-0.303 1.552,-0.142 2.103,0.409 l 1.456,1.456 4.244,-4.244 -1.456,-1.456 C 42.018,54.772 41.857,53.947 42.175,53.183 42.473,52.465 43.167,52 43.945,52 H 46 v -6 h -2.055 c -0.778,0 -1.473,-0.465 -1.786,-1.222 -0.303,-0.726 -0.142,-1.551 0.409,-2.103 L 44.024,41.219 41,38.195 V 27 C 41,26.474 40.792,25.999 40.459,25.641 42.102,23.076 43,20.05 43,17 v -2 h 7.382 c 0.12,0.105 0.237,0.214 0.369,0.305 L 43,31.776 V 33 c 0,5.514 4.486,10 10,10 5.514,0 10,-4.486 10,-10 V 31.776 L 55.249,15.304 c 0.132,-0.09 0.249,-0.2 0.369,-0.305 H 61 Z M 11,10 c 1.103,0 2,0.897 2,2 0,1.103 -0.897,2 -2,2 -1.103,0 -2,-0.897 -2,-2 0,-1.103 0.897,-2 2,-2 z M 3,11 H 7.142 C 7.058,11.322 7,11.653 7,12 c 0,0.347 0.058,0.678 0.142,1 H 3 Z m 8,30 C 6.589,41 3,37.411 3,33 h 16 c 0,4.411 -3.589,8 -8,8 z M 18.424,31 H 3.576 L 10.652,15.965 C 10.768,15.975 10.881,16 11,16 c 0.119,0 0.232,-0.025 0.348,-0.035 z M 14.858,13 C 14.942,12.678 15,12.347 15,12 15,11.653 14.942,11.322 14.858,11 H 21 v 2 z M 61,13 H 56.858 C 56.942,12.678 57,12.347 57,12 57,11.653 56.942,11.322 56.858,11 H 61 Z m -8,-3 c 1.103,0 2,0.897 2,2 0,1.103 -0.897,2 -2,2 -1.103,0 -2,-0.897 -2,-2 0,-1.103 0.897,-2 2,-2 z m -3.858,3 H 34.879 c 0.735,-0.5 1.307,-1.195 1.673,-2 h 12.59 C 49.058,11.322 49,11.653 49,12 c 0,0.347 0.058,0.678 0.142,1 z M 40,5 c 0.552,0 1,0.448 1,1 V 8 C 41,8.552 40.552,9 40,9 39.448,9 39,8.552 39,8 V 6 C 39,5.448 39.448,5 40,5 Z M 36,3 c 0.552,0 1,0.448 1,1 V 8 C 37,8.15 36.962,8.289 36.903,8.416 36.651,7.599 35.898,7 35,7 V 4 c 0,-0.552 0.448,-1 1,-1 z m -4,0 c 0.552,0 1,0.448 1,1 V 7 H 31 V 4 c 0,-0.552 0.448,-1 1,-1 z m -5,1 c 0,-0.552 0.448,-1 1,-1 0.552,0 1,0.448 1,1 v 3 h -2 z m 12,23 v 10.756 l -0.676,0.676 c -0.551,0.55 -1.374,0.713 -2.141,0.392 C 35.465,38.527 35,37.833 35,37.055 V 35 h -6 v 2.055 c 0,0.778 -0.465,1.473 -1.223,1.785 -0.724,0.303 -1.55,0.144 -2.102,-0.408 L 25,37.756 V 27 Z m 1.327,18.58 C 40.934,47.05 42.355,48 43.945,48 H 44 v 2 h -0.055 c -1.59,0 -3.011,0.95 -3.632,2.452 -0.616,1.477 -0.286,3.159 0.841,4.286 l 0.042,0.042 -1.416,1.416 -0.042,-0.042 C 38.612,57.029 36.931,56.696 35.42,57.327 33.95,57.935 33,59.355 33,60.945 V 61 h -2 v -0.055 c 0,-1.59 -0.95,-3.011 -2.452,-3.632 -1.477,-0.616 -3.159,-0.287 -4.286,0.841 l -0.042,0.042 -1.416,-1.416 0.042,-0.042 c 1.127,-1.127 1.457,-2.81 0.827,-4.318 C 23.065,50.95 21.645,50 20.055,50 H 20 v -2 h 0.055 c 1.59,0 3.011,-0.95 3.632,-2.452 0.616,-1.477 0.286,-3.159 -0.841,-4.286 l -0.042,-0.042 1.416,-1.416 0.042,0.042 c 1.126,1.127 2.809,1.457 4.318,0.827 C 30.05,40.066 31,38.646 31,37.055 V 37 h 2 v 0.055 c 0,1.591 0.95,3.011 2.451,3.631 1.475,0.614 3.159,0.288 4.287,-0.84 l 0.042,-0.042 1.416,1.416 -0.042,0.042 c -1.127,1.127 -1.457,2.809 -0.827,4.318 z M 41,17 c 0,2.847 -0.899,5.664 -2.524,8 H 25.524 C 23.899,22.664 23,19.847 23,17 v -6 c 0,-1.103 0.897,-2 2,-2 h 10 c 0,1.307 -0.886,2.44 -2.152,2.758 l -6.467,1.616 0.787,1.181 C 28.366,16.353 29,18.445 29,20.605 V 21 h 2 V 20.605 C 31,18.647 30.544,16.742 29.701,15 H 41 Z m 12,24 c -4.411,0 -8,-3.589 -8,-8 h 16 c 0,4.411 -3.589,8 -8,8 z M 60.424,31 H 45.576 L 52.652,15.965 C 52.768,15.975 52.881,16 53,16 c 0.119,0 0.232,-0.025 0.348,-0.035 z"
         id="path66"
         inkscape:connector-curvature="0" />
      <path
         d="m 32,42 c -3.859,0 -7,3.141 -7,7 0,3.859 3.141,7 7,7 3.859,0 7,-3.141 7,-7 0,-3.859 -3.141,-7 -7,-7 z m 0,12 c -2.757,0 -5,-2.243 -5,-5 0,-2.757 2.243,-5 5,-5 2.757,0 5,2.243 5,5 0,2.757 -2.243,5 -5,5 z"
         id="path68"
         inkscape:connector-curvature="0" />
    </g>
  </g>
</svg>
