<?xml version="1.0" encoding="UTF-8" standalone="no"?>
<!-- Generator: Adobe Illustrator 19.0.0, SVG Export Plug-In . SVG Version: 6.00 Build 0)  -->

<svg
   version="1.1"
   id="Layer_1"
   x="0px"
   y="0px"
   viewBox="0 0 124 124"
   xml:space="preserve"
   sodipodi:docname="interesses.svg"
   inkscape:version="1.1.2 (0a00cf5339, 2022-02-04)"
   width="124"
   height="124"
   xmlns:inkscape="http://www.inkscape.org/namespaces/inkscape"
   xmlns:sodipodi="http://sodipodi.sourceforge.net/DTD/sodipodi-0.dtd"
   xmlns="http://www.w3.org/2000/svg"
   xmlns:svg="http://www.w3.org/2000/svg"><defs
   id="defs65" /><sodipodi:namedview
   id="namedview63"
   pagecolor="#ffffff"
   bordercolor="#666666"
   borderopacity="1.0"
   inkscape:pageshadow="2"
   inkscape:pageopacity="0.0"
   inkscape:pagecheckerboard="0"
   showgrid="false"
   inkscape:zoom="0.78225806"
   inkscape:cx="-42.824742"
   inkscape:cy="152.12371"
   inkscape:window-width="1920"
   inkscape:window-height="1011"
   inkscape:window-x="0"
   inkscape:window-y="0"
   inkscape:window-maximized="1"
   inkscape:current-layer="g26" />
<g
   id="g30"
   style="fill:#6d8b8b;fill-opacity:1">
	<g
   id="g28"
   style="fill:#6d8b8b;fill-opacity:1">
		<g
   id="g26"
   style="fill:#6d8b8b;fill-opacity:1">
			<path
   d="M 116,70 H 96 v -4 h -4 v 4 H 88.884 C 87.004,63.22 82.814,57.404 77.198,53.456 l 5.964,-9.542 C 83.438,43.954 83.712,44 84,44 c 1.614,0 3.074,-0.648 4.154,-1.688 l 9.92,4.96 C 98.044,47.514 98,47.752 98,48 c 0,3.308 2.692,6 6,6 3.308,0 6,-2.692 6,-6 0,-1.63 -0.658,-3.108 -1.718,-4.19 l 9.036,-19.88 c 0.228,0.028 0.448,0.07 0.682,0.07 3.308,0 6,-2.692 6,-6 0,-3.308 -2.692,-6 -6,-6 -3.308,0 -6,2.692 -6,6 0,1.63 0.658,3.108 1.718,4.19 l -9.036,19.88 C 104.454,42.042 104.234,42 104,42 c -1.614,0 -3.074,0.648 -4.154,1.688 l -9.92,-4.96 C 89.956,38.486 90,38.248 90,38 c 0,-3.308 -2.692,-6 -6,-6 -3.308,0 -6,2.692 -6,6 0,1.568 0.618,2.986 1.606,4.056 L 73.78,51.38 C 69.648,49.234 64.968,48 60,48 c -1.36,0 -2.688,0.122 -4,0.298 V 4 h 8 V 0 H 56 28 20 v 4 h 8 V 55.44 L 2.568,97.216 C 0.888,99.978 0,103.146 0,106.38 0,116.096 7.904,124 17.62,124 h 48.76 c 9.714,0 17.62,-7.904 17.62,-17.62 0,-2.816 -0.712,-5.566 -1.996,-8.058 3.198,-3.458 5.586,-7.66 6.88,-12.324 H 92 v 4 h 4 v -4 h 20 c 4.412,0 8,-3.588 8,-8 C 124,73.586 120.412,70 116,70 Z m 2,-54 c 1.104,0 2,0.896 2,2 0,1.104 -0.896,2 -2,2 -1.104,0 -2,-0.896 -2,-2 0,-1.104 0.896,-2 2,-2 z m -14,30 c 1.104,0 2,0.896 2,2 0,1.104 -0.896,2 -2,2 -1.104,0 -2,-0.896 -2,-2 0,-1.104 0.896,-2 2,-2 z M 84,36 c 1.104,0 2,0.896 2,2 0,1.104 -0.896,2 -2,2 -1.104,0 -2,-0.896 -2,-2 0,-1.104 0.896,-2 2,-2 z M 60.838,72.084 C 60.562,72.046 60.288,72 60,72 c -3.308,0 -6,2.692 -6,6 0,3.308 2.692,6 6,6 3.308,0 6,-2.692 6,-6 0,-1.568 -0.618,-2.986 -1.606,-4.056 L 70.826,63.652 C 75.174,66.942 78,72.14 78,78 78,87.926 69.926,96 60,96 50.074,96 42,87.926 42,78 c 0,-9.926 8.074,-18 18,-18 2.634,0 5.132,0.582 7.39,1.604 z M 62,78 c 0,1.104 -0.896,2 -2,2 -1.104,0 -2,-0.896 -2,-2 0,-1.104 0.896,-2 2,-2 1.104,0 2,0.896 2,2 z M 32,56.56 V 4 H 52 V 49.116 C 41.886,51.922 33.922,59.886 31.116,70 H 23.82 Z M 66.38,120 H 17.62 C 10.11,120 4,113.89 4,106.38 c 0,-2.5 0.688,-4.95 1.986,-7.084 L 21.384,74 h 8.914 C 30.122,75.312 30,76.64 30,78 c 0,16.542 13.458,30 30,30 7.19,0 13.794,-2.546 18.966,-6.78 0.67,1.632 1.034,3.382 1.034,5.16 C 80,113.89 73.89,120 66.38,120 Z M 60,104 C 45.664,104 34,92.336 34,78 34,63.664 45.664,52 60,52 c 4.19,0 8.14,1.02 11.648,2.788 l -2.13,3.408 C 66.634,56.804 63.412,56 60,56 47.87,56 38,65.87 38,78 c 0,12.13 9.87,22 22,22 12.13,0 22,-9.87 22,-22 0,-7.288 -3.576,-13.74 -9.05,-17.746 l 2.124,-3.398 C 81.674,61.576 86,69.284 86,78 86,92.336 74.336,104 60,104 Z M 92,82 H 89.702 C 89.878,80.688 90,79.36 90,78 90,76.64 89.878,75.312 89.702,74 H 92 Z m 24,0 H 96 v -8 h 20 c 2.206,0 4,1.794 4,4 0,2.206 -1.794,4 -4,4 z"
   id="path2"
   style="fill:#6d8b8b;fill-opacity:1;stroke-width:0.25" />
			
			
			
			
			
			
			
			
			
			
			
		</g>
	</g>
</g>
<g
   id="g32">
</g>
<g
   id="g34">
</g>
<g
   id="g36">
</g>
<g
   id="g38">
</g>
<g
   id="g40">
</g>
<g
   id="g42">
</g>
<g
   id="g44">
</g>
<g
   id="g46">
</g>
<g
   id="g48">
</g>
<g
   id="g50">
</g>
<g
   id="g52">
</g>
<g
   id="g54">
</g>
<g
   id="g56">
</g>
<g
   id="g58">
</g>
<g
   id="g60">
</g>
</svg>
