<?xml version="1.0" encoding="UTF-8" standalone="no"?>
<!-- Generator: Adobe Illustrator 19.0.0, SVG Export Plug-In . SVG Version: 6.00 Build 0)  -->

<svg
   version="1.1"
   id="Layer_1"
   x="0px"
   y="0px"
   viewBox="0 0 248 248"
   xml:space="preserve"
   sodipodi:docname="interesses.svg"
   inkscape:version="1.1.2 (0a00cf5339, 2022-02-04)"
   width="248"
   height="248"
   xmlns:inkscape="http://www.inkscape.org/namespaces/inkscape"
   xmlns:sodipodi="http://sodipodi.sourceforge.net/DTD/sodipodi-0.dtd"
   xmlns="http://www.w3.org/2000/svg"
   xmlns:svg="http://www.w3.org/2000/svg"><defs
   id="defs65" /><sodipodi:namedview
   id="namedview63"
   pagecolor="#ffffff"
   bordercolor="#666666"
   borderopacity="1.0"
   inkscape:pageshadow="2"
   inkscape:pageopacity="0.0"
   inkscape:pagecheckerboard="0"
   showgrid="false"
   inkscape:zoom="0.27656999"
   inkscape:cx="-706.87351"
   inkscape:cy="723.14426"
   inkscape:window-width="1920"
   inkscape:window-height="1011"
   inkscape:window-x="0"
   inkscape:window-y="0"
   inkscape:window-maximized="1"
   inkscape:current-layer="g26" />
<g
   id="g30"
   style="fill:#6d8b8b;fill-opacity:1">
	<g
   id="g28"
   style="fill:#6d8b8b;fill-opacity:1">
		<g
   id="g26"
   style="fill:#6d8b8b;fill-opacity:1">
			<path
   d="m 232,140 h -40 v -8 h -8 v 8 h -6.232 c -3.76,-13.56 -12.14,-25.192 -23.372,-33.088 l 11.928,-19.084 c 0.552,0.08 1.1,0.172 1.676,0.172 3.228,0 6.148,-1.296 8.308,-3.376 l 19.84,9.92 C 196.088,95.028 196,95.504 196,96 c 0,6.616 5.384,12 12,12 6.616,0 12,-5.384 12,-12 0,-3.26 -1.316,-6.216 -3.436,-8.38 l 18.072,-39.76 c 0.456,0.056 0.896,0.14 1.364,0.14 6.616,0 12,-5.384 12,-12 0,-6.616 -5.384,-12 -12,-12 -6.616,0 -12,5.384 -12,12 0,3.26 1.316,6.216 3.436,8.38 L 209.364,84.14 C 208.908,84.084 208.468,84 208,84 c -3.228,0 -6.148,1.296 -8.308,3.376 l -19.84,-9.92 C 179.912,76.972 180,76.496 180,76 c 0,-6.616 -5.384,-12 -12,-12 -6.616,0 -12,5.384 -12,12 0,3.136 1.236,5.972 3.212,8.112 L 147.56,102.76 C 139.296,98.468 129.936,96 120,96 c -2.72,0 -5.376,0.244 -8,0.596 V 8 h 16 V 0 H 112 56 40 V 8 H 56 V 110.88 L 5.136,194.432 C 1.776,199.956 0,206.292 0,212.76 0,232.192 15.808,248 35.24,248 h 97.52 c 19.428,0 35.24,-15.808 35.24,-35.24 0,-5.632 -1.424,-11.132 -3.992,-16.116 6.396,-6.916 11.172,-15.32 13.76,-24.648 H 184 v 8 h 8 v -8 h 40 c 8.824,0 16,-7.176 16,-16 C 248,147.172 240.824,140 232,140 Z m 4,-108 c 2.208,0 4,1.792 4,4 0,2.208 -1.792,4 -4,4 -2.208,0 -4,-1.792 -4,-4 0,-2.208 1.792,-4 4,-4 z m -28,60 c 2.208,0 4,1.792 4,4 0,2.208 -1.792,4 -4,4 -2.208,0 -4,-1.792 -4,-4 0,-2.208 1.792,-4 4,-4 z M 168,72 c 2.208,0 4,1.792 4,4 0,2.208 -1.792,4 -4,4 -2.208,0 -4,-1.792 -4,-4 0,-2.208 1.792,-4 4,-4 z m -46.324,72.168 C 121.124,144.092 120.576,144 120,144 c -6.616,0 -12,5.384 -12,12 0,6.616 5.384,12 12,12 6.616,0 12,-5.384 12,-12 0,-3.136 -1.236,-5.972 -3.212,-8.112 l 12.864,-20.584 C 150.348,133.884 156,144.28 156,156 c 0,19.852 -16.148,36 -36,36 -19.852,0 -36,-16.148 -36,-36 0,-19.852 16.148,-36 36,-36 5.268,0 10.264,1.164 14.78,3.208 z M 124,156 c 0,2.208 -1.792,4 -4,4 -2.208,0 -4,-1.792 -4,-4 0,-2.208 1.792,-4 4,-4 2.208,0 4,1.792 4,4 z M 64,113.12 V 8 h 40 V 98.232 C 83.772,103.844 67.844,119.772 62.232,140 H 47.64 Z M 132.76,240 H 35.24 C 20.22,240 8,227.78 8,212.76 c 0,-5 1.376,-9.9 3.972,-14.168 L 42.768,148 h 17.828 c -0.352,2.624 -0.596,5.28 -0.596,8 0,33.084 26.916,60 60,60 14.38,0 27.588,-5.092 37.932,-13.56 1.34,3.264 2.068,6.764 2.068,10.32 0,15.02 -12.22,27.24 -27.24,27.24 z M 120,208 c -28.672,0 -52,-23.328 -52,-52 0,-28.672 23.328,-52 52,-52 8.38,0 16.28,2.04 23.296,5.576 l -4.26,6.816 C 133.268,113.608 126.824,112 120,112 c -24.26,0 -44,19.74 -44,44 0,24.26 19.74,44 44,44 24.26,0 44,-19.74 44,-44 0,-14.576 -7.152,-27.48 -18.1,-35.492 l 4.248,-6.796 c 13.2,9.44 21.852,24.856 21.852,42.288 0,28.672 -23.328,52 -52,52 z m 64,-44 h -4.596 c 0.352,-2.624 0.596,-5.28 0.596,-8 0,-2.72 -0.244,-5.376 -0.596,-8 H 184 Z m 48,0 h -40 v -16 h 40 c 4.412,0 8,3.588 8,8 0,4.412 -3.588,8 -8,8 z"
   id="path2"
   style="fill:#6d8b8b;fill-opacity:1;stroke-width:0.5" />
			
			
			
			
			
			
			
			
			
			
			
		</g>
	</g>
</g>
<g
   id="g32">
</g>
<g
   id="g34">
</g>
<g
   id="g36">
</g>
<g
   id="g38">
</g>
<g
   id="g40">
</g>
<g
   id="g42">
</g>
<g
   id="g44">
</g>
<g
   id="g46">
</g>
<g
   id="g48">
</g>
<g
   id="g50">
</g>
<g
   id="g52">
</g>
<g
   id="g54">
</g>
<g
   id="g56">
</g>
<g
   id="g58">
</g>
<g
   id="g60">
</g>
</svg>
