<?xml version="1.0" encoding="UTF-8" standalone="no"?>
<svg
   xmlns:dc="http://purl.org/dc/elements/1.1/"
   xmlns:cc="http://creativecommons.org/ns#"
   xmlns:rdf="http://www.w3.org/1999/02/22-rdf-syntax-ns#"
   xmlns:svg="http://www.w3.org/2000/svg"
   xmlns="http://www.w3.org/2000/svg"
   xmlns:sodipodi="http://sodipodi.sourceforge.net/DTD/sodipodi-0.dtd"
   xmlns:inkscape="http://www.inkscape.org/namespaces/inkscape"
   height="67.5pt"
   viewBox="0 0 67.5 67.5"
   width="67.5pt"
   version="1.1"
   id="svg16"
   sodipodi:docname="meeting_puzzle_color_90x90.svg"
   inkscape:version="0.92.3 (2405546, 2018-03-11)">
  <metadata
     id="metadata22">
    <rdf:RDF>
      <cc:Work
         rdf:about="">
        <dc:format>image/svg+xml</dc:format>
        <dc:type
           rdf:resource="http://purl.org/dc/dcmitype/StillImage" />
        <dc:title />
      </cc:Work>
    </rdf:RDF>
  </metadata>
  <defs
     id="defs20" />
  <sodipodi:namedview
     pagecolor="#ffffff"
     bordercolor="#666666"
     borderopacity="1"
     objecttolerance="10"
     gridtolerance="10"
     guidetolerance="10"
     inkscape:pageopacity="0"
     inkscape:pageshadow="2"
     inkscape:window-width="1366"
     inkscape:window-height="719"
     id="namedview18"
     showgrid="false"
     inkscape:zoom="2.085965"
     inkscape:cx="16.675462"
     inkscape:cy="63.834126"
     inkscape:window-x="0"
     inkscape:window-y="25"
     inkscape:window-maximized="1"
     inkscape:current-layer="svg16"
     showguides="false" />
  <g
     id="g830"
     transform="scale(1.5)"
     style="stroke:none">
    <path
       style="stroke-width:0.09375;stroke:none"
       inkscape:connector-curvature="0"
       id="path2"
       d="M 0.75,7.5 H 12 V 9 c 0,0.30286 0.183105,0.57678 0.462891,0.69287 0.09302,0.0384 0.190429,0.0571 0.287109,0.0571 0.194824,0 0.387085,-0.0765 0.530273,-0.21973 L 15.310547,7.5 H 17.25 C 17.663818,7.5 18,7.16382 18,6.75 v -6 C 18,0.33618 17.663818,0 17.25,0 H 0.75 C 0.33618169,0 0,0.33618 0,0.75 v 6 C 0,7.16382 0.33618169,7.5 0.75,7.5 Z m 0.75,-6 h 15 V 6 H 15 C 14.801147,6 14.609985,6.0787 14.469727,6.21973 L 13.5,7.18945 V 6.75 C 13.5,6.33618 13.163818,6 12.75,6 H 1.5 Z m 0,0" />
    <path
       style="stroke-width:0.09375;stroke:none"
       inkscape:connector-curvature="0"
       id="path4"
       d="m 29.25,6 h 3.439453 l 2.030274,2.03027 C 34.862915,8.17346 35.055176,8.25 35.25,8.25 35.34668,8.25 35.444092,8.2313 35.537109,8.1929 35.816895,8.07678 36,7.80286 36,7.5 V 6 h 3.75 C 40.163818,6 40.5,5.66382 40.5,5.25 V 0.75 C 40.5,0.33618 40.163818,0 39.75,0 H 29.25 C 28.836182,0 28.5,0.33618 28.5,0.75 v 4.5 C 28.5,5.66382 28.836182,6 29.25,6 Z M 30,1.5 h 9 v 3 H 35.25 C 34.836182,4.5 34.5,4.83618 34.5,5.25 V 5.68945 L 33.530273,4.71973 C 33.390015,4.57874 33.198853,4.5 33,4.5 h -3 z m 0,0" />
    <path
       style="stroke-width:0.09375;stroke:none"
       inkscape:connector-curvature="0"
       id="path6"
       d="M 3.75,35.25 V 45 h 1.5 v -9.75 h 6 v 9 c 0,0.41382 0.336182,0.75 0.75,0.75 h 4.5 c 0.413818,0 0.75,-0.33618 0.75,-0.75 V 33 c 0,-0.84741 -0.293335,-1.62158 -0.769409,-2.25 H 21.75 V 43.5 h -3 V 45 h 7.5 v -1.5 h -3 V 30.75 h 5.251465 C 28.030518,31.37695 27.75,32.15625 27.75,33 v 11.25 c 0,0.41382 0.336182,0.75 0.75,0.75 H 33 c 0.413818,0 0.75,-0.33618 0.75,-0.75 v -9 h 6 V 45 h 1.5 V 35.25 C 43.317627,35.25 45,33.56763 45,31.5 V 21.75 C 45,20.09912 43.920776,18.70935 42.435791,18.21057 43.545044,17.24707 44.25,15.83093 44.25,14.25 44.25,11.3551 41.894897,9 39,9 c -2.894897,0 -5.25,2.3551 -5.25,5.25 0,1.58093 0.704956,2.99707 1.814209,3.96057 C 34.079224,18.70935 33,20.09912 33,21.75 v 3 h -6 c -0.413818,0 -0.75,0.33618 -0.75,0.75 v 3.75 H 19.041138 L 20.961914,23.48694 19.538818,23.01233 17.459106,29.25 H 10.685303 L 11.852417,24 H 15.75 c 0.198853,0 0.390015,-0.0787 0.530273,-0.21973 L 20.560547,19.5 H 21.09668 C 21.032959,19.74316 21,19.99512 21,20.25 c 0,1.65454 1.345459,3 3,3 1.654541,0 3,-1.34546 3,-3 0,-0.25488 -0.03296,-0.50684 -0.09668,-0.75 H 28.5 c 0.413818,0 0.75,-0.33618 0.75,-0.75 v -3.58484 c 0,-0.297 -0.174683,-0.56579 -0.446411,-0.68555 -0.269898,-0.11938 -0.587036,-0.0692 -0.807495,0.12964 C 27.718506,14.86121 27.36438,15 27,15 c -0.827271,0 -1.5,-0.67273 -1.5,-1.5 0,-0.82727 0.672729,-1.5 1.5,-1.5 0.36438,0 0.718506,0.13879 0.996826,0.39075 0.219727,0.19958 0.536133,0.24902 0.807495,0.12964 C 29.075317,12.40063 29.25,12.1311 29.25,11.83484 V 8.25 C 29.25,7.83618 28.913818,7.5 28.5,7.5 H 26.90332 C 26.967041,7.25684 27,7.00488 27,6.75 c 0,-1.65454 -1.345459,-3 -3,-3 -1.654541,0 -3,1.34546 -3,3 0,0.25488 0.03296,0.50684 0.09668,0.75 H 19.5 c -0.413818,0 -0.75,0.33618 -0.75,0.75 v 4.93945 L 13.939453,18 h -2.02185 C 12.892456,17.04602 13.5,15.71851 13.5,14.25 13.5,11.3551 11.144897,9 8.25,9 5.3551026,9 3,11.3551 3,14.25 3,15.86169 3.7313232,17.30383 4.8779297,18.26843 3.7034912,18.73279 2.8033448,19.7677 2.5642089,21.06592 L 1.5,26.51038 V 20.25 H 0 V 31.5 c 0,2.06763 1.682373,3.75 3.75,3.75 z m 31.5,-21 c 0,-2.06763 1.682373,-3.75 3.75,-3.75 2.067627,0 3.75,1.68237 3.75,3.75 0,2.06763 -1.682373,3.75 -3.75,3.75 -2.067627,0 -3.75,-1.68237 -3.75,-3.75 z m -7.5,12 h 6 c 0.413818,0 0.75,-0.33618 0.75,-0.75 v -3.75 c 0,-1.24036 1.009644,-2.25 2.25,-2.25 h 4.5 c 1.240356,0 2.25,1.00964 2.25,2.25 v 9.75 c 0,1.24036 -1.009644,2.25 -2.25,2.25 H 33 c -0.413818,0 -0.75,0.33618 -0.75,0.75 v 9 h -3 V 33 c 0,-1.24036 1.009644,-2.25 2.25,-2.25 h 6.75 C 38.663818,30.75 39,30.41382 39,30 v -6.75 h -1.5 v 6 H 27.75 Z M 20.25,9 h 2.084839 C 22.631836,9 22.900635,8.82532 23.020386,8.55359 23.141235,8.28296 23.090336,7.96582 22.890747,7.74609 22.638794,7.46851 22.5,7.11438 22.5,6.75 c 0,-0.82727 0.672729,-1.5 1.5,-1.5 0.827271,0 1.5,0.67273 1.5,1.5 0,0.36438 -0.138794,0.71851 -0.390747,0.99683 C 24.909668,7.96655 24.859497,8.28296 24.979614,8.55432 25.099365,8.82532 25.368164,9 25.665161,9 H 27.75 v 1.59668 C 27.506836,10.53296 27.254883,10.5 27,10.5 c -1.654541,0 -3,1.34546 -3,3 0,1.65454 1.345459,3 3,3 0.254883,0 0.506836,-0.033 0.75,-0.0967 V 18 h -2.084839 c -0.296997,0 -0.565796,0.17468 -0.685547,0.44641 -0.120849,0.27136 -0.06921,0.58777 0.129639,0.8075 C 25.361206,19.53149 25.5,19.88562 25.5,20.25 c 0,0.82727 -0.672729,1.5 -1.5,1.5 -0.827271,0 -1.5,-0.67273 -1.5,-1.5 0,-0.36438 0.138794,-0.71851 0.390747,-0.99609 0.199585,-0.21973 0.250488,-0.53614 0.129639,-0.8075 C 22.900635,18.17468 22.631836,18 22.334839,18 h -0.274292 l 0.969726,-0.96973 c 0.293335,-0.29333 0.293335,-0.76721 0,-1.06054 L 20.25,13.18945 Z M 4.5,14.25 C 4.5,12.18237 6.182373,10.5 8.25,10.5 10.317627,10.5 12,12.18237 12,14.25 12,16.31763 10.317627,18 8.25,18 6.182373,18 4.5,16.31763 4.5,14.25 Z M 2.1306152,31.10413 4.0371094,21.3457 C 4.2344971,20.27637 5.1676026,19.5 6.2548828,19.5 H 14.25 c 0.198853,0 0.390015,-0.0787 0.530273,-0.21973 L 19.5,14.56055 21.439453,16.5 l -6,6 H 11.25 c -0.351929,0 -0.65625,0.24463 -0.732056,0.5874 l -1.4999997,6.75 c -0.049438,0.22193 0.00439,0.45447 0.1472169,0.63135 C 9.3076172,30.64636 9.522583,30.75 9.75,30.75 h 3.75 c 1.240356,0 2.25,1.00964 2.25,2.25 v 10.5 h -3 v -9 c 0,-0.41382 -0.336182,-0.75 -0.75,-0.75 H 4.3425292 C 3.6749268,33.75 3.0457763,33.4552 2.6184083,32.94141 2.1884766,32.42688 2.0123291,31.75415 2.1306152,31.10413 Z m 0,0" />
    <path
       style="stroke-width:0.09375;stroke:none"
       inkscape:connector-curvature="0"
       id="path8"
       d="M 3,3 H 6 V 4.5 H 3 Z m 0,0" />
    <path
       style="stroke-width:0.09375;stroke:none"
       inkscape:connector-curvature="0"
       id="path10"
       d="M 7.5,3 H 9 V 4.5 H 7.5 Z m 0,0" />
    <path
       style="stroke-width:0.09375;stroke:none"
       inkscape:connector-curvature="0"
       id="path12"
       d="M 10.5,3 H 12 v 1.5 h -1.5 z m 0,0" />
    <path
       style="stroke-width:0.09375;stroke:none"
       inkscape:connector-curvature="0"
       id="path14"
       d="M 13.5,3 H 15 v 1.5 h -1.5 z m 0,0" />
    <path
       style="fill:#deaa87;fill-opacity:1;stroke:none;stroke-width:0.0599243;stroke-opacity:1"
       d="M 16.462891 21.048828 C 13.686078 21.048828 11.137583 22.613411 9.8671875 25.097656 C 9.297829 26.211031 9.0460481 27.248743 9.046875 28.480469 C 9.0479217 30.039753 9.4513344 31.372793 10.3125 32.667969 C 10.732714 33.299963 11.637162 34.216425 12.261719 34.642578 C 13.181669 35.270288 14.262154 35.698892 15.392578 35.886719 C 16.192524 36.019634 17.460334 35.955811 18.314453 35.738281 C 19.638391 35.401096 20.786394 34.742654 21.775391 33.753906 C 23.20595 32.323706 23.943472 30.556403 23.951172 28.539062 C 23.954709 27.616004 23.874492 27.075188 23.617188 26.263672 C 23.247492 25.09768 22.661571 24.143133 21.75 23.228516 C 20.302992 21.776673 18.537755 21.048828 16.462891 21.048828 z "
       transform="scale(0.5)"
       id="path832" />
    <path
       style="fill:#784421;fill-opacity:1;stroke:none;stroke-width:0.0599243;stroke-opacity:1"
       d="m 77.141035,35.926297 c -2.540679,-0.327056 -4.707466,-1.873021 -5.868722,-4.187231 -0.796478,-1.587263 -0.949472,-3.783605 -0.384187,-5.515307 0.809865,-2.480954 2.870713,-4.387817 5.388376,-4.985761 4.106145,-0.975207 8.158011,1.627775 9.05499,5.817066 0.08337,0.389382 0.107487,0.749306 0.102385,1.52807 -0.0061,0.936491 -0.02182,1.076752 -0.19439,1.737805 -0.731416,2.801872 -3.030749,4.97512 -5.83249,5.512666 -0.600973,0.115304 -1.731163,0.161536 -2.265962,0.09269 z"
       id="path840"
       inkscape:connector-curvature="0"
       transform="scale(0.5)" />
    <path
       style="fill:#008080;fill-opacity:1;stroke:none;stroke-width:0.08474576;stroke-opacity:1"
       d="m 47.436465,43.403305 c -0.874431,-0.1818 -1.721789,-0.856486 -2.127563,-1.694015 -0.190765,-0.393743 -0.226388,-0.580375 -0.22666,-1.187503 -3.56e-4,-0.798931 0.158611,-1.270216 0.628635,-1.86367 0.390314,-0.492812 0.535699,-0.906657 0.474743,-1.351379 -0.105958,-0.77305 -0.657287,-1.261326 -1.518076,-1.344461 l -0.408324,-0.03944 1.056196,-1.06917 c 0.817667,-0.827712 1.07724,-1.145727 1.149377,-1.408154 0.117039,-0.425778 0.116652,-0.494452 -0.0052,-0.922372 -0.08374,-0.294064 -0.555958,-0.808156 -3.008474,-3.275237 L 40.54197,26.321484 V 22.192822 18.06416 l 2.097457,-4.75e-4 c 1.217126,-2.71e-4 2.233359,-0.03821 2.421253,-0.09039 0.723334,-0.200857 1.256544,-1.016519 1.12453,-1.720215 -0.03017,-0.16083 -0.261108,-0.602339 -0.513191,-0.981131 -0.710231,-1.067228 -0.814237,-2.006708 -0.334435,-3.020927 0.416754,-0.880945 1.209285,-1.473233 2.223751,-1.661893 1.060978,-0.19731 2.245512,0.334795 2.888372,1.297486 0.724653,1.085177 0.684263,2.1737 -0.1261,3.39835 -0.251787,0.380509 -0.482203,0.821948 -0.512037,0.980975 -0.124681,0.66461 0.43058,1.514051 1.113667,1.70369 0.203897,0.05661 1.165762,0.09377 2.434529,0.09405 l 2.097458,4.73e-4 v 1.536017 1.536016 l -0.2685,-0.0537 c -1.022565,-0.204512 -2.126164,-0.131004 -3.151702,0.20993 -1.836108,0.610404 -3.381936,2.286759 -3.870605,4.197435 -0.223386,0.87343 -0.2247,2.15139 -0.0031,3.017824 0.662889,2.591873 3.024995,4.463398 5.68374,4.503295 0.396187,0.006 0.920551,-0.01911 1.165255,-0.05567 l 0.444915,-0.06648 v 1.528343 1.528343 h -2.129998 c -2.362219,0 -2.627299,0.04134 -3.079137,0.480155 -0.621703,0.60379 -0.607083,1.41515 0.04023,2.232446 0.470025,0.593454 0.628994,1.064739 0.628636,1.86367 -2.54e-4,0.607128 -0.0359,0.79376 -0.22666,1.187503 -0.588074,1.213799 -2.007983,1.953036 -3.253826,1.694015 z"
       id="path848"
       inkscape:connector-curvature="0"
       transform="scale(0.5)" />
  </g>
  <path
     style="fill:#aab2bd;fill-opacity:1;stroke:none;stroke-width:0.11984861;stroke-opacity:1"
     d="m 25.532628,77.763729 c 0,-10.002552 0.02786,-9.591698 -0.683004,-10.073496 -0.319765,-0.216725 -0.739852,-0.230379 -8.844961,-0.287456 L 7.4954123,67.342852 6.8075496,67.005073 C 5.4816501,66.353984 4.5910231,65.151628 4.3104734,63.633996 4.2010796,63.04223 4.2273387,62.719209 4.4994267,61.30963 6.1871961,52.565967 8.1845261,42.452725 8.2903539,42.11472 8.77714,40.559972 10.234147,39.369897 11.955579,39.120986 c 0.467594,-0.06761 4.300632,-0.11859 9.019441,-0.119955 l 8.206269,-0.0024 4.918813,-4.913538 4.918814,-4.913537 1.885496,1.888263 1.885498,1.888264 -6.022374,6.021489 -6.022375,6.021489 h -4.350024 c -4.799723,0 -4.837104,0.0053 -5.214252,0.739793 -0.249716,0.486321 -3.19872,13.752944 -3.19872,14.39002 0,0.349774 0.09416,0.556819 0.410058,0.901699 l 0.410058,0.447671 4.593621,0.05992 4.593622,0.05992 0.803071,0.380447 c 0.985052,0.466659 1.740753,1.201803 2.202827,2.142902 l 0.349863,0.712563 0.03239,11.056034 0.03239,11.056035 h -2.938716 -2.938716 z"
     id="path874"
     inkscape:connector-curvature="0"
     transform="scale(0.75)" />
</svg>
